{
.appVersion = "1286";
DisplayStrings = (
ABCDEFGHIJKLMNOPQRSTUVWXYZabcdefghijklmnopqrstuvwxyz0123456789,

glyphs = (
{
glyphname = A;
layers = (
{
layerId = "CFFEBDE4-599A-46B2-9328-D96E42CD9C81";
paths = (
{
closed = 1;
nodes = (
"638 0 LINE",
"360 717 LINE",
"279 717 LINE",
"0 0 LINE",
"91 0 LINE",
"176 221 LINE",
"459 221 LINE",
"545 0 LINE",
"545 0 LINE"
);
},
{
closed = 1;
nodes = (
"206 301 LINE",
"287 517 LINE SMOOTH",
"293 534 OFFCURVE",
"311 593 OFFCURVE",
"318 624 QCURVE",
"322 612 OFFCURVE",
"335 567 OFFCURVE",
"349 525 OFFCURVE",
"352 517 QCURVE SMOOTH",
"432 301 LINE",
"432 301 LINE"
);
}
);
width = 639;
}
);
leftKerningGroup = A;
note = A;
rightKerningGroup = A;
unicode = 0041;
},
{
glyphname = B;
layers = (
{
layerId = "CFFEBDE4-599A-46B2-9328-D96E42CD9C81";
paths = (
{
closed = 1;
nodes = (
"97 0 LINE",
"348 0 LINE SMOOTH",
"463 0 OFFCURVE",
"596 106 OFFCURVE",
"596 203 QCURVE SMOOTH",
"596 259 OFFCURVE",
"554 329 OFFCURVE",
"481 367 OFFCURVE",
"436 374 QCURVE",
"436 379 LINE",
"502 391 OFFCURVE",
"572 474 OFFCURVE",
"572 537 QCURVE SMOOTH",
"572 635 OFFCURVE",
"435 714 OFFCURVE",
"301 714 QCURVE SMOOTH",
"97 714 LINE",
"97 714 LINE"
);
},
{
closed = 1;
nodes = (
"187 637 LINE",
"305 637 LINE SMOOTH",
"396 637 OFFCURVE",
"479 586 OFFCURVE",
"479 527 QCURVE SMOOTH",
"479 469 OFFCURVE",
"411 410 OFFCURVE",
"319 410 QCURVE SMOOTH",
"187 410 LINE",
"187 410 LINE"
);
},
{
closed = 1;
nodes = (
"324 335 LINE SMOOTH",
"423 335 OFFCURVE",
"500 266 OFFCURVE",
"500 210 QCURVE SMOOTH",
"500 150 OFFCURVE",
"426 76 OFFCURVE",
"331 76 QCURVE SMOOTH",
"187 76 LINE",
"187 335 LINE",
"187 335 LINE"
);
}
);
width = 650;
}
);
note = B;
unicode = 0042;
},
{
glyphname = C;
layers = (
{
layerId = "CFFEBDE4-599A-46B2-9328-D96E42CD9C81";
paths = (
{
closed = 1;
nodes = (
"451 645 OFFCURVE",
"532 621 OFFCURVE",
"565 606 QCURVE",
"601 682 LINE",
"517 724 OFFCURVE",
"404 724 QCURVE SMOOTH",
"294 724 OFFCURVE",
"140 631 OFFCURVE",
"61 466 OFFCURVE",
"61 358 QCURVE SMOOTH",
"61 246 OFFCURVE",
"134 80 OFFCURVE",
"280 -10 OFFCURVE",
"389 -10 QCURVE SMOOTH",
"448 -10 OFFCURVE",
"533 4 OFFCURVE",
"573 19 QCURVE",
"573 97 LINE",
"533 85 OFFCURVE",
"449 69 OFFCURVE",
"402 69 QCURVE SMOOTH",
"279 69 OFFCURVE",
"156 224 OFFCURVE",
"156 357 QCURVE SMOOTH",
"156 491 OFFCURVE",
"288 645 OFFCURVE",
"403 645 QCURVE",
"403 645 LINE"
);
}
);
width = 632;
}
);
leftKerningGroup = C;
note = C;
rightKerningGroup = C;
unicode = 0043;
},
{
glyphname = D;
layers = (
{
layerId = "CFFEBDE4-599A-46B2-9328-D96E42CD9C81";
paths = (
{
closed = 1;
nodes = (
"669 479 OFFCURVE",
"583 634 OFFCURVE",
"425 714 OFFCURVE",
"317 714 QCURVE SMOOTH",
"97 714 LINE",
"97 0 LINE",
"296 0 LINE SMOOTH",
"472 0 OFFCURVE",
"669 183 OFFCURVE",
"669 364 QCURVE",
"669 364 LINE"
);
},
{
closed = 1;
nodes = (
"574 77 OFFCURVE",
"284 77 QCURVE SMOOTH",
"187 77 LINE",
"187 637 LINE",
"304 637 LINE SMOOTH",
"433 637 OFFCURVE",
"574 504 OFFCURVE",
"574 361 QCURVE",
"574 361 LINE"
);
}
);
width = 730;
}
);
note = D;
rightKerningGroup = D;
unicode = 0044;
},
{
glyphname = E;
layers = (
{
layerId = "CFFEBDE4-599A-46B2-9328-D96E42CD9C81";
paths = (
{
closed = 1;
nodes = (
"496 79 LINE",
"187 79 LINE",
"187 334 LINE",
"478 334 LINE",
"478 412 LINE",
"187 412 LINE",
"187 635 LINE",
"496 635 LINE",
"496 714 LINE",
"97 714 LINE",
"97 0 LINE",
"496 0 LINE",
"496 0 LINE"
);
}
);
width = 556;
}
);
note = E;
rightKerningGroup = E;
unicode = 0045;
},
{
glyphname = F;
layers = (
{
layerId = "CFFEBDE4-599A-46B2-9328-D96E42CD9C81";
paths = (
{
closed = 1;
nodes = (
"187 303 LINE",
"477 303 LINE",
"477 382 LINE",
"187 382 LINE",
"187 635 LINE",
"496 635 LINE",
"496 714 LINE",
"97 714 LINE",
"97 0 LINE",
"187 0 LINE",
"187 0 LINE"
);
}
);
width = 519;
}
);
note = F;
unicode = 0046;
},
{
glyphname = G;
layers = (
{
layerId = "CFFEBDE4-599A-46B2-9328-D96E42CD9C81";
paths = (
{
closed = 1;
nodes = (
"407 297 LINE",
"564 297 LINE",
"564 85 LINE",
"537 78 OFFCURVE",
"471 68 OFFCURVE",
"424 68 QCURVE SMOOTH",
"328 68 OFFCURVE",
"210 141 OFFCURVE",
"155 272 OFFCURVE",
"155 357 QCURVE SMOOTH",
"155 491 OFFCURVE",
"298 645 OFFCURVE",
"426 645 QCURVE SMOOTH",
"477 645 OFFCURVE",
"572 621 OFFCURVE",
"610 604 QCURVE",
"644 682 LINE",
"598 702 OFFCURVE",
"491 724 OFFCURVE",
"431 724 QCURVE SMOOTH",
"314 724 OFFCURVE",
"149 633 OFFCURVE",
"61 469 OFFCURVE",
"61 357 QCURVE SMOOTH",
"61 244 OFFCURVE",
"140 79 OFFCURVE",
"292 -10 OFFCURVE",
"403 -10 QCURVE SMOOTH",
"478 -10 OFFCURVE",
"596 8 OFFCURVE",
"654 27 QCURVE",
"654 377 LINE",
"407 377 LINE",
"407 377 LINE"
);
}
);
width = 728;
}
);
leftKerningGroup = C;
note = G;
unicode = 0047;
},
{
glyphname = H;
layers = (
{
layerId = "CFFEBDE4-599A-46B2-9328-D96E42CD9C81";
paths = (
{
closed = 1;
nodes = (
"643 714 LINE",
"553 714 LINE",
"553 412 LINE",
"187 412 LINE",
"187 714 LINE",
"97 714 LINE",
"97 0 LINE",
"187 0 LINE",
"187 333 LINE",
"553 333 LINE",
"553 0 LINE",
"643 0 LINE",
"643 0 LINE"
);
}
);
width = 741;
}
);
note = H;
unicode = 0048;
},
{
glyphname = I;
layers = (
{
layerId = "CFFEBDE4-599A-46B2-9328-D96E42CD9C81";
paths = (
{
closed = 1;
nodes = (
"298 52 LINE",
"214 71 LINE",
"214 642 LINE",
"298 662 LINE",
"298 714 LINE",
"40 714 LINE",
"40 662 LINE",
"124 642 LINE",
"124 71 LINE",
"40 52 LINE",
"40 0 LINE",
"298 0 LINE",
"298 0 LINE"
);
}
);
width = 339;
}
);
note = I;
unicode = 0049;
},
{
glyphname = J;
layers = (
{
layerId = "CFFEBDE4-599A-46B2-9328-D96E42CD9C81";
paths = (
{
closed = 1;
nodes = (
"80 -190 OFFCURVE",
"182 -92 OFFCURVE",
"182 11 QCURVE SMOOTH",
"182 714 LINE",
"92 714 LINE",
"92 4 LINE SMOOTH",
"92 -41 OFFCURVE",
"64 -91 OFFCURVE",
"19 -111 OFFCURVE",
"-6 -111 QCURVE SMOOTH",
"-26 -111 OFFCURVE",
"-62 -105 OFFCURVE",
"-78 -101 QCURVE",
"-78 -177 LINE",
"-64 -183 OFFCURVE",
"-28 -190 OFFCURVE",
"-4 -190 QCURVE",
"-4 -190 LINE"
);
}
);
width = 273;
}
);
note = J;
unicode = 004A;
},
{
glyphname = K;
layers = (
{
layerId = "CFFEBDE4-599A-46B2-9328-D96E42CD9C81";
paths = (
{
closed = 1;
nodes = (
"325 403 LINE",
"608 714 LINE",
"503 714 LINE",
"310 498 LINE SMOOTH",
"279 464 OFFCURVE",
"217 396 OFFCURVE",
"187 362 QCURVE",
"187 714 LINE",
"97 714 LINE",
"97 0 LINE",
"187 0 LINE",
"187 277 LINE",
"260 341 LINE",
"513 0 LINE",
"619 0 LINE",
"619 0 LINE"
);
}
);
width = 600;
}
);
note = K;
rightKerningGroup = K;
unicode = 004B;
},
{
glyphname = L;
layers = (
{
layerId = "CFFEBDE4-599A-46B2-9328-D96E42CD9C81";
paths = (
{
closed = 1;
nodes = (
"499 0 LINE",
"499 80 LINE",
"187 80 LINE",
"187 714 LINE",
"97 714 LINE",
"97 0 LINE",
"97 0 LINE"
);
}
);
width = 524;
}
);
note = L;
rightKerningGroup = L;
unicode = 004C;
},
{
glyphname = M;
layers = (
{
layerId = "CFFEBDE4-599A-46B2-9328-D96E42CD9C81";
paths = (
{
closed = 1;
nodes = (
"486 0 LINE",
"724 625 LINE",
"728 625 LINE",
"726 593 OFFCURVE",
"721 491 OFFCURVE",
"721 439 QCURVE SMOOTH",
"721 0 LINE",
"810 0 LINE",
"810 714 LINE",
"678 714 LINE",
"454 129 LINE",
"450 129 LINE",
"230 714 LINE",
"97 714 LINE",
"97 0 LINE",
"180 0 LINE",
"180 433 LINE SMOOTH",
"180 490 OFFCURVE",
"176 595 OFFCURVE",
"173 626 QCURVE",
"177 626 LINE",
"412 0 LINE",
"412 0 LINE"
);
}
);
width = 907;
}
);
note = M;
unicode = 004D;
},
{
glyphname = N;
layers = (
{
layerId = "CFFEBDE4-599A-46B2-9328-D96E42CD9C81";
paths = (
{
closed = 1;
nodes = (
"663 714 LINE",
"579 714 LINE",
"579 311 LINE SMOOTH",
"579 279 OFFCURVE",
"582 203 OFFCURVE",
"585 139 OFFCURVE",
"586 123 QCURVE",
"582 123 LINE",
"201 714 LINE",
"97 714 LINE",
"97 0 LINE",
"180 0 LINE",
"180 399 LINE SMOOTH",
"180 454 OFFCURVE",
"174 558 OFFCURVE",
"172 593 QCURVE",
"176 593 LINE",
"558 0 LINE",
"663 0 LINE",
"663 0 LINE"
);
}
);
width = 760;
}
);
note = N;
unicode = 004E;
},
{
glyphname = O;
layers = (
{
layerId = "CFFEBDE4-599A-46B2-9328-D96E42CD9C81";
paths = (
{
closed = 1;
nodes = (
"720 469 OFFCURVE",
"645 634 OFFCURVE",
"499 725 OFFCURVE",
"392 725 QCURVE SMOOTH",
"280 725 OFFCURVE",
"133 633 OFFCURVE",
"61 469 OFFCURVE",
"61 359 QCURVE SMOOTH",
"61 248 OFFCURVE",
"133 82 OFFCURVE",
"280 -10 OFFCURVE",
"391 -10 QCURVE SMOOTH",
"499 -10 OFFCURVE",
"645 82 OFFCURVE",
"720 247 OFFCURVE",
"720 358 QCURVE",
"720 358 LINE"
);
},
{
closed = 1;
nodes = (
"156 493 OFFCURVE",
"271 646 OFFCURVE",
"392 646 QCURVE SMOOTH",
"513 646 OFFCURVE",
"625 493 OFFCURVE",
"625 358 QCURVE SMOOTH",
"625 223 OFFCURVE",
"513 68 OFFCURVE",
"391 68 QCURVE SMOOTH",
"270 68 OFFCURVE",
"156 223 OFFCURVE",
"156 358 QCURVE",
"156 358 LINE"
);
}
);
userData = {
assembly = "NPUSHB[ ]	/* 28 values pushed */\0120 3 3 1 97 0 1 1 112 77 0 2 2 0 97 0 0 0 113 0 78 36 37 38 35 4 13 26 \012CALL[ ]	/* CallFunction */";
};
width = 781;
}
);
leftKerningGroup = C;
note = O;
rightKerningGroup = D;
unicode = 004F;
},
{
glyphname = P;
layers = (
{
layerId = "CFFEBDE4-599A-46B2-9328-D96E42CD9C81";
paths = (
{
closed = 1;
nodes = (
"97 714 LINE",
"97 0 LINE",
"187 0 LINE",
"187 278 LINE",
"269 278 LINE SMOOTH",
"376 278 OFFCURVE",
"501 342 OFFCURVE",
"554 445 OFFCURVE",
"554 504 QCURVE SMOOTH",
"554 604 OFFCURVE",
"426 714 OFFCURVE",
"286 714 QCURVE",
"286 714 LINE"
);
},
{
closed = 1;
nodes = (
"373 637 OFFCURVE",
"461 569 OFFCURVE",
"461 500 QCURVE SMOOTH",
"461 421 OFFCURVE",
"361 355 OFFCURVE",
"259 355 QCURVE SMOOTH",
"187 355 LINE",
"187 637 LINE",
"278 637 LINE",
"278 637 LINE"
);
}
);
width = 605;
}
);
note = P;
rightKerningGroup = P;
unicode = 0050;
},
{
glyphname = Q;
layers = (
{
layerId = "CFFEBDE4-599A-46B2-9328-D96E42CD9C81";
paths = (
{
closed = 1;
nodes = (
"720 469 OFFCURVE",
"645 634 OFFCURVE",
"499 725 OFFCURVE",
"392 725 QCURVE SMOOTH",
"280 725 OFFCURVE",
"133 633 OFFCURVE",
"61 469 OFFCURVE",
"61 359 QCURVE SMOOTH",
"61 248 OFFCURVE",
"133 82 OFFCURVE",
"280 -10 OFFCURVE",
"391 -10 QCURVE SMOOTH",
"397 -10 OFFCURVE",
"410 -9 OFFCURVE",
"416 -9 QCURVE",
"554 -170 LINE",
"683 -170 LINE",
"512 8 LINE",
"615 43 OFFCURVE",
"720 227 OFFCURVE",
"720 358 QCURVE",
"720 358 LINE"
);
},
{
closed = 1;
nodes = (
"156 493 OFFCURVE",
"271 646 OFFCURVE",
"392 646 QCURVE SMOOTH",
"513 646 OFFCURVE",
"625 493 OFFCURVE",
"625 358 QCURVE SMOOTH",
"625 223 OFFCURVE",
"513 68 OFFCURVE",
"391 68 QCURVE SMOOTH",
"270 68 OFFCURVE",
"156 223 OFFCURVE",
"156 358 QCURVE",
"156 358 LINE"
);
}
);
width = 781;
}
);
leftKerningGroup = C;
note = Q;
rightKerningGroup = D;
unicode = 0051;
},
{
glyphname = R;
layers = (
{
layerId = "CFFEBDE4-599A-46B2-9328-D96E42CD9C81";
paths = (
{
closed = 1;
nodes = (
"97 714 LINE",
"97 0 LINE",
"187 0 LINE",
"187 295 LINE",
"329 295 LINE",
"502 0 LINE",
"607 0 LINE",
"411 320 LINE",
"447 333 OFFCURVE",
"512 378 OFFCURVE",
"554 454 OFFCURVE",
"554 511 QCURVE SMOOTH",
"554 613 OFFCURVE",
"427 714 OFFCURVE",
"294 714 QCURVE",
"294 714 LINE"
);
},
{
closed = 1;
nodes = (
"377 636 OFFCURVE",
"461 577 OFFCURVE",
"461 507 QCURVE SMOOTH",
"461 440 OFFCURVE",
"381 371 OFFCURVE",
"294 371 QCURVE SMOOTH",
"187 371 LINE",
"187 636 LINE",
"289 636 LINE",
"289 636 LINE"
);
}
);
width = 622;
}
);
note = R;
unicode = 0052;
},
{
glyphname = S;
layers = (
{
layerId = "CFFEBDE4-599A-46B2-9328-D96E42CD9C81";
paths = (
{
closed = 1;
nodes = (
"502 247 OFFCURVE",
"457 321 OFFCURVE",
"370 374 OFFCURVE",
"307 397 QCURVE SMOOTH",
"249 419 OFFCURVE",
"181 457 OFFCURVE",
"151 505 OFFCURVE",
"151 541 QCURVE SMOOTH",
"151 588 OFFCURVE",
"219 645 OFFCURVE",
"286 645 QCURVE SMOOTH",
"333 645 OFFCURVE",
"420 623 OFFCURVE",
"457 607 QCURVE",
"485 684 LINE",
"445 702 OFFCURVE",
"347 724 OFFCURVE",
"288 724 QCURVE SMOOTH",
"221 724 OFFCURVE",
"118 680 OFFCURVE",
"60 599 OFFCURVE",
"60 542 QCURVE SMOOTH",
"60 459 OFFCURVE",
"153 363 OFFCURVE",
"244 330 QCURVE SMOOTH",
"309 307 OFFCURVE",
"382 266 OFFCURVE",
"412 218 OFFCURVE",
"412 183 QCURVE SMOOTH",
"412 130 OFFCURVE",
"331 68 OFFCURVE",
"251 68 QCURVE SMOOTH",
"194 68 OFFCURVE",
"87 94 OFFCURVE",
"51 110 QCURVE",
"51 24 LINE",
"85 8 OFFCURVE",
"187 -10 OFFCURVE",
"247 -10 QCURVE SMOOTH",
"364 -10 OFFCURVE",
"502 96 OFFCURVE",
"502 191 QCURVE",
"502 191 LINE"
);
}
);
width = 549;
}
);
note = S;
unicode = 0053;
},
{
glyphname = T;
layers = (
{
layerId = "CFFEBDE4-599A-46B2-9328-D96E42CD9C81";
paths = (
{
closed = 1;
nodes = (
"323 635 LINE",
"545 635 LINE",
"545 714 LINE",
"10 714 LINE",
"10 635 LINE",
"233 635 LINE",
"233 0 LINE",
"323 0 LINE",
"323 0 LINE"
);
}
);
width = 556;
}
);
leftKerningGroup = T;
note = T;
rightKerningGroup = T;
unicode = 0054;
},
{
glyphname = U;
layers = (
{
layerId = "CFFEBDE4-599A-46B2-9328-D96E42CD9C81";
paths = (
{
closed = 1;
nodes = (
"551 714 LINE",
"551 252 LINE SMOOTH",
"551 171 OFFCURVE",
"464 68 OFFCURVE",
"367 68 QCURVE SMOOTH",
"273 68 OFFCURVE",
"180 164 OFFCURVE",
"180 251 QCURVE SMOOTH",
"180 714 LINE",
"90 714 LINE",
"90 254 LINE SMOOTH",
"90 135 OFFCURVE",
"229 -10 OFFCURVE",
"362 -10 QCURVE SMOOTH",
"457 -10 OFFCURVE",
"580 59 OFFCURVE",
"640 178 OFFCURVE",
"640 252 QCURVE SMOOTH",
"640 714 LINE",
"640 714 LINE"
);
}
);
width = 731;
}
);
leftKerningGroup = U;
note = U;
rightKerningGroup = U;
unicode = 0055;
},
{
glyphname = V;
layers = (
{
layerId = "CFFEBDE4-599A-46B2-9328-D96E42CD9C81";
paths = (
{
closed = 1;
nodes = (
"505 714 LINE",
"345 258 LINE SMOOTH",
"329 213 OFFCURVE",
"307 135 OFFCURVE",
"300 100 QCURVE",
"293 135 OFFCURVE",
"271 212 OFFCURVE",
"255 256 QCURVE SMOOTH",
"94 714 LINE",
"0 714 LINE",
"255 0 LINE",
"345 0 LINE",
"600 714 LINE",
"600 714 LINE"
);
}
);
width = 600;
}
);
leftKerningGroup = V;
note = V;
rightKerningGroup = V;
unicode = 0056;
},
{
glyphname = W;
layers = (
{
layerId = "CFFEBDE4-599A-46B2-9328-D96E42CD9C81";
paths = (
{
closed = 1;
nodes = (
"823 714 LINE",
"713 279 LINE SMOOTH",
"701 232 OFFCURVE",
"683 145 OFFCURVE",
"678 108 QCURVE",
"673 143 OFFCURVE",
"653 234 OFFCURVE",
"639 280 QCURVE SMOOTH",
"508 714 LINE",
"415 714 LINE",
"289 283 LINE SMOOTH",
"276 239 OFFCURVE",
"256 147 OFFCURVE",
"251 108 QCURVE",
"246 146 OFFCURVE",
"229 232 OFFCURVE",
"217 278 QCURVE SMOOTH",
"106 714 LINE",
"12 714 LINE",
"201 0 LINE",
"292 0 LINE",
"427 465 LINE SMOOTH",
"441 511 OFFCURVE",
"460 596 OFFCURVE",
"461 609 QCURVE",
"463 600 OFFCURVE",
"473 555 OFFCURVE",
"489 497 OFFCURVE",
"497 468 QCURVE SMOOTH",
"636 0 LINE",
"727 0 LINE",
"917 714 LINE",
"917 714 LINE"
);
}
);
width = 930;
}
);
leftKerningGroup = V;
note = W;
rightKerningGroup = V;
unicode = 0057;
},
{
glyphname = X;
layers = (
{
layerId = "CFFEBDE4-599A-46B2-9328-D96E42CD9C81";
paths = (
{
closed = 1;
nodes = (
"344 374 LINE",
"565 714 LINE",
"470 714 LINE",
"294 434 LINE",
"119 714 LINE",
"19 714 LINE",
"241 372 LINE",
"4 0 LINE",
"99 0 LINE",
"291 310 LINE",
"480 0 LINE",
"582 0 LINE",
"582 0 LINE"
);
}
);
width = 586;
}
);
note = X;
rightKerningGroup = K;
unicode = 0058;
},
{
glyphname = Y;
layers = (
{
layerId = "CFFEBDE4-599A-46B2-9328-D96E42CD9C81";
paths = (
{
closed = 1;
nodes = (
"98 714 LINE",
"0 714 LINE",
"238 273 LINE",
"238 0 LINE",
"328 0 LINE",
"328 277 LINE",
"566 714 LINE",
"469 714 LINE",
"283 363 LINE",
"283 363 LINE"
);
}
);
width = 566;
}
);
leftKerningGroup = Y;
note = Y;
rightKerningGroup = Y;
unicode = 0059;
},
{
glyphname = Z;
layers = (
{
layerId = "CFFEBDE4-599A-46B2-9328-D96E42CD9C81";
paths = (
{
closed = 1;
nodes = (
"533 80 LINE",
"147 80 LINE",
"523 646 LINE",
"523 714 LINE",
"50 714 LINE",
"50 634 LINE",
"414 634 LINE",
"38 68 LINE",
"38 0 LINE",
"533 0 LINE",
"533 0 LINE"
);
}
);
width = 572;
}
);
leftKerningGroup = Z;
note = Z;
rightKerningGroup = Z;
unicode = 005A;
},
{
glyphname = a;
layers = (
{
layerId = "CFFEBDE4-599A-46B2-9328-D96E42CD9C81";
paths = (
{
closed = 1;
nodes = (
"236 545 OFFCURVE",
"140 518 OFFCURVE",
"105 499 QCURVE",
"132 433 LINE",
"165 449 OFFCURVE",
"241 474 OFFCURVE",
"283 474 QCURVE SMOOTH",
"336 474 OFFCURVE",
"394 422 OFFCURVE",
"394 355 QCURVE SMOOTH",
"394 323 LINE",
"303 320 LINE SMOOTH",
"172 316 OFFCURVE",
"46 229 OFFCURVE",
"46 149 QCURVE SMOOTH",
"46 67 OFFCURVE",
"142 -10 OFFCURVE",
"215 -10 QCURVE SMOOTH",
"283 -10 OFFCURVE",
"360 32 OFFCURVE",
"395 76 QCURVE",
"399 76 LINE",
"416 0 LINE",
"480 0 LINE",
"480 365 LINE SMOOTH",
"480 459 OFFCURVE",
"386 545 OFFCURVE",
"288 545 QCURVE",
"288 545 LINE"
);
},
{
closed = 1;
nodes = (
"393 214 LINE SMOOTH",
"393 136 OFFCURVE",
"303 61 OFFCURVE",
"235 61 QCURVE SMOOTH",
"192 61 OFFCURVE",
"137 103 OFFCURVE",
"137 148 QCURVE SMOOTH",
"137 199 OFFCURVE",
"214 255 OFFCURVE",
"314 259 QCURVE SMOOTH",
"393 262 LINE",
"393 262 LINE"
);
}
);
width = 561;
}
);
leftKerningGroup = a;
note = a;
rightKerningGroup = a;
unicode = 0061;
},
{
glyphname = b;
layers = (
{
layerId = "CFFEBDE4-599A-46B2-9328-D96E42CD9C81";
paths = (
{
closed = 1;
nodes = (
"85 760 LINE",
"85 0 LINE",
"148 0 LINE",
"166 68 LINE",
"173 68 LINE",
"196 36 OFFCURVE",
"276 -10 OFFCURVE",
"339 -10 QCURVE SMOOTH",
"438 -10 OFFCURVE",
"560 130 OFFCURVE",
"560 268 QCURVE SMOOTH",
"560 406 OFFCURVE",
"439 545 OFFCURVE",
"339 545 QCURVE SMOOTH",
"276 545 OFFCURVE",
"196 499 OFFCURVE",
"173 465 QCURVE",
"168 465 LINE",
"170 482 OFFCURVE",
"173 541 OFFCURVE",
"173 575 QCURVE SMOOTH",
"173 760 LINE",
"173 760 LINE"
);
},
{
closed = 1;
nodes = (
"469 472 OFFCURVE",
"469 269 QCURVE SMOOTH",
"469 169 OFFCURVE",
"398 63 OFFCURVE",
"326 63 QCURVE SMOOTH",
"238 63 OFFCURVE",
"173 168 OFFCURVE",
"173 267 QCURVE SMOOTH",
"173 271 LINE SMOOTH",
"173 374 OFFCURVE",
"239 472 OFFCURVE",
"324 472 QCURVE",
"324 472 LINE"
);
}
);
width = 615;
}
);
leftKerningGroup = b;
note = b;
rightKerningGroup = b;
unicode = 0062;
},
{
glyphname = c;
layers = (
{
layerId = "CFFEBDE4-599A-46B2-9328-D96E42CD9C81";
paths = (
{
closed = 1;
nodes = (
"346 -10 OFFCURVE",
"411 5 OFFCURVE",
"438 19 QCURVE",
"438 97 LINE",
"410 84 OFFCURVE",
"343 66 OFFCURVE",
"299 66 QCURVE SMOOTH",
"223 66 OFFCURVE",
"146 169 OFFCURVE",
"146 266 QCURVE SMOOTH",
"146 469 OFFCURVE",
"304 469 QCURVE SMOOTH",
"332 469 OFFCURVE",
"396 453 OFFCURVE",
"420 444 QCURVE",
"447 517 LINE",
"423 529 OFFCURVE",
"347 546 OFFCURVE",
"306 546 QCURVE SMOOTH",
"234 546 OFFCURVE",
"121 488 OFFCURVE",
"55 364 OFFCURVE",
"55 265 QCURVE SMOOTH",
"55 170 OFFCURVE",
"118 48 OFFCURVE",
"229 -10 OFFCURVE",
"300 -10 QCURVE",
"300 -10 LINE"
);
}
);
width = 480;
}
);
leftKerningGroup = c;
note = c;
unicode = 0063;
},
{
glyphname = d;
layers = (
{
layerId = "CFFEBDE4-599A-46B2-9328-D96E42CD9C81";
paths = (
{
closed = 1;
nodes = (
"338 -10 OFFCURVE",
"418 38 OFFCURVE",
"442 72 QCURVE",
"446 72 LINE",
"459 0 LINE",
"530 0 LINE",
"530 760 LINE",
"442 760 LINE",
"442 546 LINE SMOOTH",
"442 531 OFFCURVE",
"447 480 OFFCURVE",
"448 467 QCURVE",
"442 467 LINE",
"417 500 OFFCURVE",
"338 546 OFFCURVE",
"276 546 QCURVE SMOOTH",
"176 546 OFFCURVE",
"55 405 OFFCURVE",
"55 267 QCURVE SMOOTH",
"55 129 OFFCURVE",
"175 -10 OFFCURVE",
"275 -10 QCURVE",
"275 -10 LINE"
);
},
{
closed = 1;
nodes = (
"217 63 OFFCURVE",
"146 169 OFFCURVE",
"146 265 QCURVE SMOOTH",
"146 360 OFFCURVE",
"217 473 OFFCURVE",
"288 473 QCURVE SMOOTH",
"377 473 OFFCURVE",
"443 366 OFFCURVE",
"443 266 QCURVE SMOOTH",
"443 250 LINE SMOOTH",
"443 156 OFFCURVE",
"374 63 OFFCURVE",
"289 63 QCURVE",
"289 63 LINE"
);
}
);
width = 615;
}
);
leftKerningGroup = c;
note = d;
unicode = 0064;
},
{
glyphname = e;
layers = (
{
layerId = "CFFEBDE4-599A-46B2-9328-D96E42CD9C81";
paths = (
{
closed = 1;
nodes = (
"221 546 OFFCURVE",
"114 478 OFFCURVE",
"55 352 OFFCURVE",
"55 264 QCURVE SMOOTH",
"55 175 OFFCURVE",
"120 52 OFFCURVE",
"237 -10 OFFCURVE",
"313 -10 QCURVE SMOOTH",
"368 -10 OFFCURVE",
"448 7 OFFCURVE",
"489 25 QCURVE",
"489 102 LINE",
"447 84 OFFCURVE",
"368 65 OFFCURVE",
"317 65 QCURVE SMOOTH",
"237 65 OFFCURVE",
"148 160 OFFCURVE",
"146 251 QCURVE",
"513 251 LINE",
"513 304 LINE SMOOTH",
"513 377 OFFCURVE",
"460 486 OFFCURVE",
"361 546 OFFCURVE",
"292 546 QCURVE",
"292 546 LINE"
);
},
{
closed = 1;
nodes = (
"358 474 OFFCURVE",
"420 389 OFFCURVE",
"421 321 QCURVE",
"148 321 LINE",
"155 393 OFFCURVE",
"228 474 OFFCURVE",
"291 474 QCURVE",
"291 474 LINE"
);
}
);
width = 564;
}
);
leftKerningGroup = c;
note = e;
rightKerningGroup = b;
unicode = 0065;
},
{
glyphname = f;
layers = (
{
layerId = "CFFEBDE4-599A-46B2-9328-D96E42CD9C81";
paths = (
{
closed = 1;
nodes = (
"332 536 LINE",
"197 536 LINE",
"197 571 LINE SMOOTH",
"197 634 OFFCURVE",
"240 693 OFFCURVE",
"284 693 QCURVE SMOOTH",
"306 693 OFFCURVE",
"348 683 OFFCURVE",
"364 678 QCURVE",
"387 747 LINE",
"368 754 OFFCURVE",
"315 765 OFFCURVE",
"283 765 QCURVE SMOOTH",
"201 765 OFFCURVE",
"109 674 OFFCURVE",
"109 570 QCURVE SMOOTH",
"109 539 LINE",
"15 509 LINE",
"15 468 LINE",
"109 468 LINE",
"109 0 LINE",
"197 0 LINE",
"197 468 LINE",
"332 468 LINE",
"332 468 LINE"
);
}
);
width = 344;
}
);
leftKerningGroup = f;
note = f;
rightKerningGroup = f;
unicode = 0066;
},
{
glyphname = g;
layers = (
{
layerId = "CFFEBDE4-599A-46B2-9328-D96E42CD9C81";
paths = (
{
closed = 1;
nodes = (
"172 546 OFFCURVE",
"55 395 OFFCURVE",
"55 267 QCURVE SMOOTH",
"55 136 OFFCURVE",
"172 -10 OFFCURVE",
"276 -10 QCURVE SMOOTH",
"388 -10 OFFCURVE",
"442 71 QCURVE",
"446 71 LINE",
"445 62 OFFCURVE",
"443 17 OFFCURVE",
"443 5 QCURVE SMOOTH",
"443 -16 LINE SMOOTH",
"443 -86 OFFCURVE",
"364 -167 OFFCURVE",
"295 -167 QCURVE SMOOTH",
"176 -167 OFFCURVE",
"97 -125 QCURVE",
"97 -206 LINE",
"172 -240 OFFCURVE",
"290 -240 QCURVE SMOOTH",
"413 -240 OFFCURVE",
"530 -124 OFFCURVE",
"530 -9 QCURVE SMOOTH",
"530 536 LINE",
"460 536 LINE",
"448 465 LINE",
"443 465 LINE",
"413 506 OFFCURVE",
"328 546 OFFCURVE",
"275 546 QCURVE",
"275 546 LINE"
);
},
{
closed = 1;
nodes = (
"368 472 OFFCURVE",
"444 377 OFFCURVE",
"444 267 QCURVE SMOOTH",
"444 246 LINE SMOOTH",
"444 149 OFFCURVE",
"370 62 OFFCURVE",
"289 62 QCURVE SMOOTH",
"219 62 OFFCURVE",
"146 167 OFFCURVE",
"146 266 QCURVE SMOOTH",
"146 365 OFFCURVE",
"220 472 OFFCURVE",
"287 472 QCURVE",
"287 472 LINE"
);
}
);
width = 615;
}
);
leftKerningGroup = g;
note = g;
unicode = 0067;
},
{
glyphname = h;
layers = (
{
layerId = "CFFEBDE4-599A-46B2-9328-D96E42CD9C81";
paths = (
{
closed = 1;
nodes = (
"85 760 LINE",
"85 0 LINE",
"173 0 LINE",
"173 277 LINE SMOOTH",
"173 371 OFFCURVE",
"240 472 OFFCURVE",
"330 472 QCURVE SMOOTH",
"450 472 OFFCURVE",
"450 343 QCURVE SMOOTH",
"450 0 LINE",
"537 0 LINE",
"537 349 LINE SMOOTH",
"537 452 OFFCURVE",
"439 545 OFFCURVE",
"341 545 QCURVE SMOOTH",
"289 545 OFFCURVE",
"200 503 OFFCURVE",
"174 462 QCURVE",
"168 462 LINE",
"173 497 OFFCURVE",
"173 537 QCURVE SMOOTH",
"173 760 LINE",
"173 760 LINE"
);
}
);
width = 618;
}
);
leftKerningGroup = b;
note = h;
rightKerningGroup = a;
unicode = 0068;
},
{
glyphname = i;
layers = (
{
layerId = "CFFEBDE4-599A-46B2-9328-D96E42CD9C81";
paths = (
{
closed = 1;
nodes = (
"108 737 OFFCURVE",
"78 710 OFFCURVE",
"78 681 QCURVE SMOOTH",
"78 653 OFFCURVE",
"108 625 OFFCURVE",
"130 625 QCURVE SMOOTH",
"150 625 OFFCURVE",
"181 653 OFFCURVE",
"181 681 QCURVE SMOOTH",
"181 710 OFFCURVE",
"150 737 OFFCURVE",
"130 737 QCURVE",
"130 737 LINE"
);
},
{
closed = 1;
nodes = (
"85 536 LINE",
"85 0 LINE",
"173 0 LINE",
"173 536 LINE",
"173 536 LINE"
);
}
);
width = 258;
}
);
note = i;
unicode = 0069;
},
{
glyphname = j;
layers = (
{
layerId = "CFFEBDE4-599A-46B2-9328-D96E42CD9C81";
paths = (
{
closed = 1;
nodes = (
"78 653 OFFCURVE",
"108 625 OFFCURVE",
"130 625 QCURVE SMOOTH",
"150 625 OFFCURVE",
"181 653 OFFCURVE",
"181 681 QCURVE SMOOTH",
"181 710 OFFCURVE",
"150 737 OFFCURVE",
"130 737 QCURVE SMOOTH",
"108 737 OFFCURVE",
"78 710 OFFCURVE",
"78 681 QCURVE",
"78 681 LINE"
);
},
{
closed = 1;
nodes = (
"101 -240 OFFCURVE",
"173 -155 OFFCURVE",
"173 -80 QCURVE SMOOTH",
"173 536 LINE",
"85 536 LINE",
"85 -83 LINE SMOOTH",
"85 -132 OFFCURVE",
"43 -167 OFFCURVE",
"11 -167 QCURVE SMOOTH",
"-8 -167 OFFCURVE",
"-40 -161 OFFCURVE",
"-55 -157 QCURVE",
"-55 -228 LINE",
"-41 -233 OFFCURVE",
"-3 -240 OFFCURVE",
"22 -240 QCURVE",
"22 -240 LINE"
);
}
);
width = 258;
}
);
note = j;
unicode = 006A;
},
{
glyphname = k;
layers = (
{
layerId = "CFFEBDE4-599A-46B2-9328-D96E42CD9C81";
paths = (
{
closed = 1;
nodes = (
"85 760 LINE",
"85 0 LINE",
"172 0 LINE",
"172 197 LINE",
"233 250 LINE",
"419 0 LINE",
"525 0 LINE",
"293 307 LINE",
"510 536 LINE",
"407 536 LINE",
"236 355 LINE SMOOTH",
"227 345 OFFCURVE",
"202 314 OFFCURVE",
"178 284 OFFCURVE",
"172 276 QCURVE",
"168 276 LINE",
"169 295 OFFCURVE",
"172 347 OFFCURVE",
"172 363 QCURVE SMOOTH",
"172 760 LINE",
"172 760 LINE"
);
}
);
width = 534;
}
);
leftKerningGroup = b;
note = k;
unicode = 006B;
},
{
glyphname = l;
layers = (
{
layerId = "CFFEBDE4-599A-46B2-9328-D96E42CD9C81";
paths = (
{
closed = 1;
nodes = (
"173 760 LINE",
"85 760 LINE",
"85 0 LINE",
"173 0 LINE",
"173 0 LINE"
);
}
);
width = 258;
}
);
leftKerningGroup = b;
note = l;
unicode = 006C;
},
{
glyphname = m;
layers = (
{
layerId = "CFFEBDE4-599A-46B2-9328-D96E42CD9C81";
paths = (
{
closed = 1;
nodes = (
"621 546 OFFCURVE",
"528 502 OFFCURVE",
"501 456 QCURVE",
"496 456 LINE",
"458 546 OFFCURVE",
"332 546 QCURVE SMOOTH",
"284 546 OFFCURVE",
"199 505 OFFCURVE",
"174 463 QCURVE",
"169 463 LINE",
"156 536 LINE",
"85 536 LINE",
"85 0 LINE",
"173 0 LINE",
"173 278 LINE SMOOTH",
"173 372 OFFCURVE",
"235 472 OFFCURVE",
"316 472 QCURVE SMOOTH",
"426 472 OFFCURVE",
"426 345 QCURVE SMOOTH",
"426 0 LINE",
"513 0 LINE",
"513 296 LINE SMOOTH",
"513 382 OFFCURVE",
"580 472 OFFCURVE",
"658 472 QCURVE SMOOTH",
"767 472 OFFCURVE",
"767 345 QCURVE SMOOTH",
"767 0 LINE",
"854 0 LINE",
"854 349 LINE SMOOTH",
"854 453 OFFCURVE",
"764 546 OFFCURVE",
"673 546 QCURVE",
"673 546 LINE"
);
}
);
width = 935;
}
);
leftKerningGroup = m;
note = m;
rightKerningGroup = a;
unicode = 006D;
},
{
glyphname = n;
layers = (
{
layerId = "CFFEBDE4-599A-46B2-9328-D96E42CD9C81";
paths = (
{
closed = 1;
nodes = (
"292 546 OFFCURVE",
"200 505 OFFCURVE",
"174 463 QCURVE",
"169 463 LINE",
"156 536 LINE",
"85 536 LINE",
"85 0 LINE",
"173 0 LINE",
"173 278 LINE SMOOTH",
"173 372 OFFCURVE",
"241 472 OFFCURVE",
"330 472 QCURVE SMOOTH",
"450 472 OFFCURVE",
"450 343 QCURVE SMOOTH",
"450 0 LINE",
"537 0 LINE",
"537 349 LINE SMOOTH",
"537 453 OFFCURVE",
"439 546 OFFCURVE",
"343 546 QCURVE",
"343 546 LINE"
);
}
);
width = 618;
}
);
leftKerningGroup = m;
note = n;
rightKerningGroup = a;
unicode = 006E;
},
{
glyphname = o;
layers = (
{
layerId = "CFFEBDE4-599A-46B2-9328-D96E42CD9C81";
paths = (
{
closed = 1;
nodes = (
"551 358 OFFCURVE",
"488 481 OFFCURVE",
"377 546 OFFCURVE",
"304 546 QCURVE SMOOTH",
"189 546 OFFCURVE",
"55 402 OFFCURVE",
"55 269 QCURVE SMOOTH",
"55 180 OFFCURVE",
"119 55 OFFCURVE",
"230 -10 OFFCURVE",
"301 -10 QCURVE SMOOTH",
"416 -10 OFFCURVE",
"551 136 OFFCURVE",
"551 269 QCURVE",
"551 269 LINE"
);
},
{
closed = 1;
nodes = (
"146 364 OFFCURVE",
"220 472 OFFCURVE",
"302 472 QCURVE SMOOTH",
"384 472 OFFCURVE",
"460 364 OFFCURVE",
"460 269 QCURVE SMOOTH",
"460 174 OFFCURVE",
"384 63 OFFCURVE",
"303 63 QCURVE SMOOTH",
"221 63 OFFCURVE",
"146 174 OFFCURVE",
"146 269 QCURVE",
"146 269 LINE"
);
}
);
width = 605;
}
);
leftKerningGroup = c;
note = o;
rightKerningGroup = b;
unicode = 006F;
},
{
glyphname = p;
layers = (
{
layerId = "CFFEBDE4-599A-46B2-9328-D96E42CD9C81";
paths = (
{
closed = 1;
nodes = (
"275 546 OFFCURVE",
"197 498 OFFCURVE",
"173 463 QCURVE",
"169 463 LINE",
"157 536 LINE",
"85 536 LINE",
"85 -240 LINE",
"173 -240 LINE",
"173 -20 LINE SMOOTH",
"173 -1 OFFCURVE",
"169 51 OFFCURVE",
"167 68 QCURVE",
"173 68 LINE",
"196 37 OFFCURVE",
"277 -10 OFFCURVE",
"339 -10 QCURVE SMOOTH",
"439 -10 OFFCURVE",
"560 132 OFFCURVE",
"560 269 QCURVE SMOOTH",
"560 408 OFFCURVE",
"439 546 OFFCURVE",
"340 546 QCURVE",
"340 546 LINE"
);
},
{
closed = 1;
nodes = (
"398 472 OFFCURVE",
"469 362 OFFCURVE",
"469 270 QCURVE SMOOTH",
"469 210 OFFCURVE",
"438 117 OFFCURVE",
"375 63 OFFCURVE",
"326 63 QCURVE SMOOTH",
"238 63 OFFCURVE",
"173 170 OFFCURVE",
"173 269 QCURVE SMOOTH",
"173 286 LINE SMOOTH",
"175 380 OFFCURVE",
"242 472 OFFCURVE",
"324 472 QCURVE",
"324 472 LINE"
);
}
);
width = 615;
}
);
leftKerningGroup = m;
note = p;
rightKerningGroup = b;
unicode = 0070;
},
{
glyphname = q;
layers = (
{
layerId = "CFFEBDE4-599A-46B2-9328-D96E42CD9C81";
paths = (
{
closed = 1;
nodes = (
"530 -240 LINE",
"530 536 LINE",
"460 536 LINE",
"447 463 LINE",
"443 463 LINE",
"419 498 OFFCURVE",
"339 546 OFFCURVE",
"276 546 QCURVE SMOOTH",
"178 546 OFFCURVE",
"55 405 OFFCURVE",
"55 267 QCURVE SMOOTH",
"55 129 OFFCURVE",
"176 -10 OFFCURVE",
"273 -10 QCURVE SMOOTH",
"337 -10 OFFCURVE",
"418 38 OFFCURVE",
"441 72 QCURVE",
"447 72 LINE",
"444 55 OFFCURVE",
"442 7 OFFCURVE",
"442 -11 QCURVE SMOOTH",
"442 -240 LINE",
"442 -240 LINE"
);
},
{
closed = 1;
nodes = (
"217 63 OFFCURVE",
"146 170 OFFCURVE",
"146 265 QCURVE SMOOTH",
"146 360 OFFCURVE",
"216 473 OFFCURVE",
"288 473 QCURVE SMOOTH",
"375 473 OFFCURVE",
"443 368 OFFCURVE",
"443 266 QCURVE SMOOTH",
"443 248 LINE SMOOTH",
"442 154 OFFCURVE",
"373 63 OFFCURVE",
"290 63 QCURVE",
"290 63 LINE"
);
}
);
width = 615;
}
);
leftKerningGroup = c;
note = q;
unicode = 0071;
},
{
glyphname = r;
layers = (
{
layerId = "CFFEBDE4-599A-46B2-9328-D96E42CD9C81";
paths = (
{
closed = 1;
nodes = (
"279 546 OFFCURVE",
"197 482 OFFCURVE",
"171 438 QCURVE",
"167 438 LINE",
"157 536 LINE",
"85 536 LINE",
"85 0 LINE",
"173 0 LINE",
"173 286 LINE SMOOTH",
"173 340 OFFCURVE",
"216 421 OFFCURVE",
"288 466 OFFCURVE",
"329 466 QCURVE SMOOTH",
"343 466 OFFCURVE",
"374 462 OFFCURVE",
"387 459 QCURVE",
"398 540 LINE",
"385 543 OFFCURVE",
"350 546 OFFCURVE",
"335 546 QCURVE",
"335 546 LINE"
);
}
);
width = 413;
}
);
leftKerningGroup = m;
note = r;
rightKerningGroup = r;
unicode = 0072;
},
{
glyphname = s;
layers = (
{
layerId = "CFFEBDE4-599A-46B2-9328-D96E42CD9C81";
paths = (
{
closed = 1;
nodes = (
"434 191 OFFCURVE",
"396 248 OFFCURVE",
"324 288 OFFCURVE",
"273 307 QCURVE SMOOTH",
"222 327 OFFCURVE",
"161 356 OFFCURVE",
"135 387 OFFCURVE",
"135 409 QCURVE SMOOTH",
"135 439 OFFCURVE",
"192 474 OFFCURVE",
"246 474 QCURVE SMOOTH",
"285 474 OFFCURVE",
"359 454 OFFCURVE",
"393 440 QCURVE",
"423 510 LINE",
"386 527 OFFCURVE",
"301 546 OFFCURVE",
"252 546 QCURVE SMOOTH",
"162 546 OFFCURVE",
"51 472 OFFCURVE",
"51 404 QCURVE SMOOTH",
"51 360 OFFCURVE",
"91 304 OFFCURVE",
"165 264 OFFCURVE",
"217 244 QCURVE SMOOTH",
"270 224 OFFCURVE",
"327 192 OFFCURVE",
"349 160 OFFCURVE",
"349 140 QCURVE SMOOTH",
"349 104 OFFCURVE",
"289 61 OFFCURVE",
"222 61 QCURVE SMOOTH",
"175 61 OFFCURVE",
"84 88 OFFCURVE",
"52 104 QCURVE",
"52 24 LINE",
"83 8 OFFCURVE",
"164 -10 OFFCURVE",
"220 -10 QCURVE SMOOTH",
"318 -10 OFFCURVE",
"434 70 OFFCURVE",
"434 148 QCURVE",
"434 148 LINE"
);
}
);
width = 479;
}
);
leftKerningGroup = s;
note = s;
unicode = 0073;
},
{
glyphname = t;
layers = (
{
layerId = "CFFEBDE4-599A-46B2-9328-D96E42CD9C81";
paths = (
{
closed = 1;
nodes = (
"227 62 OFFCURVE",
"180 109 OFFCURVE",
"180 158 QCURVE SMOOTH",
"180 468 LINE",
"335 468 LINE",
"335 536 LINE",
"180 536 LINE",
"180 659 LINE",
"128 659 LINE",
"93 545 LINE",
"16 510 LINE",
"16 468 LINE",
"92 468 LINE",
"92 156 LINE SMOOTH",
"92 91 OFFCURVE",
"136 19 OFFCURVE",
"207 -10 OFFCURVE",
"249 -10 QCURVE SMOOTH",
"273 -10 OFFCURVE",
"325 -1 OFFCURVE",
"339 6 QCURVE",
"339 73 LINE",
"326 69 OFFCURVE",
"284 62 OFFCURVE",
"264 62 QCURVE",
"264 62 LINE"
);
}
);
width = 361;
}
);
leftKerningGroup = t;
note = t;
rightKerningGroup = t;
unicode = 0074;
},
{
glyphname = u;
layers = (
{
layerId = "CFFEBDE4-599A-46B2-9328-D96E42CD9C81";
paths = (
{
closed = 1;
nodes = (
"445 536 LINE",
"445 257 LINE SMOOTH",
"445 163 OFFCURVE",
"376 63 OFFCURVE",
"287 63 QCURVE SMOOTH",
"168 63 OFFCURVE",
"168 191 QCURVE SMOOTH",
"168 536 LINE",
"79 536 LINE",
"79 185 LINE SMOOTH",
"79 83 OFFCURVE",
"177 -10 OFFCURVE",
"274 -10 QCURVE SMOOTH",
"326 -10 OFFCURVE",
"418 29 OFFCURVE",
"444 71 QCURVE",
"448 71 LINE",
"461 0 LINE",
"533 0 LINE",
"533 536 LINE",
"533 536 LINE"
);
}
);
width = 618;
}
);
leftKerningGroup = m;
note = u;
unicode = 0075;
},
{
glyphname = v;
layers = (
{
layerId = "CFFEBDE4-599A-46B2-9328-D96E42CD9C81";
paths = (
{
closed = 1;
nodes = (
"304 0 LINE",
"508 536 LINE",
"414 536 LINE",
"300 220 LINE SMOOTH",
"293 199 OFFCURVE",
"274 145 OFFCURVE",
"259 95 OFFCURVE",
"255 78 QCURVE",
"251 78 LINE",
"248 95 OFFCURVE",
"234 144 OFFCURVE",
"216 198 OFFCURVE",
"208 220 QCURVE SMOOTH",
"94 536 LINE",
"0 536 LINE",
"203 0 LINE",
"203 0 LINE"
);
}
);
width = 508;
}
);
leftKerningGroup = v;
note = v;
rightKerningGroup = v;
unicode = 0076;
},
{
glyphname = w;
layers = (
{
layerId = "CFFEBDE4-599A-46B2-9328-D96E42CD9C81";
paths = (
{
closed = 1;
nodes = (
"626 1 LINE",
"775 537 LINE",
"685 537 LINE",
"610 251 LINE SMOOTH",
"598 205 OFFCURVE",
"577 117 OFFCURVE",
"574 92 QCURVE",
"570 92 LINE",
"566 121 OFFCURVE",
"545 201 OFFCURVE",
"534 235 QCURVE SMOOTH",
"442 537 LINE",
"346 537 LINE",
"251 235 LINE SMOOTH",
"244 213 OFFCURVE",
"230 158 OFFCURVE",
"219 108 OFFCURVE",
"215 91 QCURVE",
"211 91 LINE",
"207 120 OFFCURVE",
"187 208 OFFCURVE",
"176 251 QCURVE SMOOTH",
"102 537 LINE",
"11 537 LINE",
"158 1 LINE",
"258 1 LINE",
"354 302 LINE SMOOTH",
"368 344 OFFCURVE",
"386 423 OFFCURVE",
"390 445 QCURVE",
"394 445 LINE",
"399 423 OFFCURVE",
"418 344 OFFCURVE",
"431 303 QCURVE SMOOTH",
"523 1 LINE",
"523 1 LINE"
);
}
);
width = 786;
}
);
leftKerningGroup = v;
note = w;
rightKerningGroup = v;
unicode = 0077;
},
{
glyphname = x;
layers = (
{
layerId = "CFFEBDE4-599A-46B2-9328-D96E42CD9C81";
paths = (
{
closed = 1;
nodes = (
"18 0 LINE",
"117 0 LINE",
"265 214 LINE",
"411 0 LINE",
"511 0 LINE",
"316 274 LINE",
"501 536 LINE",
"402 536 LINE",
"265 334 LINE",
"127 536 LINE",
"27 536 LINE",
"212 274 LINE",
"212 274 LINE"
);
}
);
width = 529;
}
);
leftKerningGroup = v;
note = x;
rightKerningGroup = x;
unicode = 0078;
},
{
glyphname = y;
layers = (
{
layerId = "CFFEBDE4-599A-46B2-9328-D96E42CD9C81";
paths = (
{
closed = 1;
nodes = (
"217 -2 LINE",
"189 -73 LINE SMOOTH",
"173 -116 OFFCURVE",
"116 -168 OFFCURVE",
"70 -168 QCURVE SMOOTH",
"53 -168 OFFCURVE",
"22 -164 OFFCURVE",
"11 -162 QCURVE",
"11 -232 LINE",
"24 -235 OFFCURVE",
"60 -240 OFFCURVE",
"84 -240 QCURVE SMOOTH",
"162 -240 OFFCURVE",
"251 -150 OFFCURVE",
"279 -74 QCURVE SMOOTH",
"510 536 LINE",
"415 536 LINE",
"306 232 LINE SMOOTH",
"292 191 OFFCURVE",
"266 110 OFFCURVE",
"260 85 QCURVE",
"256 85 LINE",
"250 118 OFFCURVE",
"226 191 OFFCURVE",
"211 231 QCURVE SMOOTH",
"95 536 LINE",
"1 536 LINE",
"1 536 LINE"
);
}
);
width = 600;
}
);
leftKerningGroup = v;
note = y;
rightKerningGroup = v;
unicode = 0079;
},
{
glyphname = z;
layers = (
{
layerId = "CFFEBDE4-599A-46B2-9328-D96E42CD9C81";
paths = (
{
closed = 1;
nodes = (
"431 68 LINE",
"140 68 LINE",
"424 470 LINE",
"424 536 LINE",
"56 536 LINE",
"56 468 LINE",
"327 468 LINE",
"39 58 LINE",
"39 0 LINE",
"431 0 LINE",
"431 0 LINE"
);
}
);
width = 470;
}
);
leftKerningGroup = z;
note = z;
unicode = 007A;
},
{
glyphname = zero;
layers = (
{
layerId = "CFFEBDE4-599A-46B2-9328-D96E42CD9C81";
paths = (
{
closed = 1;
nodes = (
"523 532 OFFCURVE",
"405 725 OFFCURVE",
"285 725 QCURVE SMOOTH",
"200 725 OFFCURVE",
"96 638 OFFCURVE",
"49 474 OFFCURVE",
"49 358 QCURVE SMOOTH",
"49 185 OFFCURVE",
"164 -10 OFFCURVE",
"285 -10 QCURVE SMOOTH",
"371 -10 OFFCURVE",
"475 78 OFFCURVE",
"523 243 OFFCURVE",
"523 358 QCURVE",
"523 358 LINE"
);
},
{
closed = 1;
nodes = (
"137 504 OFFCURVE",
"204 650 OFFCURVE",
"285 650 QCURVE SMOOTH",
"365 650 OFFCURVE",
"434 504 OFFCURVE",
"434 358 QCURVE SMOOTH",
"434 210 OFFCURVE",
"365 65 OFFCURVE",
"285 65 QCURVE SMOOTH",
"204 65 OFFCURVE",
"137 211 OFFCURVE",
"137 358 QCURVE",
"137 358 LINE"
);
}
);
width = 572;
}
);
note = zero;
unicode = 0030;
},
{
glyphname = one;
layers = (
{
layerId = "CFFEBDE4-599A-46B2-9328-D96E42CD9C81";
paths = (
{
closed = 1;
nodes = (
"355 714 LINE",
"282 714 LINE",
"89 564 LINE",
"135 505 LINE",
"211 567 LINE SMOOTH",
"231 584 OFFCURVE",
"257 606 OFFCURVE",
"273 622 QCURVE",
"271 594 OFFCURVE",
"269 542 OFFCURVE",
"269 499 QCURVE SMOOTH",
"269 0 LINE",
"355 0 LINE",
"355 0 LINE"
);
}
);
width = 572;
}
);
note = one;
unicode = 0031;
},
{
glyphname = two;
layers = (
{
layerId = "CFFEBDE4-599A-46B2-9328-D96E42CD9C81";
paths = (
{
closed = 1;
nodes = (
"520 80 LINE",
"159 80 LINE",
"159 84 LINE",
"308 231 LINE SMOOTH",
"363 285 OFFCURVE",
"445 380 OFFCURVE",
"491 478 OFFCURVE",
"491 534 QCURVE SMOOTH",
"491 623 OFFCURVE",
"375 724 OFFCURVE",
"275 724 QCURVE SMOOTH",
"207 724 OFFCURVE",
"98 675 OFFCURVE",
"56 640 QCURVE",
"103 581 LINE",
"144 613 OFFCURVE",
"223 649 OFFCURVE",
"275 649 QCURVE SMOOTH",
"331 649 OFFCURVE",
"401 588 OFFCURVE",
"401 529 QCURVE SMOOTH",
"401 481 OFFCURVE",
"363 400 OFFCURVE",
"289 316 OFFCURVE",
"235 262 QCURVE SMOOTH",
"48 73 LINE",
"48 0 LINE",
"520 0 LINE",
"520 0 LINE"
);
}
);
width = 572;
}
);
note = two;
unicode = 0032;
},
{
glyphname = three;
layers = (
{
layerId = "CFFEBDE4-599A-46B2-9328-D96E42CD9C81";
paths = (
{
closed = 1;
nodes = (
"493 624 OFFCURVE",
"384 724 OFFCURVE",
"272 724 QCURVE SMOOTH",
"200 724 OFFCURVE",
"87 680 OFFCURVE",
"49 650 QCURVE",
"93 590 LINE",
"133 616 OFFCURVE",
"215 650 OFFCURVE",
"273 650 QCURVE SMOOTH",
"333 650 OFFCURVE",
"403 593 OFFCURVE",
"403 541 QCURVE SMOOTH",
"403 480 OFFCURVE",
"312 406 OFFCURVE",
"224 406 QCURVE SMOOTH",
"154 406 LINE",
"154 331 LINE",
"223 331 LINE SMOOTH",
"318 331 OFFCURVE",
"423 272 OFFCURVE",
"423 205 QCURVE SMOOTH",
"423 139 OFFCURVE",
"338 64 OFFCURVE",
"242 64 QCURVE SMOOTH",
"194 64 OFFCURVE",
"90 89 OFFCURVE",
"45 111 QCURVE",
"45 29 LINE",
"89 7 OFFCURVE",
"185 -10 OFFCURVE",
"241 -10 QCURVE SMOOTH",
"336 -10 OFFCURVE",
"457 44 OFFCURVE",
"515 141 OFFCURVE",
"515 203 QCURVE SMOOTH",
"515 274 OFFCURVE",
"431 362 OFFCURVE",
"345 372 QCURVE",
"345 376 LINE",
"413 390 OFFCURVE",
"493 475 OFFCURVE",
"493 547 QCURVE",
"493 547 LINE"
);
}
);
width = 572;
}
);
note = three;
unicode = 0033;
},
{
glyphname = four;
layers = (
{
layerId = "CFFEBDE4-599A-46B2-9328-D96E42CD9C81";
paths = (
{
closed = 1;
nodes = (
"552 241 LINE",
"448 241 LINE",
"448 718 LINE",
"357 718 LINE",
"21 237 LINE",
"21 162 LINE",
"363 162 LINE",
"363 0 LINE",
"448 0 LINE",
"448 162 LINE",
"552 162 LINE",
"552 162 LINE"
);
},
{
closed = 1;
nodes = (
"107 241 LINE",
"321 546 LINE SMOOTH",
"332 561 OFFCURVE",
"356 605 OFFCURVE",
"364 624 QCURVE",
"368 624 LINE",
"367 591 OFFCURVE",
"363 518 OFFCURVE",
"363 466 QCURVE SMOOTH",
"363 241 LINE",
"363 241 LINE"
);
}
);
width = 572;
}
);
note = four;
unicode = 0034;
},
{
glyphname = five;
layers = (
{
layerId = "CFFEBDE4-599A-46B2-9328-D96E42CD9C81";
paths = (
{
closed = 1;
nodes = (
"240 438 OFFCURVE",
"182 430 OFFCURVE",
"165 427 QCURVE",
"182 634 LINE",
"465 634 LINE",
"465 714 LINE",
"107 714 LINE",
"80 377 LINE",
"124 349 LINE",
"146 354 OFFCURVE",
"218 364 OFFCURVE",
"246 364 QCURVE SMOOTH",
"339 364 OFFCURVE",
"425 289 OFFCURVE",
"425 219 QCURVE SMOOTH",
"425 140 OFFCURVE",
"328 65 OFFCURVE",
"249 65 QCURVE SMOOTH",
"202 65 OFFCURVE",
"99 90 OFFCURVE",
"63 112 QCURVE",
"63 29 LINE",
"96 10 OFFCURVE",
"193 -10 OFFCURVE",
"248 -10 QCURVE SMOOTH",
"374 -10 OFFCURVE",
"515 117 OFFCURVE",
"515 228 QCURVE SMOOTH",
"515 328 OFFCURVE",
"385 438 OFFCURVE",
"275 438 QCURVE",
"275 438 LINE"
);
}
);
width = 572;
}
);
note = five;
unicode = 0035;
},
{
glyphname = six;
layers = (
{
layerId = "CFFEBDE4-599A-46B2-9328-D96E42CD9C81";
paths = (
{
closed = 1;
nodes = (
"55 198 OFFCURVE",
"120 58 OFFCURVE",
"230 -10 OFFCURVE",
"298 -10 QCURVE SMOOTH",
"402 -10 OFFCURVE",
"525 118 OFFCURVE",
"525 230 QCURVE SMOOTH",
"525 334 OFFCURVE",
"411 447 OFFCURVE",
"318 447 QCURVE SMOOTH",
"254 447 OFFCURVE",
"172 398 OFFCURVE",
"149 363 QCURVE",
"143 363 LINE",
"146 422 OFFCURVE",
"170 526 OFFCURVE",
"223 606 OFFCURVE",
"315 652 OFFCURVE",
"384 652 QCURVE SMOOTH",
"407 652 OFFCURVE",
"452 646 OFFCURVE",
"470 640 QCURVE",
"470 715 LINE",
"454 720 OFFCURVE",
"403 724 OFFCURVE",
"382 724 QCURVE SMOOTH",
"281 724 OFFCURVE",
"153 652 OFFCURVE",
"82 531 OFFCURVE",
"55 382 OFFCURVE",
"55 305 QCURVE",
"55 305 LINE"
);
},
{
closed = 1;
nodes = (
"246 64 OFFCURVE",
"178 119 OFFCURVE",
"144 204 OFFCURVE",
"144 247 QCURVE SMOOTH",
"144 279 OFFCURVE",
"183 339 OFFCURVE",
"253 378 OFFCURVE",
"300 378 QCURVE SMOOTH",
"369 378 OFFCURVE",
"438 298 OFFCURVE",
"438 230 QCURVE SMOOTH",
"438 145 OFFCURVE",
"360 64 OFFCURVE",
"297 64 QCURVE",
"297 64 LINE"
);
}
);
width = 572;
}
);
note = six;
unicode = 0036;
},
{
glyphname = seven;
layers = (
{
layerId = "CFFEBDE4-599A-46B2-9328-D96E42CD9C81";
paths = (
{
closed = 1;
nodes = (
"233 0 LINE",
"523 646 LINE",
"523 714 LINE",
"44 714 LINE",
"44 634 LINE",
"429 634 LINE",
"136 0 LINE",
"136 0 LINE"
);
}
);
width = 572;
}
);
note = seven;
unicode = 0037;
},
{
glyphname = eight;
layers = (
{
layerId = "CFFEBDE4-599A-46B2-9328-D96E42CD9C81";
paths = (
{
closed = 1;
nodes = (
"224 724 OFFCURVE",
"128 684 OFFCURVE",
"72 609 OFFCURVE",
"72 554 QCURVE SMOOTH",
"72 488 OFFCURVE",
"145 403 OFFCURVE",
"197 373 QCURVE",
"158 355 OFFCURVE",
"90 303 OFFCURVE",
"49 231 OFFCURVE",
"49 182 QCURVE SMOOTH",
"49 91 OFFCURVE",
"173 -10 OFFCURVE",
"288 -10 QCURVE SMOOTH",
"395 -10 OFFCURVE",
"522 95 OFFCURVE",
"522 185 QCURVE SMOOTH",
"522 234 OFFCURVE",
"479 304 OFFCURVE",
"407 357 OFFCURVE",
"363 378 QCURVE",
"400 397 OFFCURVE",
"462 446 OFFCURVE",
"499 510 OFFCURVE",
"499 553 QCURVE SMOOTH",
"499 636 OFFCURVE",
"379 724 OFFCURVE",
"285 724 QCURVE",
"285 724 LINE"
);
},
{
closed = 1;
nodes = (
"342 653 OFFCURVE",
"412 600 OFFCURVE",
"412 550 QCURVE SMOOTH",
"412 496 OFFCURVE",
"341 434 OFFCURVE",
"289 412 QCURVE",
"253 428 OFFCURVE",
"193 463 OFFCURVE",
"158 513 OFFCURVE",
"158 550 QCURVE SMOOTH",
"158 600 OFFCURVE",
"229 653 OFFCURVE",
"284 653 QCURVE",
"284 653 LINE"
);
},
{
closed = 1;
nodes = (
"135 236 OFFCURVE",
"204 309 OFFCURVE",
"270 337 QCURVE",
"286 331 LINE SMOOTH",
"354 305 OFFCURVE",
"436 236 OFFCURVE",
"436 184 QCURVE SMOOTH",
"436 129 OFFCURVE",
"359 60 OFFCURVE",
"286 60 QCURVE SMOOTH",
"209 60 OFFCURVE",
"135 129 OFFCURVE",
"135 181 QCURVE",
"135 181 LINE"
);
}
);
width = 572;
}
);
note = eight;
unicode = 0038;
},
{
glyphname = nine;
layers = (
{
layerId = "CFFEBDE4-599A-46B2-9328-D96E42CD9C81";
paths = (
{
closed = 1;
nodes = (
"520 516 OFFCURVE",
"456 655 OFFCURVE",
"346 724 OFFCURVE",
"278 724 QCURVE SMOOTH",
"209 724 OFFCURVE",
"107 666 OFFCURVE",
"50 558 OFFCURVE",
"50 483 QCURVE SMOOTH",
"50 380 OFFCURVE",
"163 267 OFFCURVE",
"255 267 QCURVE SMOOTH",
"320 267 OFFCURVE",
"403 316 OFFCURVE",
"425 350 QCURVE",
"431 350 LINE",
"429 292 OFFCURVE",
"405 187 OFFCURVE",
"351 108 OFFCURVE",
"260 62 OFFCURVE",
"190 62 QCURVE SMOOTH",
"141 62 OFFCURVE",
"102 75 QCURVE",
"102 0 LINE",
"119 -5 OFFCURVE",
"172 -10 OFFCURVE",
"192 -10 QCURVE SMOOTH",
"293 -10 OFFCURVE",
"422 62 OFFCURVE",
"493 183 OFFCURVE",
"520 332 OFFCURVE",
"520 409 QCURVE",
"520 409 LINE"
);
},
{
closed = 1;
nodes = (
"329 650 OFFCURVE",
"397 594 OFFCURVE",
"431 510 OFFCURVE",
"431 467 QCURVE SMOOTH",
"431 435 OFFCURVE",
"392 375 OFFCURVE",
"322 336 OFFCURVE",
"274 336 QCURVE SMOOTH",
"204 336 OFFCURVE",
"137 415 OFFCURVE",
"137 484 QCURVE SMOOTH",
"137 568 OFFCURVE",
"216 650 OFFCURVE",
"278 650 QCURVE",
"278 650 LINE"
);
}
);
width = 572;
}
);
note = nine;
unicode = 0039;
},
{
glyphname = period;
layers = (
{
layerId = "CFFEBDE4-599A-46B2-9328-D96E42CD9C81";
paths = (
{
closed = 1;
nodes = (
"72 18 OFFCURVE",
"108 -14 OFFCURVE",
"133 -14 QCURVE SMOOTH",
"159 -14 OFFCURVE",
"196 18 OFFCURVE",
"196 54 QCURVE SMOOTH",
"196 91 OFFCURVE",
"159 121 OFFCURVE",
"133 121 QCURVE SMOOTH",
"108 121 OFFCURVE",
"72 91 OFFCURVE",
"72 54 QCURVE",
"72 54 LINE"
);
}
);
width = 268;
}
);
leftKerningGroup = comma;
note = period;
rightKerningGroup = comma;
unicode = 002E;
},
{
glyphname = comma;
layers = (
{
layerId = "CFFEBDE4-599A-46B2-9328-D96E42CD9C81";
paths = (
{
closed = 1;
nodes = (
"91 116 LINE",
"84 64 OFFCURVE",
"55 -72 OFFCURVE",
"41 -129 QCURVE",
"106 -129 LINE",
"130 -75 OFFCURVE",
"179 52 OFFCURVE",
"192 105 QCURVE",
"185 116 LINE",
"185 116 LINE"
);
}
);
width = 268;
}
);
leftKerningGroup = comma;
note = comma;
rightKerningGroup = comma;
unicode = 002C;
},
{
glyphname = hyphen;
layers = (
{
layerId = "CFFEBDE4-599A-46B2-9328-D96E42CD9C81";
paths = (
{
closed = 1;
nodes = (
"282 229 LINE",
"282 307 LINE",
"40 307 LINE",
"40 229 LINE",
"40 229 LINE"
);
}
);
width = 322;
}
);
leftKerningGroup = hyphen;
note = hyphen;
rightKerningGroup = hyphen;
unicode = 002D;
},
{
glyphname = .notdef;
lastChange = "2020-01-07 18:40:50 +0000";
layers = (
{
associatedMasterId = "CFFEBDE4-599A-46B2-9328-D96E42CD9C81";
layerId = "0A718E2F-231D-484E-9433-16A5230D2CE8";
name = Bold;
paths = (
{
closed = 1;
nodes = (
"496 0 LINE",
"496 714 LINE",
"85 714 LINE",
"85 0 LINE"
);
},
{
closed = 1;
nodes = (
"136 663 LINE",
"445 663 LINE",
"445 51 LINE",
"136 51 LINE"
);
}
);
width = 582;
},
{
associatedMasterId = "CFFEBDE4-599A-46B2-9328-D96E42CD9C81";
layerId = "98E204A9-1C79-49C7-AB3E-40A925F56409";
name = "Bold Condensed";
paths = (
{
closed = 1;
nodes = (
"496 0 LINE",
"496 714 LINE",
"85 714 LINE",
"85 0 LINE"
);
},
{
closed = 1;
nodes = (
"136 663 LINE",
"445 663 LINE",
"445 51 LINE",
"136 51 LINE"
);
}
);
width = 582;
},
{
associatedMasterId = "CFFEBDE4-599A-46B2-9328-D96E42CD9C81";
layerId = "9FF96064-8718-4A86-A5C8-73C592101F67";
name = Regular;
paths = (
{
closed = 1;
nodes = (
"505 0 LINE",
"505 714 LINE",
"94 714 LINE",
"94 0 LINE"
);
},
{
closed = 1;
nodes = (
"145 663 LINE",
"454 663 LINE",
"454 51 LINE",
"145 51 LINE"
);
}
);
width = 600;
},
{
associatedMasterId = "CFFEBDE4-599A-46B2-9328-D96E42CD9C81";
layerId = "134B12F2-BF5D-48E3-8003-C7502B438C7E";
name = SemiBold;
paths = (
{
closed = 1;
nodes = (
"505 0 LINE",
"505 714 LINE",
"94 714 LINE",
"94 0 LINE"
);
},
{
closed = 1;
nodes = (
"145 663 LINE",
"454 663 LINE",
"454 51 LINE",
"145 51 LINE"
);
}
);
width = 600;
},
{
associatedMasterId = "CFFEBDE4-599A-46B2-9328-D96E42CD9C81";
layerId = "36F3C8CB-53EE-4548-BFDE-2C03212BACAA";
name = Condensed;
paths = (
{
closed = 1;
nodes = (
"496 0 LINE",
"496 714 LINE",
"85 714 LINE",
"85 0 LINE"
);
},
{
closed = 1;
nodes = (
"136 663 LINE",
"445 663 LINE",
"445 51 LINE",
"136 51 LINE"
);
}
);
width = 595;
},
{
associatedMasterId = "CFFEBDE4-599A-46B2-9328-D96E42CD9C81";
layerId = "43B45EC1-5522-4B1A-B0C7-88628E50A583";
name = "SemiBold Condensed";
paths = (
{
closed = 1;
nodes = (
"496 0 LINE",
"496 714 LINE",
"85 714 LINE",
"85 0 LINE"
);
},
{
closed = 1;
nodes = (
"136 663 LINE",
"445 663 LINE",
"445 51 LINE",
"136 51 LINE"
);
}
);
width = 587;
},
{
layerId = "CFFEBDE4-599A-46B2-9328-D96E42CD9C81";
paths = (
{
closed = 1;
nodes = (
"505 0 LINE",
"505 714 LINE",
"94 714 LINE",
"94 0 LINE",
"94 0 LINE"
);
},
{
closed = 1;
nodes = (
"145 663 LINE",
"454 663 LINE",
"454 51 LINE",
"145 51 LINE",
"145 51 LINE"
);
}
);
userData = {
assembly = "NPUSHB[ ]	/* 39 values pushed */\0120 0 0 3 2 0 3 103 0 2 1 1 2 87 0 2 2 1 95 4 1 1 2 1 79 0 0 7 6 5 4 0 3 0 3 17 5 6 23 \012CALL[ ]	/* CallFunction */";
};
width = 600;
},
{
associatedMasterId = "CFFEBDE4-599A-46B2-9328-D96E42CD9C81";
layerId = "029FEF0C-5FA4-4A3E-AC23-838A1147A554";
name = "Light Condensed";
paths = (
{
closed = 1;
nodes = (
"496 0 LINE",
"496 714 LINE",
"85 714 LINE",
"85 0 LINE"
);
},
{
closed = 1;
nodes = (
"136 663 LINE",
"445 663 LINE",
"445 51 LINE",
"136 51 LINE"
);
}
);
width = 600;
},
{
associatedMasterId = "CFFEBDE4-599A-46B2-9328-D96E42CD9C81";
layerId = "6CD3EE05-C8AD-47E9-A0AE-B645441B0163";
name = Regular;
paths = (
{
closed = 1;
nodes = (
"496 0 LINE",
"496 714 LINE",
"85 714 LINE",
"85 0 LINE"
);
},
{
closed = 1;
nodes = (
"136 663 LINE",
"445 663 LINE",
"445 51 LINE",
"136 51 LINE"
);
}
);
width = 582;
},
{
associatedMasterId = "CFFEBDE4-599A-46B2-9328-D96E42CD9C81";
layerId = "4BA813F0-6E24-42D1-9A84-D42DCF76A6FD";
name = Regular;
paths = (
{
closed = 1;
nodes = (
"496 0 LINE",
"496 714 LINE",
"85 714 LINE",
"85 0 LINE"
);
},
{
closed = 1;
nodes = (
"136 663 LINE",
"445 663 LINE",
"445 51 LINE",
"136 51 LINE"
);
}
);
width = 582;
},
{
associatedMasterId = "CFFEBDE4-599A-46B2-9328-D96E42CD9C81";
layerId = "11C7202F-BDE1-4540-9196-841830120CA8";
name = Regular;
paths = (
{
closed = 1;
nodes = (
"505 0 LINE",
"505 714 LINE",
"94 714 LINE",
"94 0 LINE"
);
},
{
closed = 1;
nodes = (
"145 663 LINE",
"454 663 LINE",
"454 51 LINE",
"145 51 LINE"
);
}
);
width = 600;
},
{
associatedMasterId = "CFFEBDE4-599A-46B2-9328-D96E42CD9C81";
layerId = "5D16F8A9-2BA9-47A0-99C6-C9F3EBB274A0";
name = Regular;
paths = (
{
closed = 1;
nodes = (
"505 0 LINE",
"505 714 LINE",
"94 714 LINE",
"94 0 LINE"
);
},
{
closed = 1;
nodes = (
"145 663 LINE",
"454 663 LINE",
"454 51 LINE",
"145 51 LINE"
);
}
);
width = 600;
},
{
associatedMasterId = "CFFEBDE4-599A-46B2-9328-D96E42CD9C81";
layerId = "444C4D7B-BB42-46E5-A210-3251DB2C5DF7";
name = Regular;
paths = (
{
closed = 1;
nodes = (
"496 0 LINE",
"496 714 LINE",
"85 714 LINE",
"85 0 LINE"
);
},
{
closed = 1;
nodes = (
"136 663 LINE",
"445 663 LINE",
"445 51 LINE",
"136 51 LINE"
);
}
);
width = 595;
},
{
associatedMasterId = "CFFEBDE4-599A-46B2-9328-D96E42CD9C81";
layerId = "D00C89AE-1924-40D7-BCB8-50F6B6FF00C9";
name = Regular;
paths = (
{
closed = 1;
nodes = (
"496 0 LINE",
"496 714 LINE",
"85 714 LINE",
"85 0 LINE"
);
},
{
closed = 1;
nodes = (
"136 663 LINE",
"445 663 LINE",
"445 51 LINE",
"136 51 LINE"
);
}
);
width = 587;
},
{
associatedMasterId = "CFFEBDE4-599A-46B2-9328-D96E42CD9C81";
layerId = "0C04772A-F31D-4E86-90EF-3402D1EA39CA";
name = Regular;
paths = (
{
closed = 1;
nodes = (
"505 0 LINE",
"505 714 LINE",
"94 714 LINE",
"94 0 LINE"
);
},
{
closed = 1;
nodes = (
"145 663 LINE",
"454 663 LINE",
"454 51 LINE",
"145 51 LINE"
);
}
);
width = 600;
},
{
associatedMasterId = "CFFEBDE4-599A-46B2-9328-D96E42CD9C81";
layerId = "E44A1C33-4DA7-464B-9CD1-E803182C2B8E";
name = Regular;
paths = (
{
closed = 1;
nodes = (
"496 0 LINE",
"496 714 LINE",
"85 714 LINE",
"85 0 LINE"
);
},
{
closed = 1;
nodes = (
"136 663 LINE",
"445 663 LINE",
"445 51 LINE",
"136 51 LINE"
);
}
);
width = 600;
},
{
associatedMasterId = "CFFEBDE4-599A-46B2-9328-D96E42CD9C81";
layerId = "6CD769E4-BA55-4180-AEEB-BBFB0FE71E60";
name = SemiBold;
paths = (
{
closed = 1;
nodes = (
"496 0 LINE",
"496 714 LINE",
"85 714 LINE",
"85 0 LINE"
);
},
{
closed = 1;
nodes = (
"136 663 LINE",
"445 663 LINE",
"445 51 LINE",
"136 51 LINE"
);
}
);
width = 582;
},
{
associatedMasterId = "CFFEBDE4-599A-46B2-9328-D96E42CD9C81";
layerId = "B72AC865-DCE2-4021-9F6A-E52C2F7C36C3";
name = SemiBold;
paths = (
{
closed = 1;
nodes = (
"496 0 LINE",
"496 714 LINE",
"85 714 LINE",
"85 0 LINE"
);
},
{
closed = 1;
nodes = (
"136 663 LINE",
"445 663 LINE",
"445 51 LINE",
"136 51 LINE"
);
}
);
width = 582;
},
{
associatedMasterId = "CFFEBDE4-599A-46B2-9328-D96E42CD9C81";
layerId = "73144C29-A3E1-435F-A101-12EB16795B90";
name = SemiBold;
paths = (
{
closed = 1;
nodes = (
"505 0 LINE",
"505 714 LINE",
"94 714 LINE",
"94 0 LINE"
);
},
{
closed = 1;
nodes = (
"145 663 LINE",
"454 663 LINE",
"454 51 LINE",
"145 51 LINE"
);
}
);
width = 600;
},
{
associatedMasterId = "CFFEBDE4-599A-46B2-9328-D96E42CD9C81";
layerId = "18CF4588-85AB-4745-818C-09CE36B775D2";
name = SemiBold;
paths = (
{
closed = 1;
nodes = (
"505 0 LINE",
"505 714 LINE",
"94 714 LINE",
"94 0 LINE"
);
},
{
closed = 1;
nodes = (
"145 663 LINE",
"454 663 LINE",
"454 51 LINE",
"145 51 LINE"
);
}
);
width = 600;
},
{
associatedMasterId = "CFFEBDE4-599A-46B2-9328-D96E42CD9C81";
layerId = "686EB0C4-EABE-4AD7-86BC-00ECD1BF7E9E";
name = SemiBold;
paths = (
{
closed = 1;
nodes = (
"496 0 LINE",
"496 714 LINE",
"85 714 LINE",
"85 0 LINE"
);
},
{
closed = 1;
nodes = (
"136 663 LINE",
"445 663 LINE",
"445 51 LINE",
"136 51 LINE"
);
}
);
width = 595;
},
{
associatedMasterId = "CFFEBDE4-599A-46B2-9328-D96E42CD9C81";
layerId = "E5BC6AAC-6572-4494-8CA4-C3D39E7EACEC";
name = SemiBold;
paths = (
{
closed = 1;
nodes = (
"496 0 LINE",
"496 714 LINE",
"85 714 LINE",
"85 0 LINE"
);
},
{
closed = 1;
nodes = (
"136 663 LINE",
"445 663 LINE",
"445 51 LINE",
"136 51 LINE"
);
}
);
width = 587;
},
{
associatedMasterId = "CFFEBDE4-599A-46B2-9328-D96E42CD9C81";
layerId = "206B8059-80C9-426C-870D-7DCC5D63B771";
name = SemiBold;
paths = (
{
closed = 1;
nodes = (
"505 0 LINE",
"505 714 LINE",
"94 714 LINE",
"94 0 LINE"
);
},
{
closed = 1;
nodes = (
"145 663 LINE",
"454 663 LINE",
"454 51 LINE",
"145 51 LINE"
);
}
);
width = 600;
},
{
associatedMasterId = "CFFEBDE4-599A-46B2-9328-D96E42CD9C81";
layerId = "8CA70734-D081-4BD8-AD2F-7C5E13D31257";
name = SemiBold;
paths = (
{
closed = 1;
nodes = (
"496 0 LINE",
"496 714 LINE",
"85 714 LINE",
"85 0 LINE"
);
},
{
closed = 1;
nodes = (
"136 663 LINE",
"445 663 LINE",
"445 51 LINE",
"136 51 LINE"
);
}
);
width = 600;
},
{
associatedMasterId = "CFFEBDE4-599A-46B2-9328-D96E42CD9C81";
layerId = "6D228CAF-D3D7-4333-A99C-26716E667E2A";
name = Bold;
paths = (
{
closed = 1;
nodes = (
"496 0 LINE",
"496 714 LINE",
"85 714 LINE",
"85 0 LINE"
);
},
{
closed = 1;
nodes = (
"136 663 LINE",
"445 663 LINE",
"445 51 LINE",
"136 51 LINE"
);
}
);
width = 582;
},
{
associatedMasterId = "CFFEBDE4-599A-46B2-9328-D96E42CD9C81";
layerId = "0F275DA8-301B-4F20-BD77-158CA365DF6E";
name = Bold;
paths = (
{
closed = 1;
nodes = (
"496 0 LINE",
"496 714 LINE",
"85 714 LINE",
"85 0 LINE"
);
},
{
closed = 1;
nodes = (
"136 663 LINE",
"445 663 LINE",
"445 51 LINE",
"136 51 LINE"
);
}
);
width = 582;
},
{
associatedMasterId = "CFFEBDE4-599A-46B2-9328-D96E42CD9C81";
layerId = "D46BE755-DD9E-4EEB-B458-600115B36096";
name = Bold;
paths = (
{
closed = 1;
nodes = (
"505 0 LINE",
"505 714 LINE",
"94 714 LINE",
"94 0 LINE"
);
},
{
closed = 1;
nodes = (
"145 663 LINE",
"454 663 LINE",
"454 51 LINE",
"145 51 LINE"
);
}
);
width = 600;
},
{
associatedMasterId = "CFFEBDE4-599A-46B2-9328-D96E42CD9C81";
layerId = "7FE48EA0-3A2C-4D49-ABA4-E32E78AB57C1";
name = Bold;
paths = (
{
closed = 1;
nodes = (
"505 0 LINE",
"505 714 LINE",
"94 714 LINE",
"94 0 LINE"
);
},
{
closed = 1;
nodes = (
"145 663 LINE",
"454 663 LINE",
"454 51 LINE",
"145 51 LINE"
);
}
);
width = 600;
},
{
associatedMasterId = "CFFEBDE4-599A-46B2-9328-D96E42CD9C81";
layerId = "0C5F2DE2-4894-433A-AF78-14A7760305F4";
name = Bold;
paths = (
{
closed = 1;
nodes = (
"496 0 LINE",
"496 714 LINE",
"85 714 LINE",
"85 0 LINE"
);
},
{
closed = 1;
nodes = (
"136 663 LINE",
"445 663 LINE",
"445 51 LINE",
"136 51 LINE"
);
}
);
width = 595;
},
{
associatedMasterId = "CFFEBDE4-599A-46B2-9328-D96E42CD9C81";
layerId = "218C21A7-D612-4AB3-84F9-0D3A7F75CFA6";
name = Bold;
paths = (
{
closed = 1;
nodes = (
"496 0 LINE",
"496 714 LINE",
"85 714 LINE",
"85 0 LINE"
);
},
{
closed = 1;
nodes = (
"136 663 LINE",
"445 663 LINE",
"445 51 LINE",
"136 51 LINE"
);
}
);
width = 587;
},
{
associatedMasterId = "CFFEBDE4-599A-46B2-9328-D96E42CD9C81";
layerId = "3FB868F8-5CDC-4A46-BA32-95627737ABE0";
name = Bold;
paths = (
{
closed = 1;
nodes = (
"505 0 LINE",
"505 714 LINE",
"94 714 LINE",
"94 0 LINE"
);
},
{
closed = 1;
nodes = (
"145 663 LINE",
"454 663 LINE",
"454 51 LINE",
"145 51 LINE"
);
}
);
width = 600;
},
{
associatedMasterId = "CFFEBDE4-599A-46B2-9328-D96E42CD9C81";
layerId = "5BFF9FCA-B510-42EF-B974-4F4703A3DF37";
name = Bold;
paths = (
{
closed = 1;
nodes = (
"496 0 LINE",
"496 714 LINE",
"85 714 LINE",
"85 0 LINE"
);
},
{
closed = 1;
nodes = (
"136 663 LINE",
"445 663 LINE",
"445 51 LINE",
"136 51 LINE"
);
}
);
width = 600;
},
{
associatedMasterId = "CFFEBDE4-599A-46B2-9328-D96E42CD9C81";
layerId = "10F16149-C491-4EC1-A76D-4B0D82B949A8";
name = "Light Condensed";
paths = (
{
closed = 1;
nodes = (
"496 0 LINE",
"496 714 LINE",
"85 714 LINE",
"85 0 LINE"
);
},
{
closed = 1;
nodes = (
"136 663 LINE",
"445 663 LINE",
"445 51 LINE",
"136 51 LINE"
);
}
);
width = 582;
},
{
associatedMasterId = "CFFEBDE4-599A-46B2-9328-D96E42CD9C81";
layerId = "72186310-A4A1-43C8-93EC-DE7F7E0C04DC";
name = "Light Condensed";
paths = (
{
closed = 1;
nodes = (
"496 0 LINE",
"496 714 LINE",
"85 714 LINE",
"85 0 LINE"
);
},
{
closed = 1;
nodes = (
"136 663 LINE",
"445 663 LINE",
"445 51 LINE",
"136 51 LINE"
);
}
);
width = 582;
},
{
associatedMasterId = "CFFEBDE4-599A-46B2-9328-D96E42CD9C81";
layerId = "3AA2D878-A039-41E2-8382-305C1EBDDC14";
name = "Light Condensed";
paths = (
{
closed = 1;
nodes = (
"505 0 LINE",
"505 714 LINE",
"94 714 LINE",
"94 0 LINE"
);
},
{
closed = 1;
nodes = (
"145 663 LINE",
"454 663 LINE",
"454 51 LINE",
"145 51 LINE"
);
}
);
width = 600;
},
{
associatedMasterId = "CFFEBDE4-599A-46B2-9328-D96E42CD9C81";
layerId = "910244F3-C233-4E50-A821-AC6322E08668";
name = "Light Condensed";
paths = (
{
closed = 1;
nodes = (
"505 0 LINE",
"505 714 LINE",
"94 714 LINE",
"94 0 LINE"
);
},
{
closed = 1;
nodes = (
"145 663 LINE",
"454 663 LINE",
"454 51 LINE",
"145 51 LINE"
);
}
);
width = 600;
},
{
associatedMasterId = "CFFEBDE4-599A-46B2-9328-D96E42CD9C81";
layerId = "3D21177B-E83B-427F-9FBC-21300ED8A213";
name = "Light Condensed";
paths = (
{
closed = 1;
nodes = (
"496 0 LINE",
"496 714 LINE",
"85 714 LINE",
"85 0 LINE"
);
},
{
closed = 1;
nodes = (
"136 663 LINE",
"445 663 LINE",
"445 51 LINE",
"136 51 LINE"
);
}
);
width = 595;
},
{
associatedMasterId = "CFFEBDE4-599A-46B2-9328-D96E42CD9C81";
layerId = "4355EC66-3F59-4296-9F4C-72EC0B481B5D";
name = "Light Condensed";
paths = (
{
closed = 1;
nodes = (
"496 0 LINE",
"496 714 LINE",
"85 714 LINE",
"85 0 LINE"
);
},
{
closed = 1;
nodes = (
"136 663 LINE",
"445 663 LINE",
"445 51 LINE",
"136 51 LINE"
);
}
);
width = 587;
},
{
associatedMasterId = "CFFEBDE4-599A-46B2-9328-D96E42CD9C81";
layerId = "BD31AAF9-E65B-4A30-ACC0-7018B0C27C60";
name = "Light Condensed";
paths = (
{
closed = 1;
nodes = (
"505 0 LINE",
"505 714 LINE",
"94 714 LINE",
"94 0 LINE"
);
},
{
closed = 1;
nodes = (
"145 663 LINE",
"454 663 LINE",
"454 51 LINE",
"145 51 LINE"
);
}
);
width = 600;
},
{
associatedMasterId = "CFFEBDE4-599A-46B2-9328-D96E42CD9C81";
layerId = "D77228BB-6669-4F59-82EB-EFDED494D297";
name = "Light Condensed";
paths = (
{
closed = 1;
nodes = (
"496 0 LINE",
"496 714 LINE",
"85 714 LINE",
"85 0 LINE"
);
},
{
closed = 1;
nodes = (
"136 663 LINE",
"445 663 LINE",
"445 51 LINE",
"136 51 LINE"
);
}
);
width = 600;
},
{
associatedMasterId = "CFFEBDE4-599A-46B2-9328-D96E42CD9C81";
layerId = "81F4823B-D69E-4E11-86B2-52E1D1CABD54";
name = Condensed;
paths = (
{
closed = 1;
nodes = (
"496 0 LINE",
"496 714 LINE",
"85 714 LINE",
"85 0 LINE"
);
},
{
closed = 1;
nodes = (
"136 663 LINE",
"445 663 LINE",
"445 51 LINE",
"136 51 LINE"
);
}
);
width = 582;
},
{
associatedMasterId = "CFFEBDE4-599A-46B2-9328-D96E42CD9C81";
layerId = "1ACF29D9-9C6C-45FA-8C10-238DD2AA8ADF";
name = Condensed;
paths = (
{
closed = 1;
nodes = (
"496 0 LINE",
"496 714 LINE",
"85 714 LINE",
"85 0 LINE"
);
},
{
closed = 1;
nodes = (
"136 663 LINE",
"445 663 LINE",
"445 51 LINE",
"136 51 LINE"
);
}
);
width = 582;
},
{
associatedMasterId = "CFFEBDE4-599A-46B2-9328-D96E42CD9C81";
layerId = "A823C984-E080-4BD5-A1B6-02506CC81AD1";
name = Condensed;
paths = (
{
closed = 1;
nodes = (
"505 0 LINE",
"505 714 LINE",
"94 714 LINE",
"94 0 LINE"
);
},
{
closed = 1;
nodes = (
"145 663 LINE",
"454 663 LINE",
"454 51 LINE",
"145 51 LINE"
);
}
);
width = 600;
},
{
associatedMasterId = "CFFEBDE4-599A-46B2-9328-D96E42CD9C81";
layerId = "7C505BEE-2611-4A04-ABA0-64C0BA48336F";
name = Condensed;
paths = (
{
closed = 1;
nodes = (
"505 0 LINE",
"505 714 LINE",
"94 714 LINE",
"94 0 LINE"
);
},
{
closed = 1;
nodes = (
"145 663 LINE",
"454 663 LINE",
"454 51 LINE",
"145 51 LINE"
);
}
);
width = 600;
},
{
associatedMasterId = "CFFEBDE4-599A-46B2-9328-D96E42CD9C81";
layerId = "CFFC113C-B55C-44E0-A174-84F7BF124894";
name = Condensed;
paths = (
{
closed = 1;
nodes = (
"496 0 LINE",
"496 714 LINE",
"85 714 LINE",
"85 0 LINE"
);
},
{
closed = 1;
nodes = (
"136 663 LINE",
"445 663 LINE",
"445 51 LINE",
"136 51 LINE"
);
}
);
width = 595;
},
{
associatedMasterId = "CFFEBDE4-599A-46B2-9328-D96E42CD9C81";
layerId = "43D1030E-7459-4003-8CF9-EC0A1464FBD9";
name = Condensed;
paths = (
{
closed = 1;
nodes = (
"496 0 LINE",
"496 714 LINE",
"85 714 LINE",
"85 0 LINE"
);
},
{
closed = 1;
nodes = (
"136 663 LINE",
"445 663 LINE",
"445 51 LINE",
"136 51 LINE"
);
}
);
width = 587;
},
{
associatedMasterId = "CFFEBDE4-599A-46B2-9328-D96E42CD9C81";
layerId = "E193C3F6-581C-4255-BA06-39B2C55FEA85";
name = Condensed;
paths = (
{
closed = 1;
nodes = (
"505 0 LINE",
"505 714 LINE",
"94 714 LINE",
"94 0 LINE"
);
},
{
closed = 1;
nodes = (
"145 663 LINE",
"454 663 LINE",
"454 51 LINE",
"145 51 LINE"
);
}
);
width = 600;
},
{
associatedMasterId = "CFFEBDE4-599A-46B2-9328-D96E42CD9C81";
layerId = "BC1F2A7D-5C4C-489A-B80D-F8A78AA87396";
name = Condensed;
paths = (
{
closed = 1;
nodes = (
"496 0 LINE",
"496 714 LINE",
"85 714 LINE",
"85 0 LINE"
);
},
{
closed = 1;
nodes = (
"136 663 LINE",
"445 663 LINE",
"445 51 LINE",
"136 51 LINE"
);
}
);
width = 600;
},
{
associatedMasterId = "CFFEBDE4-599A-46B2-9328-D96E42CD9C81";
layerId = "4A97D365-134C-40CE-A1F4-ACEEDAC52A69";
name = Bold;
paths = (
{
closed = 1;
nodes = (
"496 0 LINE",
"496 714 LINE",
"85 714 LINE",
"85 0 LINE"
);
},
{
closed = 1;
nodes = (
"136 663 LINE",
"445 663 LINE",
"445 51 LINE",
"136 51 LINE"
);
}
);
width = 582;
},
{
associatedMasterId = "CFFEBDE4-599A-46B2-9328-D96E42CD9C81";
layerId = "E30ED5CA-5FDA-483A-B078-9F166668F082";
name = "Bold Condensed";
paths = (
{
closed = 1;
nodes = (
"496 0 LINE",
"496 714 LINE",
"85 714 LINE",
"85 0 LINE"
);
},
{
closed = 1;
nodes = (
"136 663 LINE",
"445 663 LINE",
"445 51 LINE",
"136 51 LINE"
);
}
);
width = 582;
},
{
associatedMasterId = "CFFEBDE4-599A-46B2-9328-D96E42CD9C81";
layerId = "5E9EB60B-4C02-4C45-9028-66D331043723";
name = Regular;
paths = (
{
closed = 1;
nodes = (
"505 0 LINE",
"505 714 LINE",
"94 714 LINE",
"94 0 LINE"
);
},
{
closed = 1;
nodes = (
"145 663 LINE",
"454 663 LINE",
"454 51 LINE",
"145 51 LINE"
);
}
);
width = 600;
},
{
associatedMasterId = "CFFEBDE4-599A-46B2-9328-D96E42CD9C81";
layerId = "CF4745A3-289E-483C-9D08-2C2CDA3793CE";
name = SemiBold;
paths = (
{
closed = 1;
nodes = (
"505 0 LINE",
"505 714 LINE",
"94 714 LINE",
"94 0 LINE"
);
},
{
closed = 1;
nodes = (
"145 663 LINE",
"454 663 LINE",
"454 51 LINE",
"145 51 LINE"
);
}
);
width = 600;
},
{
associatedMasterId = "CFFEBDE4-599A-46B2-9328-D96E42CD9C81";
layerId = "0007F7B2-5B0D-4ECF-8993-9E445AE70882";
name = Condensed;
paths = (
{
closed = 1;
nodes = (
"496 0 LINE",
"496 714 LINE",
"85 714 LINE",
"85 0 LINE"
);
},
{
closed = 1;
nodes = (
"136 663 LINE",
"445 663 LINE",
"445 51 LINE",
"136 51 LINE"
);
}
);
width = 595;
},
{
associatedMasterId = "CFFEBDE4-599A-46B2-9328-D96E42CD9C81";
layerId = "A6240D38-CEDA-4780-B12F-EAC7EDB843D9";
name = "SemiBold Condensed";
paths = (
{
closed = 1;
nodes = (
"496 0 LINE",
"496 714 LINE",
"85 714 LINE",
"85 0 LINE"
);
},
{
closed = 1;
nodes = (
"136 663 LINE",
"445 663 LINE",
"445 51 LINE",
"136 51 LINE"
);
}
);
width = 587;
},
{
associatedMasterId = "CFFEBDE4-599A-46B2-9328-D96E42CD9C81";
layerId = "79A278C6-3EFA-4DDB-B984-DD1D15CE97C9";
name = "Light Condensed";
paths = (
{
closed = 1;
nodes = (
"496 0 LINE",
"496 714 LINE",
"85 714 LINE",
"85 0 LINE"
);
},
{
closed = 1;
nodes = (
"136 663 LINE",
"445 663 LINE",
"445 51 LINE",
"136 51 LINE"
);
}
);
width = 600;
},
{
associatedMasterId = "CFFEBDE4-599A-46B2-9328-D96E42CD9C81";
layerId = "0F2AC913-770D-4B71-A4B9-DFCE7D340767";
name = "SemiBold Condensed";
paths = (
{
closed = 1;
nodes = (
"496 0 LINE",
"496 714 LINE",
"85 714 LINE",
"85 0 LINE"
);
},
{
closed = 1;
nodes = (
"136 663 LINE",
"445 663 LINE",
"445 51 LINE",
"136 51 LINE"
);
}
);
width = 582;
},
{
associatedMasterId = "CFFEBDE4-599A-46B2-9328-D96E42CD9C81";
layerId = "5818F93F-12B0-43EF-AE07-DE875336F2D3";
name = "SemiBold Condensed";
paths = (
{
closed = 1;
nodes = (
"496 0 LINE",
"496 714 LINE",
"85 714 LINE",
"85 0 LINE"
);
},
{
closed = 1;
nodes = (
"136 663 LINE",
"445 663 LINE",
"445 51 LINE",
"136 51 LINE"
);
}
);
width = 582;
},
{
associatedMasterId = "CFFEBDE4-599A-46B2-9328-D96E42CD9C81";
layerId = "69A75AA9-C824-4690-AF06-368352D8C4A0";
name = "SemiBold Condensed";
paths = (
{
closed = 1;
nodes = (
"505 0 LINE",
"505 714 LINE",
"94 714 LINE",
"94 0 LINE"
);
},
{
closed = 1;
nodes = (
"145 663 LINE",
"454 663 LINE",
"454 51 LINE",
"145 51 LINE"
);
}
);
width = 600;
},
{
associatedMasterId = "CFFEBDE4-599A-46B2-9328-D96E42CD9C81";
layerId = "0659F8A8-1CA7-437A-8862-AFE6849E1BC8";
name = "SemiBold Condensed";
paths = (
{
closed = 1;
nodes = (
"505 0 LINE",
"505 714 LINE",
"94 714 LINE",
"94 0 LINE"
);
},
{
closed = 1;
nodes = (
"145 663 LINE",
"454 663 LINE",
"454 51 LINE",
"145 51 LINE"
);
}
);
width = 600;
},
{
associatedMasterId = "CFFEBDE4-599A-46B2-9328-D96E42CD9C81";
layerId = "9849390B-0D5D-419F-BBF7-4CB8DF1108F4";
name = "SemiBold Condensed";
paths = (
{
closed = 1;
nodes = (
"496 0 LINE",
"496 714 LINE",
"85 714 LINE",
"85 0 LINE"
);
},
{
closed = 1;
nodes = (
"136 663 LINE",
"445 663 LINE",
"445 51 LINE",
"136 51 LINE"
);
}
);
width = 595;
},
{
associatedMasterId = "CFFEBDE4-599A-46B2-9328-D96E42CD9C81";
layerId = "435372D3-A5C6-4F91-8D68-18D24F2DC602";
name = "SemiBold Condensed";
paths = (
{
closed = 1;
nodes = (
"496 0 LINE",
"496 714 LINE",
"85 714 LINE",
"85 0 LINE"
);
},
{
closed = 1;
nodes = (
"136 663 LINE",
"445 663 LINE",
"445 51 LINE",
"136 51 LINE"
);
}
);
width = 587;
},
{
associatedMasterId = "CFFEBDE4-599A-46B2-9328-D96E42CD9C81";
layerId = "4D9C3FAB-40EB-4CCF-A752-6D6FE9920038";
name = "SemiBold Condensed";
paths = (
{
closed = 1;
nodes = (
"505 0 LINE",
"505 714 LINE",
"94 714 LINE",
"94 0 LINE"
);
},
{
closed = 1;
nodes = (
"145 663 LINE",
"454 663 LINE",
"454 51 LINE",
"145 51 LINE"
);
}
);
width = 600;
},
{
associatedMasterId = "CFFEBDE4-599A-46B2-9328-D96E42CD9C81";
layerId = "AFC07936-CFE6-40C4-A927-1C79F0D571B9";
name = "SemiBold Condensed";
paths = (
{
closed = 1;
nodes = (
"496 0 LINE",
"496 714 LINE",
"85 714 LINE",
"85 0 LINE"
);
},
{
closed = 1;
nodes = (
"136 663 LINE",
"445 663 LINE",
"445 51 LINE",
"136 51 LINE"
);
}
);
width = 600;
},
{
associatedMasterId = "CFFEBDE4-599A-46B2-9328-D96E42CD9C81";
layerId = "3DB921F2-2B03-4BC4-8509-8FCD7A6F784E";
name = "Bold Condensed";
paths = (
{
closed = 1;
nodes = (
"496 0 LINE",
"496 714 LINE",
"85 714 LINE",
"85 0 LINE"
);
},
{
closed = 1;
nodes = (
"136 663 LINE",
"445 663 LINE",
"445 51 LINE",
"136 51 LINE"
);
}
);
width = 582;
},
{
associatedMasterId = "CFFEBDE4-599A-46B2-9328-D96E42CD9C81";
layerId = "2F2377A1-11C3-41B6-919D-D55F8AA75D07";
name = "Bold Condensed";
paths = (
{
closed = 1;
nodes = (
"496 0 LINE",
"496 714 LINE",
"85 714 LINE",
"85 0 LINE"
);
},
{
closed = 1;
nodes = (
"136 663 LINE",
"445 663 LINE",
"445 51 LINE",
"136 51 LINE"
);
}
);
width = 582;
},
{
associatedMasterId = "CFFEBDE4-599A-46B2-9328-D96E42CD9C81";
layerId = "18EFA2A5-94BA-44A1-8C61-68BF4E401414";
name = "Bold Condensed";
paths = (
{
closed = 1;
nodes = (
"505 0 LINE",
"505 714 LINE",
"94 714 LINE",
"94 0 LINE"
);
},
{
closed = 1;
nodes = (
"145 663 LINE",
"454 663 LINE",
"454 51 LINE",
"145 51 LINE"
);
}
);
width = 600;
},
{
associatedMasterId = "CFFEBDE4-599A-46B2-9328-D96E42CD9C81";
layerId = "9E2FF5C0-3F8B-4CDD-8C0B-518BB51B0C53";
name = "Bold Condensed";
paths = (
{
closed = 1;
nodes = (
"505 0 LINE",
"505 714 LINE",
"94 714 LINE",
"94 0 LINE"
);
},
{
closed = 1;
nodes = (
"145 663 LINE",
"454 663 LINE",
"454 51 LINE",
"145 51 LINE"
);
}
);
width = 600;
},
{
associatedMasterId = "CFFEBDE4-599A-46B2-9328-D96E42CD9C81";
layerId = "49C7FBBB-5D49-485A-90F5-A2972E78A97C";
name = "Bold Condensed";
paths = (
{
closed = 1;
nodes = (
"496 0 LINE",
"496 714 LINE",
"85 714 LINE",
"85 0 LINE"
);
},
{
closed = 1;
nodes = (
"136 663 LINE",
"445 663 LINE",
"445 51 LINE",
"136 51 LINE"
);
}
);
width = 595;
},
{
associatedMasterId = "CFFEBDE4-599A-46B2-9328-D96E42CD9C81";
layerId = "42E87011-FEDB-43C8-99A4-706BFF7CA79F";
name = "Bold Condensed";
paths = (
{
closed = 1;
nodes = (
"496 0 LINE",
"496 714 LINE",
"85 714 LINE",
"85 0 LINE"
);
},
{
closed = 1;
nodes = (
"136 663 LINE",
"445 663 LINE",
"445 51 LINE",
"136 51 LINE"
);
}
);
width = 587;
},
{
associatedMasterId = "CFFEBDE4-599A-46B2-9328-D96E42CD9C81";
layerId = "AD6F6DAA-2D58-4E1D-98AF-ACAAF76D7B9E";
name = "Bold Condensed";
paths = (
{
closed = 1;
nodes = (
"505 0 LINE",
"505 714 LINE",
"94 714 LINE",
"94 0 LINE"
);
},
{
closed = 1;
nodes = (
"145 663 LINE",
"454 663 LINE",
"454 51 LINE",
"145 51 LINE"
);
}
);
width = 600;
},
{
associatedMasterId = "CFFEBDE4-599A-46B2-9328-D96E42CD9C81";
layerId = "001EDBC9-3154-4441-98CE-7D8995D9200E";
name = "Bold Condensed";
paths = (
{
closed = 1;
nodes = (
"496 0 LINE",
"496 714 LINE",
"85 714 LINE",
"85 0 LINE"
);
},
{
closed = 1;
nodes = (
"136 663 LINE",
"445 663 LINE",
"445 51 LINE",
"136 51 LINE"
);
}
);
width = 600;
}
);
note = .notdef;
},
{
glyphname = u1B170;
lastChange = "2020-03-23 17:00:55 +0000";
layers = (
{
layerId = "CFFEBDE4-599A-46B2-9328-D96E42CD9C81";
paths = (
{
closed = 1;
nodes = (
"280 932 LINE",
"288 838 OFFCURVE",
"292 762 OFFCURVE",
"292 649 CURVE SMOOTH",
"292 191 OFFCURVE",
"217 -25 OFFCURVE",
"10 -239 CURVE",
"70 -293 LINE",
"291 -62 OFFCURVE",
"378 180 OFFCURVE",
"378 653 CURVE SMOOTH",
"378 770 OFFCURVE",
"373 851 OFFCURVE",
"365 939 CURVE"
);
}
);
vertOrigin = 90;
vertWidth = 1312;
width = 458;
}
);
unicode = 1B170;
},
{
glyphname = u1B171;
lastChange = "2020-03-23 17:03:42 +0000";
layers = (
{
background = {
paths = (
{
closed = 1;
nodes = (
"377 1074 LINE",
"382 990 OFFCURVE",
"384 912 OFFCURVE",
"384 839 CURVE SMOOTH",
"384 168 OFFCURVE",
"275 -69 OFFCURVE",
"37 -268 CURVE",
"97 -325 LINE",
"349 -109 OFFCURVE",
"470 157 OFFCURVE",
"470 843 CURVE SMOOTH",
"470 917 OFFCURVE",
"466 1001 OFFCURVE",
"461 1079 CURVE"
);
}
);
};
guideLines = (
{
angle = 90;
locked = 1;
position = "{310, 490}";
}
);
layerId = "CFFEBDE4-599A-46B2-9328-D96E42CD9C81";
paths = (
{
closed = 1;
nodes = (
"273 368 OFFCURVE",
"191 172 OFFCURVE",
"10 -28 CURVE",
"67 -83 LINE",
"266 133 OFFCURVE",
"359 362 OFFCURVE",
"359 654 CURVE SMOOTH",
"359 756 OFFCURVE",
"353 846 OFFCURVE",
"340 939 CURVE",
"255 932 LINE",
"268 837 OFFCURVE",
"273 765 OFFCURVE",
"273 652 CURVE SMOOTH"
);
},
{
closed = 1;
nodes = (
"381 193 LINE",
"309 24 OFFCURVE",
"217 -124 OFFCURVE",
"99 -236 CURVE",
"158 -293 LINE",
"279 -177 OFFCURVE",
"376 -20 OFFCURVE",
"458 159 CURVE"
);
}
);
vertOrigin = 90;
vertWidth = 1312;
width = 493;
}
);
unicode = 1B171;
},
{
glyphname = u1B172;
lastChange = "2020-03-23 17:04:13 +0000";
layers = (
{
background = {
components = (
{
name = u1B170;
}
);
};
guideLines = (
{
angle = 90;
locked = 1;
position = "{250, 490}";
}
);
layerId = "CFFEBDE4-599A-46B2-9328-D96E42CD9C81";
paths = (
{
closed = 1;
nodes = (
"363 939 LINE",
"304 628 OFFCURVE",
"181 351 OFFCURVE",
"22 132 CURVE",
"87 83 LINE",
"262 318 OFFCURVE",
"382 613 OFFCURVE",
"446 929 CURVE"
);
},
{
closed = 1;
nodes = (
"249 494 OFFCURVE",
"341 310 OFFCURVE",
"341 147 CURVE SMOOTH",
"341 1 OFFCURVE",
"299 -115 OFFCURVE",
"208 -246 CURVE",
"276 -293 LINE",
"371 -160 OFFCURVE",
"427 -20 OFFCURVE",
"427 147 CURVE SMOOTH",
"427 320 OFFCURVE",
"343 528 OFFCURVE",
"64 751 CURVE",
"10 686 LINE"
);
}
);
vertOrigin = 90;
vertWidth = 1312;
width = 476;
}
);
unicode = 1B172;
},
{
glyphname = u1B173;
lastChange = "2020-03-23 17:04:36 +0000";
layers = (
{
guideLines = (
{
angle = 90;
locked = 1;
position = "{240, 490}";
}
);
layerId = "CFFEBDE4-599A-46B2-9328-D96E42CD9C81";
paths = (
{
closed = 1;
nodes = (
"268 383 LINE",
"327 247 OFFCURVE",
"357 138 OFFCURVE",
"357 -4 CURVE SMOOTH",
"357 -91 OFFCURVE",
"347 -177 OFFCURVE",
"327 -277 CURVE",
"410 -293 LINE",
"435 -184 OFFCURVE",
"443 -95 OFFCURVE",
"443 -11 CURVE SMOOTH",
"443 182 OFFCURVE",
"394 322 OFFCURVE",
"284 525 CURVE"
);
},
{
closed = 1;
nodes = (
"238 832 OFFCURVE",
"244 751 OFFCURVE",
"244 639 CURVE SMOOTH",
"244 402 OFFCURVE",
"171 232 OFFCURVE",
"10 40 CURVE",
"72 -10 LINE",
"251 192 OFFCURVE",
"330 383 OFFCURVE",
"330 652 CURVE SMOOTH",
"330 765 OFFCURVE",
"320 855 OFFCURVE",
"308 939 CURVE",
"224 930 LINE"
);
}
);
vertOrigin = 90;
vertWidth = 1312;
width = 493;
}
);
unicode = 1B173;
},
{
glyphname = u1B174;
lastChange = "2020-03-23 17:04:50 +0000";
layers = (
{
guideLines = (
{
angle = 90;
locked = 1;
position = "{320, 490}";
}
);
layerId = "CFFEBDE4-599A-46B2-9328-D96E42CD9C81";
paths = (
{
closed = 1;
nodes = (
"106 439 OFFCURVE",
"137 281 OFFCURVE",
"137 112 CURVE SMOOTH",
"137 -21 OFFCURVE",
"113 -138 OFFCURVE",
"61 -262 CURVE",
"135 -293 LINE",
"190 -165 OFFCURVE",
"220 -34 OFFCURVE",
"220 112 CURVE SMOOTH",
"220 300 OFFCURVE",
"187 450 OFFCURVE",
"107 656 CURVE",
"30 624 LINE"
);
},
{
closed = 1;
nodes = (
"411 278 OFFCURVE",
"372 406 OFFCURVE",
"372 591 CURVE SMOOTH",
"372 692 OFFCURVE",
"380 794 OFFCURVE",
"411 923 CURVE",
"332 939 LINE",
"300 812 OFFCURVE",
"289 710 OFFCURVE",
"289 594 CURVE SMOOTH",
"289 391 OFFCURVE",
"344 232 OFFCURVE",
"450 90 CURVE",
"515 138 LINE"
);
}
);
vertOrigin = 90;
vertWidth = 1312;
width = 545;
}
);
unicode = 1B174;
},
{
glyphname = u1B175;
lastChange = "2020-03-23 17:05:02 +0000";
layers = (
{
layerId = "CFFEBDE4-599A-46B2-9328-D96E42CD9C81";
paths = (
{
closed = 1;
nodes = (
"529 -132 LINE",
"431 187 OFFCURVE",
"283 463 OFFCURVE",
"78 726 CURVE",
"10 679 LINE",
"205 431 OFFCURVE",
"357 136 OFFCURVE",
"450 -163 CURVE"
);
},
{
closed = 1;
nodes = (
"417 939 LINE",
"348 525 OFFCURVE",
"212 109 OFFCURVE",
"30 -264 CURVE",
"106 -293 LINE",
"302 111 OFFCURVE",
"427 491 OFFCURVE",
"498 927 CURVE"
);
}
);
vertOrigin = 90;
vertWidth = 1312;
width = 539;
}
);
unicode = 1B175;
},
{
glyphname = u1B176;
lastChange = "2020-03-23 17:05:09 +0000";
layers = (
{
guideLines = (
{
angle = 90;
locked = 1;
position = "{233, 490}";
}
);
layerId = "CFFEBDE4-599A-46B2-9328-D96E42CD9C81";
paths = (
{
closed = 1;
nodes = (
"242 732 OFFCURVE",
"275 578 OFFCURVE",
"275 367 CURVE SMOOTH",
"275 116 OFFCURVE",
"194 -87 OFFCURVE",
"54 -243 CURVE",
"114 -293 LINE",
"277 -127 OFFCURVE",
"358 110 OFFCURVE",
"358 368 CURVE SMOOTH",
"358 585 OFFCURVE",
"321 759 OFFCURVE",
"241 939 CURVE",
"162 915 LINE"
);
},
{
closed = 1;
nodes = (
"110 286 OFFCURVE",
"133 303 OFFCURVE",
"133 342 CURVE SMOOTH",
"133 381 OFFCURVE",
"110 398 OFFCURVE",
"82 398 CURVE SMOOTH",
"53 398 OFFCURVE",
"30 381 OFFCURVE",
"30 342 CURVE SMOOTH",
"30 303 OFFCURVE",
"53 286 OFFCURVE",
"82 286 CURVE SMOOTH"
);
}
);
vertOrigin = 90;
vertWidth = 1312;
width = 438;
}
);
unicode = 1B176;
},
{
glyphname = u1B177;
lastChange = "2020-03-23 17:05:13 +0000";
layers = (
{
background = {
paths = (
{
closed = 1;
nodes = (
"362 -133 OFFCURVE",
"291 48 OFFCURVE",
"229 277 CURVE SMOOTH",
"139 609 OFFCURVE",
"198 828 OFFCURVE",
"363 1040 CURVE",
"290 1079 LINE",
"111 848 OFFCURVE",
"52 602 OFFCURVE",
"148 246 CURVE SMOOTH",
"213 6 OFFCURVE",
"289 -183 OFFCURVE",
"388 -350 CURVE",
"465 -318 LINE"
);
}
);
};
guideLines = (
{
angle = 90;
locked = 1;
position = "{330, 490}";
}
);
layerId = "CFFEBDE4-599A-46B2-9328-D96E42CD9C81";
paths = (
{
closed = 1;
nodes = (
"207 939 LINE",
"122 760 OFFCURVE",
"80 576 OFFCURVE",
"80 378 CURVE SMOOTH",
"80 103 OFFCURVE",
"157 -97 OFFCURVE",
"304 -293 CURVE",
"373 -242 LINE",
"239 -43 OFFCURVE",
"166 131 OFFCURVE",
"166 377 CURVE SMOOTH",
"166 580 OFFCURVE",
"207 751 OFFCURVE",
"285 911 CURVE"
);
},
{
closed = 1;
nodes = (
"328 428 OFFCURVE",
"305 411 OFFCURVE",
"305 372 CURVE SMOOTH",
"305 333 OFFCURVE",
"328 316 OFFCURVE",
"356 316 CURVE SMOOTH",
"385 316 OFFCURVE",
"408 333 OFFCURVE",
"408 372 CURVE SMOOTH",
"408 411 OFFCURVE",
"385 428 OFFCURVE",
"356 428 CURVE SMOOTH"
);
}
);
vertOrigin = 90;
vertWidth = 1312;
width = 438;
}
);
unicode = 1B177;
},
{
glyphname = u1B178;
lastChange = "2020-03-23 17:05:18 +0000";
layers = (
{
guideLines = (
{
angle = 90;
locked = 1;
position = "{375, 490}";
}
);
layerId = "CFFEBDE4-599A-46B2-9328-D96E42CD9C81";
paths = (
{
closed = 1;
nodes = (
"173 349 LINE",
"151 154 OFFCURVE",
"120 83 OFFCURVE",
"20 -11 CURVE",
"79 -65 LINE",
"185 32 OFFCURVE",
"236 122 OFFCURVE",
"259 338 CURVE"
);
},
{
closed = 1;
nodes = (
"514 146 OFFCURVE",
"496 57 OFFCURVE",
"496 -41 CURVE SMOOTH",
"496 -135 OFFCURVE",
"506 -206 OFFCURVE",
"537 -283 CURVE",
"617 -255 LINE",
"593 -195 OFFCURVE",
"580 -129 OFFCURVE",
"580 -41 CURVE SMOOTH",
"580 46 OFFCURVE",
"596 129 OFFCURVE",
"643 232 CURVE",
"566 262 LINE"
);
},
{
closed = 1;
nodes = (
"339 931 LINE",
"355 767 OFFCURVE",
"364 633 OFFCURVE",
"364 453 CURVE SMOOTH",
"364 122 OFFCURVE",
"287 -77 OFFCURVE",
"128 -237 CURVE",
"191 -293 LINE",
"364 -116 OFFCURVE",
"450 111 OFFCURVE",
"450 457 CURVE SMOOTH",
"450 642 OFFCURVE",
"440 803 OFFCURVE",
"426 939 CURVE"
);
}
);
vertOrigin = 90;
vertWidth = 1312;
width = 663;
}
);
unicode = 1B178;
},
{
glyphname = u1B179;
lastChange = "2020-03-23 17:05:37 +0000";
layers = (
{
background = {
paths = (
{
closed = 1;
nodes = (
"381 968 OFFCURVE",
"387 873 OFFCURVE",
"387 737 CURVE SMOOTH",
"387 266 OFFCURVE",
"283 -24 OFFCURVE",
"37 -268 CURVE",
"97 -325 LINE",
"362 -67 OFFCURVE",
"473 250 OFFCURVE",
"473 738 CURVE SMOOTH",
"473 863 OFFCURVE",
"466 978 OFFCURVE",
"449 1079 CURVE",
"364 1069 LINE"
);
}
);
};
guideLines = (
{
angle = 90;
locked = 1;
position = "{285, 490}";
}
);
layerId = "CFFEBDE4-599A-46B2-9328-D96E42CD9C81";
paths = (
{
closed = 1;
nodes = (
"401 939 LINE",
"297 749 OFFCURVE",
"178 601 OFFCURVE",
"10 449 CURVE",
"63 386 LINE",
"237 536 OFFCURVE",
"364 693 OFFCURVE",
"475 899 CURVE"
);
},
{
closed = 1;
nodes = (
"421 710 OFFCURVE",
"441 666 OFFCURVE",
"441 603 CURVE SMOOTH",
"441 474 OFFCURVE",
"352 363 OFFCURVE",
"71 134 CURVE",
"126 71 LINE",
"436 308 OFFCURVE",
"527 449 OFFCURVE",
"527 603 CURVE SMOOTH",
"527 693 OFFCURVE",
"499 758 OFFCURVE",
"405 840 CURVE",
"354 773 LINE"
);
},
{
closed = 1;
nodes = (
"322 269 LINE",
"347 143 OFFCURVE",
"352 40 OFFCURVE",
"352 -51 CURVE SMOOTH",
"352 -139 OFFCURVE",
"349 -199 OFFCURVE",
"338 -284 CURVE",
"423 -293 LINE",
"434 -204 OFFCURVE",
"438 -126 OFFCURVE",
"438 -39 CURVE SMOOTH",
"438 68 OFFCURVE",
"427 190 OFFCURVE",
"392 347 CURVE"
);
}
);
vertOrigin = 90;
vertWidth = 1312;
width = 557;
}
);
unicode = 1B179;
},
{
glyphname = u1B17A;
lastChange = "2020-03-23 17:05:42 +0000";
layers = (
{
guideLines = (
{
angle = 90;
locked = 1;
position = "{325, 490}";
}
);
layerId = "CFFEBDE4-599A-46B2-9328-D96E42CD9C81";
paths = (
{
closed = 1;
nodes = (
"288 338 LINE",
"306 213 OFFCURVE",
"312 118 OFFCURVE",
"312 31 CURVE SMOOTH",
"312 -75 OFFCURVE",
"304 -174 OFFCURVE",
"284 -283 CURVE",
"368 -293 LINE",
"389 -176 OFFCURVE",
"396 -76 OFFCURVE",
"396 41 CURVE SMOOTH",
"396 124 OFFCURVE",
"390 225 OFFCURVE",
"364 350 CURVE"
);
},
{
closed = 1;
nodes = (
"375 939 LINE",
"328 685 OFFCURVE",
"233 461 OFFCURVE",
"58 217 CURVE",
"129 172 LINE",
"303 416 OFFCURVE",
"406 652 OFFCURVE",
"458 927 CURVE"
);
},
{
closed = 1;
nodes = (
"211 583 OFFCURVE",
"364 468 OFFCURVE",
"507 321 CURVE",
"565 384 LINE",
"406 542 OFFCURVE",
"266 641 OFFCURVE",
"69 742 CURVE",
"30 668 LINE"
);
}
);
vertOrigin = 90;
vertWidth = 1312;
width = 595;
}
);
unicode = 1B17A;
},
{
glyphname = u1B17B;
lastChange = "2020-03-23 17:05:51 +0000";
layers = (
{
layerId = "CFFEBDE4-599A-46B2-9328-D96E42CD9C81";
paths = (
{
closed = 1;
nodes = (
"357 939 LINE",
"306 714 OFFCURVE",
"188 485 OFFCURVE",
"30 284 CURVE",
"94 236 LINE",
"249 434 OFFCURVE",
"375 675 OFFCURVE",
"437 922 CURVE"
);
},
{
closed = 1;
nodes = (
"31 786 LINE",
"251 478 OFFCURVE",
"402 95 OFFCURVE",
"456 -293 CURVE",
"536 -275 LINE",
"482 152 OFFCURVE",
"306 536 OFFCURVE",
"97 831 CURVE"
);
},
{
closed = 1;
nodes = (
"328 274 LINE",
"265 123 OFFCURVE",
"184 -4 OFFCURVE",
"82 -135 CURVE",
"148 -184 LINE",
"245 -60 OFFCURVE",
"321 60 OFFCURVE",
"383 236 CURVE"
);
}
);
vertOrigin = 90;
vertWidth = 1312;
width = 556;
}
);
unicode = 1B17B;
},
{
glyphname = u1B17C;
lastChange = "2020-03-23 17:07:38 +0000";
layers = (
{
layerId = "CFFEBDE4-599A-46B2-9328-D96E42CD9C81";
paths = (
{
closed = 1;
nodes = (
"20 451 LINE",
"135 303 OFFCURVE",
"266 85 OFFCURVE",
"374 -150 CURVE",
"446 -108 LINE",
"332 135 OFFCURVE",
"195 363 OFFCURVE",
"69 529 CURVE",
"79 455 LINE",
"156 596 OFFCURVE",
"218 749 OFFCURVE",
"268 925 CURVE",
"185 939 LINE",
"136 771 OFFCURVE",
"81 642 OFFCURVE",
"20 522 CURVE"
);
},
{
closed = 1;
nodes = (
"232 692 OFFCURVE",
"271 612 OFFCURVE",
"271 482 CURVE SMOOTH",
"271 298 OFFCURVE",
"184 61 OFFCURVE",
"23 -256 CURVE",
"96 -293 LINE",
"262 20 OFFCURVE",
"357 288 OFFCURVE",
"357 482 CURVE SMOOTH",
"357 631 OFFCURVE",
"312 723 OFFCURVE",
"212 863 CURVE",
"177 770 LINE"
);
}
);
vertOrigin = 90;
vertWidth = 1312;
width = 466;
}
);
unicode = 1B17C;
},
{
glyphname = u1B17D;
lastChange = "2020-03-23 17:07:29 +0000";
layers = (
{
layerId = "CFFEBDE4-599A-46B2-9328-D96E42CD9C81";
paths = (
{
closed = 1;
nodes = (
"268 383 LINE",
"282 245 OFFCURVE",
"285 149 OFFCURVE",
"285 37 CURVE SMOOTH",
"285 -80 OFFCURVE",
"268 -178 OFFCURVE",
"244 -278 CURVE",
"330 -293 LINE",
"359 -184 OFFCURVE",
"371 -84 OFFCURVE",
"371 49 CURVE SMOOTH",
"371 193 OFFCURVE",
"355 318 OFFCURVE",
"294 550 CURVE"
);
},
{
closed = 1;
nodes = (
"248 852 OFFCURVE",
"251 793 OFFCURVE",
"251 713 CURVE SMOOTH",
"251 420 OFFCURVE",
"159 232 OFFCURVE",
"10 40 CURVE",
"72 -10 LINE",
"239 192 OFFCURVE",
"337 401 OFFCURVE",
"337 732 CURVE SMOOTH",
"337 807 OFFCURVE",
"333 868 OFFCURVE",
"323 939 CURVE",
"239 929 LINE"
);
},
{
closed = 1;
nodes = (
"558 99 OFFCURVE",
"581 116 OFFCURVE",
"581 155 CURVE SMOOTH",
"581 194 OFFCURVE",
"558 211 OFFCURVE",
"530 211 CURVE SMOOTH",
"501 211 OFFCURVE",
"478 194 OFFCURVE",
"478 155 CURVE SMOOTH",
"478 116 OFFCURVE",
"501 99 OFFCURVE",
"530 99 CURVE SMOOTH"
);
}
);
vertOrigin = 90;
vertWidth = 1312;
width = 611;
}
);
unicode = 1B17D;
},
{
glyphname = u1B17E;
lastChange = "2020-03-23 17:07:24 +0000";
layers = (
{
layerId = "CFFEBDE4-599A-46B2-9328-D96E42CD9C81";
paths = (
{
closed = 1;
nodes = (
"294 939 LINE",
"235 765 OFFCURVE",
"165 639 OFFCURVE",
"57 520 CURVE",
"97 371 OFFCURVE",
"108 254 OFFCURVE",
"108 135 CURVE SMOOTH",
"108 -3 OFFCURVE",
"86 -128 OFFCURVE",
"40 -269 CURVE",
"116 -293 LINE",
"162 -143 OFFCURVE",
"188 -24 OFFCURVE",
"188 145 CURVE SMOOTH",
"188 271 OFFCURVE",
"173 388 OFFCURVE",
"135 538 CURVE",
"130 478 LINE",
"234 592 OFFCURVE",
"312 734 OFFCURVE",
"374 916 CURVE"
);
},
{
closed = 1;
nodes = (
"455 243 LINE",
"436 459 OFFCURVE",
"387 602 OFFCURVE",
"290 777 CURVE",
"247 673 LINE",
"318 540 OFFCURVE",
"352 416 OFFCURVE",
"370 234 CURVE"
);
}
);
vertOrigin = 90;
vertWidth = 1312;
width = 495;
}
);
unicode = 1B17E;
},
{
glyphname = u1B17F;
lastChange = "2020-03-23 17:07:19 +0000";
layers = (
{
layerId = "CFFEBDE4-599A-46B2-9328-D96E42CD9C81";
paths = (
{
closed = 1;
nodes = (
"290 932 LINE",
"298 838 OFFCURVE",
"302 762 OFFCURVE",
"302 649 CURVE SMOOTH",
"302 191 OFFCURVE",
"237 -25 OFFCURVE",
"60 -239 CURVE",
"120 -293 LINE",
"311 -62 OFFCURVE",
"388 180 OFFCURVE",
"388 653 CURVE SMOOTH",
"388 770 OFFCURVE",
"383 851 OFFCURVE",
"375 939 CURVE"
);
},
{
closed = 1;
nodes = (
"130 214 OFFCURVE",
"153 231 OFFCURVE",
"153 270 CURVE SMOOTH",
"153 309 OFFCURVE",
"130 326 OFFCURVE",
"102 326 CURVE SMOOTH",
"73 326 OFFCURVE",
"50 309 OFFCURVE",
"50 270 CURVE SMOOTH",
"50 231 OFFCURVE",
"73 214 OFFCURVE",
"102 214 CURVE SMOOTH"
);
},
{
closed = 1;
nodes = (
"527 -28 OFFCURVE",
"550 -11 OFFCURVE",
"550 28 CURVE SMOOTH",
"550 67 OFFCURVE",
"527 84 OFFCURVE",
"499 84 CURVE SMOOTH",
"470 84 OFFCURVE",
"447 67 OFFCURVE",
"447 28 CURVE SMOOTH",
"447 -11 OFFCURVE",
"470 -28 OFFCURVE",
"499 -28 CURVE SMOOTH"
);
}
);
vertOrigin = 90;
vertWidth = 1312;
width = 600;
}
);
unicode = 1B17F;
},
{
glyphname = u1B180;
lastChange = "2020-03-23 17:00:55 +0000";
layers = (
{
layerId = "CFFEBDE4-599A-46B2-9328-D96E42CD9C81";
paths = (
{
closed = 1;
nodes = (
"414 939 LINE",
"320 606 OFFCURVE",
"209 344 OFFCURVE",
"20 112 CURVE",
"84 59 LINE",
"273 287 OFFCURVE",
"403 586 OFFCURVE",
"496 915 CURVE"
);
},
{
closed = 1;
nodes = (
"523 337 LINE",
"427 120 OFFCURVE",
"313 -79 OFFCURVE",
"169 -242 CURVE",
"234 -293 LINE",
"393 -104 OFFCURVE",
"494 66 OFFCURVE",
"600 299 CURVE"
);
},
{
closed = 1;
nodes = (
"419 -17 LINE",
"336 279 OFFCURVE",
"269 497 OFFCURVE",
"141 758 CURVE",
"64 716 LINE",
"187 463 OFFCURVE",
"263 235 OFFCURVE",
"340 -49 CURVE"
);
}
);
vertOrigin = 90;
vertWidth = 1312;
width = 620;
}
);
unicode = 1B180;
},
{
glyphname = u1B181;
lastChange = "2020-03-23 17:00:55 +0000";
layers = (
{
layerId = "CFFEBDE4-599A-46B2-9328-D96E42CD9C81";
paths = (
{
closed = 1;
nodes = (
"56 289 LINE",
"199 99 OFFCURVE",
"290 -70 OFFCURVE",
"351 -293 CURVE",
"434 -270 LINE",
"367 -29 OFFCURVE",
"271 145 OFFCURVE",
"123 360 CURVE",
"125 289 LINE",
"253 500 OFFCURVE",
"336 679 OFFCURVE",
"384 919 CURVE",
"300 939 LINE",
"256 714 OFFCURVE",
"166 533 OFFCURVE",
"56 360 CURVE"
);
},
{
closed = 1;
nodes = (
"262 578 OFFCURVE",
"294 420 OFFCURVE",
"294 343 CURVE SMOOTH",
"294 193 OFFCURVE",
"216 38 OFFCURVE",
"51 -158 CURVE",
"113 -207 LINE",
"280 -19 OFFCURVE",
"378 165 OFFCURVE",
"378 343 CURVE SMOOTH",
"378 470 OFFCURVE",
"320 637 OFFCURVE",
"85 816 CURVE",
"30 750 LINE"
);
}
);
vertOrigin = 90;
vertWidth = 1312;
width = 464;
}
);
unicode = 1B181;
},
{
glyphname = u1B182;
lastChange = "2020-03-23 17:07:07 +0000";
layers = (
{
layerId = "CFFEBDE4-599A-46B2-9328-D96E42CD9C81";
paths = (
{
closed = 1;
nodes = (
"176 387 LINE",
"256 535 OFFCURVE",
"309 682 OFFCURVE",
"369 925 CURVE",
"289 939 LINE",
"237 714 OFFCURVE",
"189 572 OFFCURVE",
"128 457 CURVE"
);
},
{
closed = 1;
nodes = (
"320 659 OFFCURVE",
"342 574 OFFCURVE",
"342 487 CURVE SMOOTH",
"342 281 OFFCURVE",
"263 88 OFFCURVE",
"48 -245 CURVE",
"113 -293 LINE",
"343 59 OFFCURVE",
"426 284 OFFCURVE",
"426 482 CURVE SMOOTH",
"426 600 OFFCURVE",
"391 696 OFFCURVE",
"329 807 CURVE",
"271 770 LINE"
);
},
{
closed = 1;
nodes = (
"35 482 LINE",
"198 248 OFFCURVE",
"299 43 OFFCURVE",
"388 -193 CURVE",
"464 -164 LINE",
"369 86 OFFCURVE",
"265 291 OFFCURVE",
"95 531 CURVE"
);
}
);
vertOrigin = 90;
vertWidth = 1312;
width = 514;
}
);
unicode = 1B182;
},
{
glyphname = u1B183;
lastChange = "2020-03-23 17:00:55 +0000";
layers = (
{
background = {
paths = (
{
closed = 1;
nodes = (
"414 939 LINE",
"320 606 OFFCURVE",
"209 344 OFFCURVE",
"20 112 CURVE",
"84 59 LINE",
"273 287 OFFCURVE",
"403 586 OFFCURVE",
"496 915 CURVE"
);
},
{
closed = 1;
nodes = (
"523 337 LINE",
"427 120 OFFCURVE",
"313 -79 OFFCURVE",
"169 -242 CURVE",
"234 -293 LINE",
"393 -104 OFFCURVE",
"494 66 OFFCURVE",
"600 299 CURVE"
);
},
{
closed = 1;
nodes = (
"419 -17 LINE",
"336 279 OFFCURVE",
"269 497 OFFCURVE",
"141 758 CURVE",
"64 716 LINE",
"187 463 OFFCURVE",
"263 235 OFFCURVE",
"340 -49 CURVE"
);
}
);
};
layerId = "CFFEBDE4-599A-46B2-9328-D96E42CD9C81";
paths = (
{
closed = 1;
nodes = (
"207 398 LINE",
"260 240 OFFCURVE",
"302 105 OFFCURVE",
"335 -53 CURVE",
"414 -22 LINE",
"378 144 OFFCURVE",
"334 294 OFFCURVE",
"272 466 CURVE"
);
},
{
closed = 1;
nodes = (
"401 939 LINE",
"307 633 OFFCURVE",
"209 374 OFFCURVE",
"20 142 CURVE",
"84 89 LINE",
"273 317 OFFCURVE",
"393 613 OFFCURVE",
"486 911 CURVE"
);
},
{
closed = 1;
nodes = (
"522 339 LINE",
"426 122 OFFCURVE",
"313 -79 OFFCURVE",
"169 -242 CURVE",
"234 -293 LINE",
"393 -104 OFFCURVE",
"493 68 OFFCURVE",
"599 301 CURVE"
);
}
);
vertOrigin = 90;
vertWidth = 1312;
width = 619;
}
);
unicode = 1B183;
},
{
glyphname = u1B184;
lastChange = "2020-03-23 17:06:59 +0000";
layers = (
{
layerId = "CFFEBDE4-599A-46B2-9328-D96E42CD9C81";
paths = (
{
closed = 1;
nodes = (
"253 -132 OFFCURVE",
"276 -115 OFFCURVE",
"276 -76 CURVE SMOOTH",
"276 -37 OFFCURVE",
"253 -20 OFFCURVE",
"225 -20 CURVE SMOOTH",
"196 -20 OFFCURVE",
"173 -37 OFFCURVE",
"173 -76 CURVE SMOOTH",
"173 -115 OFFCURVE",
"196 -132 OFFCURVE",
"225 -132 CURVE SMOOTH"
);
},
{
closed = 1;
nodes = (
"268 383 LINE",
"352 247 OFFCURVE",
"387 123 OFFCURVE",
"387 -19 CURVE SMOOTH",
"387 -106 OFFCURVE",
"377 -177 OFFCURVE",
"357 -277 CURVE",
"440 -293 LINE",
"465 -184 OFFCURVE",
"473 -110 OFFCURVE",
"473 -26 CURVE SMOOTH",
"473 167 OFFCURVE",
"419 322 OFFCURVE",
"284 525 CURVE"
);
},
{
closed = 1;
nodes = (
"238 832 OFFCURVE",
"244 751 OFFCURVE",
"244 639 CURVE SMOOTH",
"244 402 OFFCURVE",
"171 232 OFFCURVE",
"10 40 CURVE",
"72 -10 LINE",
"251 192 OFFCURVE",
"330 383 OFFCURVE",
"330 652 CURVE SMOOTH",
"330 765 OFFCURVE",
"320 855 OFFCURVE",
"308 939 CURVE",
"224 930 LINE"
);
}
);
vertOrigin = 90;
vertWidth = 1312;
width = 523;
}
);
unicode = 1B184;
},
{
glyphname = u1B185;
lastChange = "2020-03-23 17:06:20 +0000";
layers = (
{
layerId = "CFFEBDE4-599A-46B2-9328-D96E42CD9C81";
paths = (
{
closed = 1;
nodes = (
"283 447 LINE",
"303 301 OFFCURVE",
"309 201 OFFCURVE",
"309 61 CURVE SMOOTH",
"309 -87 OFFCURVE",
"301 -174 OFFCURVE",
"281 -283 CURVE",
"365 -293 LINE",
"386 -176 OFFCURVE",
"393 -88 OFFCURVE",
"393 61 CURVE SMOOTH",
"393 207 OFFCURVE",
"384 323 OFFCURVE",
"365 457 CURVE"
);
},
{
closed = 1;
nodes = (
"280 939 LINE",
"219 678 OFFCURVE",
"142 514 OFFCURVE",
"20 329 CURVE",
"92 284 LINE",
"216 458 OFFCURVE",
"306 655 OFFCURVE",
"365 924 CURVE"
);
},
{
closed = 1;
nodes = (
"293 785 LINE",
"379 642 OFFCURVE",
"455 512 OFFCURVE",
"536 317 CURVE",
"620 357 LINE",
"518 584 OFFCURVE",
"443 707 OFFCURVE",
"333 854 CURVE"
);
}
);
vertOrigin = 90;
vertWidth = 1312;
width = 640;
}
);
unicode = 1B185;
},
{
glyphname = u1B186;
lastChange = "2020-03-23 17:06:13 +0000";
layers = (
{
background = {
paths = (
{
closed = 1;
nodes = (
"297 939 LINE",
"238 765 OFFCURVE",
"168 639 OFFCURVE",
"60 520 CURVE",
"100 371 OFFCURVE",
"111 254 OFFCURVE",
"111 135 CURVE SMOOTH",
"111 -3 OFFCURVE",
"89 -128 OFFCURVE",
"43 -269 CURVE",
"119 -293 LINE",
"165 -143 OFFCURVE",
"191 -24 OFFCURVE",
"191 145 CURVE SMOOTH",
"191 271 OFFCURVE",
"176 388 OFFCURVE",
"138 538 CURVE",
"133 478 LINE",
"237 592 OFFCURVE",
"315 734 OFFCURVE",
"377 916 CURVE"
);
},
{
closed = 1;
nodes = (
"437 216 LINE",
"426 432 OFFCURVE",
"377 602 OFFCURVE",
"293 777 CURVE",
"250 673 LINE",
"308 540 OFFCURVE",
"343 386 OFFCURVE",
"353 204 CURVE"
);
}
);
};
layerId = "CFFEBDE4-599A-46B2-9328-D96E42CD9C81";
paths = (
{
closed = 1;
nodes = (
"102 447 OFFCURVE",
"131 284 OFFCURVE",
"131 107 CURVE SMOOTH",
"131 -30 OFFCURVE",
"115 -141 OFFCURVE",
"81 -275 CURVE",
"165 -293 LINE",
"199 -160 OFFCURVE",
"215 -44 OFFCURVE",
"215 119 CURVE SMOOTH",
"215 304 OFFCURVE",
"191 467 OFFCURVE",
"133 665 CURVE",
"50 641 LINE"
);
},
{
closed = 1;
nodes = (
"322 634 OFFCURVE",
"261 475 OFFCURVE",
"151 316 CURVE",
"186 231 LINE",
"331 427 OFFCURVE",
"398 577 OFFCURVE",
"448 927 CURVE",
"364 939 LINE"
);
},
{
closed = 1;
nodes = (
"314 539 LINE",
"363 403 OFFCURVE",
"394 264 OFFCURVE",
"413 94 CURVE",
"500 106 LINE",
"483 303 OFFCURVE",
"440 450 OFFCURVE",
"369 603 CURVE"
);
}
);
vertOrigin = 90;
vertWidth = 1312;
width = 550;
}
);
unicode = 1B186;
},
{
glyphname = u1B187;
lastChange = "2020-03-23 17:05:58 +0000";
layers = (
{
layerId = "CFFEBDE4-599A-46B2-9328-D96E42CD9C81";
paths = (
{
closed = 1;
nodes = (
"383 -293 LINE",
"401 -184 OFFCURVE",
"411 -86 OFFCURVE",
"411 30 CURVE SMOOTH",
"411 352 OFFCURVE",
"334 584 OFFCURVE",
"161 839 CURVE",
"94 788 LINE",
"266 537 OFFCURVE",
"325 344 OFFCURVE",
"325 30 CURVE SMOOTH",
"325 -82 OFFCURVE",
"317 -176 OFFCURVE",
"297 -285 CURVE"
);
},
{
closed = 1;
nodes = (
"432 939 LINE",
"324 709 OFFCURVE",
"201 536 OFFCURVE",
"10 335 CURVE",
"69 283 LINE",
"280 503 OFFCURVE",
"391 658 OFFCURVE",
"509 908 CURVE"
);
},
{
closed = 1;
nodes = (
"536 596 LINE",
"415 400 OFFCURVE",
"287 237 OFFCURVE",
"86 67 CURVE",
"140 11 LINE",
"337 178 OFFCURVE",
"477 354 OFFCURVE",
"603 559 CURVE"
);
}
);
vertOrigin = 90;
vertWidth = 1312;
width = 613;
}
);
unicode = 1B187;
},
{
glyphname = u1B188;
lastChange = "2020-03-23 17:07:46 +0000";
layers = (
{
background = {
paths = (
{
closed = 1;
nodes = (
"520 1074 LINE",
"525 990 OFFCURVE",
"527 912 OFFCURVE",
"527 839 CURVE SMOOTH",
"527 168 OFFCURVE",
"423 -69 OFFCURVE",
"185 -268 CURVE",
"240 -325 LINE",
"492 -109 OFFCURVE",
"613 157 OFFCURVE",
"613 843 CURVE SMOOTH",
"613 917 OFFCURVE",
"609 1001 OFFCURVE",
"604 1079 CURVE"
);
}
);
};
layerId = "CFFEBDE4-599A-46B2-9328-D96E42CD9C81";
paths = (
{
closed = 1;
nodes = (
"613 939 LINE",
"592 440 OFFCURVE",
"505 76 OFFCURVE",
"325 -208 CURVE",
"382 -218 LINE",
"357 -4 OFFCURVE",
"319 174 OFFCURVE",
"255 355 CURVE",
"168 329 LINE",
"229 147 OFFCURVE",
"268 -19 OFFCURVE",
"297 -230 CURVE",
"397 -253 LINE",
"575 24 OFFCURVE",
"682 382 OFFCURVE",
"703 931 CURVE"
);
},
{
closed = 1;
nodes = (
"110 -101 OFFCURVE",
"133 -84 OFFCURVE",
"133 -45 CURVE SMOOTH",
"133 -6 OFFCURVE",
"110 11 OFFCURVE",
"82 11 CURVE SMOOTH",
"53 11 OFFCURVE",
"30 -6 OFFCURVE",
"30 -45 CURVE SMOOTH",
"30 -84 OFFCURVE",
"53 -101 OFFCURVE",
"82 -101 CURVE SMOOTH"
);
}
);
vertOrigin = 90;
vertWidth = 1312;
width = 753;
}
);
unicode = 1B188;
},
{
glyphname = u1B189;
lastChange = "2020-03-23 17:00:55 +0000";
layers = (
{
layerId = "CFFEBDE4-599A-46B2-9328-D96E42CD9C81";
paths = (
{
closed = 1;
nodes = (
"209 597 LINE",
"285 421 OFFCURVE",
"332 202 OFFCURVE",
"332 17 CURVE SMOOTH",
"332 -98 OFFCURVE",
"325 -191 OFFCURVE",
"310 -284 CURVE",
"389 -293 LINE",
"403 -198 OFFCURVE",
"412 -100 OFFCURVE",
"412 27 CURVE SMOOTH",
"412 233 OFFCURVE",
"360 458 OFFCURVE",
"261 665 CURVE"
);
},
{
closed = 1;
nodes = (
"377 939 LINE",
"283 732 OFFCURVE",
"153 545 OFFCURVE",
"0 396 CURVE",
"57 344 LINE",
"214 495 OFFCURVE",
"346 674 OFFCURVE",
"451 912 CURVE"
);
},
{
closed = 1;
nodes = (
"509 649 LINE",
"394 446 OFFCURVE",
"262 286 OFFCURVE",
"65 115 CURVE",
"116 58 LINE",
"316 226 OFFCURVE",
"451 387 OFFCURVE",
"582 607 CURVE"
);
}
);
vertOrigin = 90;
vertWidth = 1312;
width = 556;
}
);
unicode = 1B189;
},
{
glyphname = u1B18A;
lastChange = "2020-03-23 17:07:56 +0000";
layers = (
{
background = {
paths = (
{
closed = 1;
nodes = (
"325 390 OFFCURVE",
"242 182 OFFCURVE",
"6 -28 CURVE",
"57 -85 LINE",
"322 139 OFFCURVE",
"411 395 OFFCURVE",
"411 797 CURVE SMOOTH",
"411 899 OFFCURVE",
"408 991 OFFCURVE",
"402 1079 CURVE",
"318 1074 LINE",
"323 986 OFFCURVE",
"325 895 OFFCURVE",
"325 809 CURVE SMOOTH"
);
},
{
closed = 1;
nodes = (
"435 201 LINE",
"357 17 OFFCURVE",
"237 -139 OFFCURVE",
"75 -266 CURVE",
"126 -325 LINE",
"301 -183 OFFCURVE",
"419 -32 OFFCURVE",
"507 166 CURVE"
);
}
);
};
layerId = "CFFEBDE4-599A-46B2-9328-D96E42CD9C81";
paths = (
{
closed = 1;
nodes = (
"292 855 OFFCURVE",
"295 785 OFFCURVE",
"295 697 CURVE SMOOTH",
"295 418 OFFCURVE",
"196 256 OFFCURVE",
"10 105 CURVE",
"59 43 LINE",
"258 197 OFFCURVE",
"380 405 OFFCURVE",
"380 697 CURVE SMOOTH",
"380 800 OFFCURVE",
"377 861 OFFCURVE",
"366 939 CURVE",
"283 934 LINE"
);
},
{
closed = 1;
nodes = (
"381 276 LINE",
"294 125 OFFCURVE",
"206 30 OFFCURVE",
"67 -69 CURVE",
"110 -132 LINE",
"254 -30 OFFCURVE",
"349 73 OFFCURVE",
"446 236 CURVE"
);
},
{
closed = 1;
nodes = (
"459 84 LINE",
"370 -46 OFFCURVE",
"263 -151 OFFCURVE",
"133 -232 CURVE",
"176 -293 LINE",
"307 -211 OFFCURVE",
"423 -103 OFFCURVE",
"519 38 CURVE"
);
}
);
vertOrigin = 90;
vertWidth = 1312;
width = 554;
}
);
unicode = 1B18A;
},
{
glyphname = u1B18B;
lastChange = "2020-03-23 17:08:04 +0000";
layers = (
{
layerId = "CFFEBDE4-599A-46B2-9328-D96E42CD9C81";
paths = (
{
closed = 1;
nodes = (
"410 709 LINE",
"380 577 OFFCURVE",
"336 482 OFFCURVE",
"263 392 CURVE",
"305 274 OFFCURVE",
"316 177 OFFCURVE",
"316 75 CURVE SMOOTH",
"316 16 OFFCURVE",
"313 -46 OFFCURVE",
"309 -84 CURVE",
"389 -90 LINE",
"396 -39 OFFCURVE",
"399 22 OFFCURVE",
"399 81 CURVE SMOOTH",
"399 186 OFFCURVE",
"380 296 OFFCURVE",
"343 406 CURVE",
"338 347 LINE",
"411 442 OFFCURVE",
"460 549 OFFCURVE",
"490 691 CURVE"
);
},
{
closed = 1;
nodes = (
"249 939 LINE",
"214 748 OFFCURVE",
"152 587 OFFCURVE",
"40 435 CURVE",
"81 274 OFFCURVE",
"97 167 OFFCURVE",
"97 51 CURVE SMOOTH",
"97 -73 OFFCURVE",
"74 -175 OFFCURVE",
"42 -274 CURVE",
"122 -293 LINE",
"160 -177 OFFCURVE",
"177 -80 OFFCURVE",
"177 58 CURVE SMOOTH",
"177 180 OFFCURVE",
"158 304 OFFCURVE",
"114 452 CURVE",
"119 397 LINE",
"227 558 OFFCURVE",
"293 717 OFFCURVE",
"331 925 CURVE"
);
}
);
vertOrigin = 90;
vertWidth = 1312;
width = 530;
}
);
unicode = 1B18B;
},
{
glyphname = u1B18C;
lastChange = "2020-03-23 17:08:14 +0000";
layers = (
{
layerId = "CFFEBDE4-599A-46B2-9328-D96E42CD9C81";
paths = (
{
closed = 1;
nodes = (
"197 373 OFFCURVE",
"225 235 OFFCURVE",
"225 106 CURVE SMOOTH",
"225 -32 OFFCURVE",
"197 -129 OFFCURVE",
"115 -254 CURVE",
"179 -293 LINE",
"272 -164 OFFCURVE",
"309 -32 OFFCURVE",
"309 118 CURVE SMOOTH",
"309 244 OFFCURVE",
"274 397 OFFCURVE",
"184 576 CURVE",
"111 535 LINE"
);
},
{
closed = 1;
nodes = (
"466 280 OFFCURVE",
"414 429 OFFCURVE",
"414 632 CURVE SMOOTH",
"414 714 OFFCURVE",
"431 810 OFFCURVE",
"462 918 CURVE",
"384 939 LINE",
"351 833 OFFCURVE",
"330 732 OFFCURVE",
"330 635 CURVE SMOOTH",
"330 414 OFFCURVE",
"400 231 OFFCURVE",
"529 87 CURVE",
"593 138 LINE"
);
},
{
closed = 1;
nodes = (
"602 558 OFFCURVE",
"625 575 OFFCURVE",
"625 614 CURVE SMOOTH",
"625 653 OFFCURVE",
"602 670 OFFCURVE",
"574 670 CURVE SMOOTH",
"545 670 OFFCURVE",
"522 653 OFFCURVE",
"522 614 CURVE SMOOTH",
"522 575 OFFCURVE",
"545 558 OFFCURVE",
"574 558 CURVE SMOOTH"
);
},
{
closed = 1;
nodes = (
"100 66 OFFCURVE",
"123 83 OFFCURVE",
"123 122 CURVE SMOOTH",
"123 161 OFFCURVE",
"100 178 OFFCURVE",
"72 178 CURVE SMOOTH",
"43 178 OFFCURVE",
"20 161 OFFCURVE",
"20 122 CURVE SMOOTH",
"20 83 OFFCURVE",
"43 66 OFFCURVE",
"72 66 CURVE SMOOTH"
);
}
);
vertOrigin = 90;
vertWidth = 1312;
width = 645;
}
);
unicode = 1B18C;
},
{
glyphname = u1B18D;
lastChange = "2020-03-23 17:08:24 +0000";
layers = (
{
layerId = "CFFEBDE4-599A-46B2-9328-D96E42CD9C81";
paths = (
{
closed = 1;
nodes = (
"388 245 LINE",
"376 332 OFFCURVE",
"362 382 OFFCURVE",
"336 449 CURVE",
"262 419 LINE",
"293 344 OFFCURVE",
"310 276 OFFCURVE",
"327 199 CURVE",
"440 212 LINE",
"468 287 OFFCURVE",
"487 354 OFFCURVE",
"487 453 CURVE SMOOTH",
"487 585 OFFCURVE",
"440 683 OFFCURVE",
"295 831 CURVE",
"257 765 LINE",
"372 628 OFFCURVE",
"401 546 OFFCURVE",
"401 430 CURVE SMOOTH",
"401 362 OFFCURVE",
"393 299 OFFCURVE",
"374 236 CURVE"
);
},
{
closed = 1;
nodes = (
"294 939 LINE",
"235 765 OFFCURVE",
"165 639 OFFCURVE",
"57 520 CURVE",
"97 371 OFFCURVE",
"108 254 OFFCURVE",
"108 135 CURVE SMOOTH",
"108 -3 OFFCURVE",
"86 -128 OFFCURVE",
"40 -269 CURVE",
"116 -293 LINE",
"162 -143 OFFCURVE",
"188 -24 OFFCURVE",
"188 145 CURVE SMOOTH",
"188 271 OFFCURVE",
"173 388 OFFCURVE",
"135 538 CURVE",
"130 478 LINE",
"234 592 OFFCURVE",
"312 734 OFFCURVE",
"374 916 CURVE"
);
}
);
vertOrigin = 90;
vertWidth = 1312;
width = 517;
}
);
unicode = 1B18D;
},
{
glyphname = u1B18E;
lastChange = "2020-03-23 17:08:36 +0000";
layers = (
{
layerId = "CFFEBDE4-599A-46B2-9328-D96E42CD9C81";
paths = (
{
closed = 1;
nodes = (
"331 14 LINE",
"309 -71 OFFCURVE",
"287 -144 OFFCURVE",
"245 -230 CURVE",
"317 -262 LINE",
"363 -173 OFFCURVE",
"387 -99 OFFCURVE",
"407 -5 CURVE"
);
},
{
closed = 1;
nodes = (
"407 939 LINE",
"334 705 OFFCURVE",
"209 478 OFFCURVE",
"30 264 CURVE",
"94 216 LINE",
"270 427 OFFCURVE",
"403 666 OFFCURVE",
"487 922 CURVE"
);
},
{
closed = 1;
nodes = (
"81 786 LINE",
"330 460 OFFCURVE",
"492 83 OFFCURVE",
"556 -293 CURVE",
"636 -275 LINE",
"572 140 OFFCURVE",
"385 518 OFFCURVE",
"147 831 CURVE"
);
},
{
closed = 1;
nodes = (
"348 397 LINE",
"285 246 OFFCURVE",
"194 96 OFFCURVE",
"92 -35 CURVE",
"158 -84 LINE",
"255 40 OFFCURVE",
"341 183 OFFCURVE",
"403 359 CURVE"
);
}
);
vertOrigin = 90;
vertWidth = 1312;
width = 646;
}
);
unicode = 1B18E;
},
{
glyphname = u1B18F;
lastChange = "2020-03-23 17:08:42 +0000";
layers = (
{
layerId = "CFFEBDE4-599A-46B2-9328-D96E42CD9C81";
paths = (
{
closed = 1;
nodes = (
"592 333 OFFCURVE",
"615 350 OFFCURVE",
"615 389 CURVE SMOOTH",
"615 428 OFFCURVE",
"592 445 OFFCURVE",
"564 445 CURVE SMOOTH",
"535 445 OFFCURVE",
"512 428 OFFCURVE",
"512 389 CURVE SMOOTH",
"512 350 OFFCURVE",
"535 333 OFFCURVE",
"564 333 CURVE SMOOTH"
);
},
{
closed = 1;
nodes = (
"120 205 OFFCURVE",
"143 222 OFFCURVE",
"143 261 CURVE SMOOTH",
"143 300 OFFCURVE",
"120 317 OFFCURVE",
"92 317 CURVE SMOOTH",
"63 317 OFFCURVE",
"40 300 OFFCURVE",
"40 261 CURVE SMOOTH",
"40 222 OFFCURVE",
"63 205 OFFCURVE",
"92 205 CURVE SMOOTH"
);
},
{
closed = 1;
nodes = (
"549 -132 LINE",
"451 187 OFFCURVE",
"303 463 OFFCURVE",
"98 726 CURVE",
"30 679 LINE",
"225 431 OFFCURVE",
"377 136 OFFCURVE",
"470 -163 CURVE"
);
},
{
closed = 1;
nodes = (
"417 939 LINE",
"368 525 OFFCURVE",
"232 109 OFFCURVE",
"50 -264 CURVE",
"126 -293 LINE",
"322 111 OFFCURVE",
"447 491 OFFCURVE",
"498 927 CURVE"
);
}
);
vertOrigin = 90;
vertWidth = 1312;
width = 645;
}
);
unicode = 1B18F;
},
{
glyphname = u1B190;
lastChange = "2020-03-23 17:08:52 +0000";
layers = (
{
layerId = "CFFEBDE4-599A-46B2-9328-D96E42CD9C81";
paths = (
{
closed = 1;
nodes = (
"215 -176 OFFCURVE",
"244 -232 OFFCURVE",
"318 -293 CURVE",
"389 -284 LINE",
"460 -173 OFFCURVE",
"490 -72 OFFCURVE",
"490 1 CURVE SMOOTH",
"490 70 OFFCURVE",
"444 127 OFFCURVE",
"373 190 CURVE",
"299 180 LINE",
"234 58 OFFCURVE",
"215 -19 OFFCURVE",
"215 -84 CURVE SMOOTH"
);
},
{
closed = 1;
nodes = (
"313 143 LINE",
"377 82 OFFCURVE",
"402 37 OFFCURVE",
"402 -5 CURVE SMOOTH",
"402 -63 OFFCURVE",
"377 -149 OFFCURVE",
"334 -233 CURVE",
"363 -233 LINE",
"316 -179 OFFCURVE",
"295 -140 OFFCURVE",
"295 -84 CURVE SMOOTH",
"295 -24 OFFCURVE",
"313 48 OFFCURVE",
"366 146 CURVE"
);
},
{
closed = 1;
nodes = (
"125 594 OFFCURVE",
"141 499 OFFCURVE",
"141 386 CURVE SMOOTH",
"141 259 OFFCURVE",
"106 158 OFFCURVE",
"30 50 CURVE",
"95 -2 LINE",
"189 128 OFFCURVE",
"225 239 OFFCURVE",
"225 390 CURVE SMOOTH",
"225 517 OFFCURVE",
"207 612 OFFCURVE",
"164 725 CURVE",
"85 694 LINE"
);
},
{
closed = 1;
nodes = (
"461 414 OFFCURVE",
"428 519 OFFCURVE",
"428 647 CURVE SMOOTH",
"428 745 OFFCURVE",
"439 813 OFFCURVE",
"470 913 CURVE",
"395 939 LINE",
"359 830 OFFCURVE",
"344 749 OFFCURVE",
"344 641 CURVE SMOOTH",
"344 499 OFFCURVE",
"391 357 OFFCURVE",
"499 233 CURVE",
"560 289 LINE"
);
}
);
vertOrigin = 90;
vertWidth = 1312;
width = 590;
}
);
unicode = 1B190;
},
{
glyphname = u1B191;
lastChange = "2020-03-23 17:09:07 +0000";
layers = (
{
layerId = "CFFEBDE4-599A-46B2-9328-D96E42CD9C81";
paths = (
{
closed = 1;
nodes = (
"584 304 LINE",
"460 158 OFFCURVE",
"294 8 OFFCURVE",
"152 -88 CURVE",
"199 -158 LINE",
"350 -55 OFFCURVE",
"504 84 OFFCURVE",
"646 242 CURVE"
);
},
{
closed = 1;
nodes = (
"421 939 LINE",
"301 749 OFFCURVE",
"178 611 OFFCURVE",
"10 459 CURVE",
"63 396 LINE",
"237 546 OFFCURVE",
"368 693 OFFCURVE",
"495 899 CURVE"
);
},
{
closed = 1;
nodes = (
"435 721 OFFCURVE",
"461 676 OFFCURVE",
"461 613 CURVE SMOOTH",
"461 484 OFFCURVE",
"362 383 OFFCURVE",
"81 154 CURVE",
"136 91 LINE",
"446 328 OFFCURVE",
"547 459 OFFCURVE",
"547 627 CURVE SMOOTH",
"547 703 OFFCURVE",
"512 770 OFFCURVE",
"425 840 CURVE",
"374 773 LINE"
);
},
{
closed = 1;
nodes = (
"319 279 LINE",
"359 121 OFFCURVE",
"373 8 OFFCURVE",
"373 -82 CURVE SMOOTH",
"373 -139 OFFCURVE",
"370 -199 OFFCURVE",
"359 -284 CURVE",
"444 -293 LINE",
"455 -204 OFFCURVE",
"459 -126 OFFCURVE",
"459 -70 CURVE SMOOTH",
"459 36 OFFCURVE",
"442 158 OFFCURVE",
"392 347 CURVE"
);
}
);
vertOrigin = 90;
vertWidth = 1312;
width = 666;
}
);
unicode = 1B191;
},
{
glyphname = u1B192;
lastChange = "2020-03-23 17:09:16 +0000";
layers = (
{
background = {
paths = (
{
closed = 1;
nodes = (
"334 939 LINE",
"275 765 OFFCURVE",
"205 639 OFFCURVE",
"97 520 CURVE",
"137 371 OFFCURVE",
"148 254 OFFCURVE",
"148 135 CURVE SMOOTH",
"148 -3 OFFCURVE",
"126 -128 OFFCURVE",
"80 -269 CURVE",
"156 -293 LINE",
"202 -143 OFFCURVE",
"228 -24 OFFCURVE",
"228 145 CURVE SMOOTH",
"228 271 OFFCURVE",
"213 388 OFFCURVE",
"175 538 CURVE",
"170 478 LINE",
"274 592 OFFCURVE",
"352 734 OFFCURVE",
"414 916 CURVE"
);
},
{
closed = 1;
nodes = (
"495 243 LINE",
"476 459 OFFCURVE",
"427 602 OFFCURVE",
"330 777 CURVE",
"287 673 LINE",
"358 540 OFFCURVE",
"392 416 OFFCURVE",
"410 234 CURVE"
);
}
);
};
layerId = "CFFEBDE4-599A-46B2-9328-D96E42CD9C81";
paths = (
{
closed = 1;
nodes = (
"394 939 LINE",
"335 765 OFFCURVE",
"265 639 OFFCURVE",
"157 520 CURVE",
"228 347 OFFCURVE",
"248 225 OFFCURVE",
"248 105 CURVE SMOOTH",
"248 -47 OFFCURVE",
"214 -138 OFFCURVE",
"148 -256 CURVE",
"216 -293 LINE",
"291 -166 OFFCURVE",
"328 -56 OFFCURVE",
"328 105 CURVE SMOOTH",
"328 242 OFFCURVE",
"298 376 OFFCURVE",
"235 538 CURVE",
"230 478 LINE",
"334 592 OFFCURVE",
"412 734 OFFCURVE",
"474 916 CURVE"
);
},
{
closed = 1;
nodes = (
"110 51 OFFCURVE",
"133 68 OFFCURVE",
"133 107 CURVE SMOOTH",
"133 146 OFFCURVE",
"110 163 OFFCURVE",
"82 163 CURVE SMOOTH",
"53 163 OFFCURVE",
"30 146 OFFCURVE",
"30 107 CURVE SMOOTH",
"30 68 OFFCURVE",
"53 51 OFFCURVE",
"82 51 CURVE SMOOTH"
);
},
{
closed = 1;
nodes = (
"577 249 LINE",
"546 457 OFFCURVE",
"487 602 OFFCURVE",
"390 777 CURVE",
"347 673 LINE",
"418 540 OFFCURVE",
"459 416 OFFCURVE",
"490 234 CURVE"
);
}
);
vertOrigin = 90;
vertWidth = 1312;
width = 587;
}
);
unicode = 1B192;
},
{
glyphname = u1B193;
lastChange = "2020-03-23 17:09:27 +0000";
layers = (
{
layerId = "CFFEBDE4-599A-46B2-9328-D96E42CD9C81";
paths = (
{
closed = 1;
nodes = (
"633 939 LINE",
"612 440 OFFCURVE",
"505 76 OFFCURVE",
"325 -208 CURVE",
"382 -218 LINE",
"339 -21 OFFCURVE",
"295 127 OFFCURVE",
"213 295 CURVE",
"128 259 LINE",
"207 90 OFFCURVE",
"250 -36 OFFCURVE",
"297 -230 CURVE",
"397 -253 LINE",
"575 24 OFFCURVE",
"702 382 OFFCURVE",
"723 931 CURVE"
);
},
{
closed = 1;
nodes = (
"110 -101 OFFCURVE",
"133 -84 OFFCURVE",
"133 -45 CURVE SMOOTH",
"133 -6 OFFCURVE",
"110 11 OFFCURVE",
"82 11 CURVE SMOOTH",
"53 11 OFFCURVE",
"30 -6 OFFCURVE",
"30 -45 CURVE SMOOTH",
"30 -84 OFFCURVE",
"53 -101 OFFCURVE",
"82 -101 CURVE SMOOTH"
);
},
{
closed = 1;
nodes = (
"409 319 OFFCURVE",
"432 336 OFFCURVE",
"432 375 CURVE SMOOTH",
"432 414 OFFCURVE",
"409 431 OFFCURVE",
"381 431 CURVE SMOOTH",
"352 431 OFFCURVE",
"329 414 OFFCURVE",
"329 375 CURVE SMOOTH",
"329 336 OFFCURVE",
"352 319 OFFCURVE",
"381 319 CURVE SMOOTH"
);
}
);
vertOrigin = 90;
vertWidth = 1312;
width = 773;
}
);
unicode = 1B193;
},
{
glyphname = u1B194;
lastChange = "2020-03-23 17:09:37 +0000";
layers = (
{
background = {
paths = (
{
closed = 1;
nodes = (
"239 40 LINE",
"209 -73 OFFCURVE",
"176 -162 OFFCURVE",
"132 -252 CURVE",
"204 -284 LINE",
"252 -191 OFFCURVE",
"287 -101 OFFCURVE",
"315 21 CURVE"
);
},
{
closed = 1;
nodes = (
"317 939 LINE",
"250 727 OFFCURVE",
"165 535 OFFCURVE",
"30 334 CURVE",
"98 287 LINE",
"230 485 OFFCURVE",
"320 686 OFFCURVE",
"398 920 CURVE"
);
},
{
closed = 1;
nodes = (
"44 786 LINE",
"249 469 OFFCURVE",
"362 138 OFFCURVE",
"416 -293 CURVE",
"497 -283 LINE",
"443 187 OFFCURVE",
"304 527 OFFCURVE",
"110 831 CURVE"
);
},
{
closed = 1;
nodes = (
"259 410 LINE",
"196 259 OFFCURVE",
"138 143 OFFCURVE",
"53 11 CURVE",
"119 -38 LINE",
"199 87 OFFCURVE",
"252 196 OFFCURVE",
"314 372 CURVE"
);
}
);
};
layerId = "CFFEBDE4-599A-46B2-9328-D96E42CD9C81";
paths = (
{
closed = 1;
nodes = (
"428 101 LINE",
"377 -8 OFFCURVE",
"338 -85 OFFCURVE",
"247 -209 CURVE",
"313 -258 LINE",
"391 -144 OFFCURVE",
"447 -54 OFFCURVE",
"486 63 CURVE"
);
},
{
closed = 1;
nodes = (
"357 939 LINE",
"290 704 OFFCURVE",
"177 477 OFFCURVE",
"30 284 CURVE",
"94 236 LINE",
"238 426 OFFCURVE",
"359 665 OFFCURVE",
"437 922 CURVE"
);
},
{
closed = 1;
nodes = (
"31 786 LINE",
"288 466 OFFCURVE",
"466 57 OFFCURVE",
"546 -293 CURVE",
"626 -275 LINE",
"546 114 OFFCURVE",
"343 524 OFFCURVE",
"97 831 CURVE"
);
},
{
closed = 1;
nodes = (
"496 661 LINE",
"402 436 OFFCURVE",
"281 221 OFFCURVE",
"124 19 CURVE",
"184 -30 LINE",
"340 169 OFFCURVE",
"473 384 OFFCURVE",
"566 634 CURVE"
);
}
);
vertOrigin = 90;
vertWidth = 1312;
width = 636;
}
);
unicode = 1B194;
},
{
glyphname = u1B195;
lastChange = "2020-03-23 17:09:53 +0000";
layers = (
{
layerId = "CFFEBDE4-599A-46B2-9328-D96E42CD9C81";
paths = (
{
closed = 1;
nodes = (
"262 857 OFFCURVE",
"266 788 OFFCURVE",
"266 687 CURVE SMOOTH",
"266 382 OFFCURVE",
"192 175 OFFCURVE",
"20 -73 CURVE",
"89 -117 LINE",
"271 138 OFFCURVE",
"349 372 OFFCURVE",
"349 687 CURVE SMOOTH",
"349 790 OFFCURVE",
"342 870 OFFCURVE",
"334 939 CURVE",
"252 932 LINE"
);
},
{
closed = 1;
nodes = (
"487 -281 LINE",
"452 -12 OFFCURVE",
"413 154 OFFCURVE",
"298 442 CURVE",
"263 301 LINE",
"331 115 OFFCURVE",
"374 -59 OFFCURVE",
"403 -293 CURVE"
);
},
{
closed = 1;
nodes = (
"541 259 OFFCURVE",
"564 276 OFFCURVE",
"564 315 CURVE SMOOTH",
"564 354 OFFCURVE",
"541 371 OFFCURVE",
"513 371 CURVE SMOOTH",
"484 371 OFFCURVE",
"461 354 OFFCURVE",
"461 315 CURVE SMOOTH",
"461 276 OFFCURVE",
"484 259 OFFCURVE",
"513 259 CURVE SMOOTH"
);
},
{
closed = 1;
nodes = (
"111 426 OFFCURVE",
"134 443 OFFCURVE",
"134 482 CURVE SMOOTH",
"134 521 OFFCURVE",
"111 538 OFFCURVE",
"83 538 CURVE SMOOTH",
"54 538 OFFCURVE",
"31 521 OFFCURVE",
"31 482 CURVE SMOOTH",
"31 443 OFFCURVE",
"54 426 OFFCURVE",
"83 426 CURVE SMOOTH"
);
}
);
vertOrigin = 90;
vertWidth = 1312;
width = 594;
}
);
unicode = 1B195;
},
{
glyphname = u1B196;
lastChange = "2020-03-23 17:09:58 +0000";
layers = (
{
layerId = "CFFEBDE4-599A-46B2-9328-D96E42CD9C81";
paths = (
{
closed = 1;
nodes = (
"363 494 OFFCURVE",
"243 113 OFFCURVE",
"67 -253 CURVE",
"148 -293 LINE",
"332 87 OFFCURVE",
"443 457 OFFCURVE",
"495 879 CURVE",
"460 879 LINE",
"510 782 OFFCURVE",
"544 691 OFFCURVE",
"568 581 CURVE",
"657 602 LINE",
"628 737 OFFCURVE",
"581 848 OFFCURVE",
"517 939 CURVE",
"419 928 LINE"
);
},
{
closed = 1;
nodes = (
"246 450 OFFCURVE",
"363 167 OFFCURVE",
"460 -133 CURVE",
"549 -98 LINE",
"442 233 OFFCURVE",
"320 493 OFFCURVE",
"183 733 CURVE",
"88 719 LINE",
"68 559 OFFCURVE",
"49 471 OFFCURVE",
"10 350 CURVE",
"93 325 LINE",
"132 433 OFFCURVE",
"149 518 OFFCURVE",
"163 674 CURVE",
"116 671 LINE"
);
}
);
vertOrigin = 90;
vertWidth = 1312;
width = 667;
}
);
unicode = 1B196;
},
{
glyphname = u1B197;
lastChange = "2020-03-23 17:10:03 +0000";
layers = (
{
layerId = "CFFEBDE4-599A-46B2-9328-D96E42CD9C81";
paths = (
{
closed = 1;
nodes = (
"404 939 LINE",
"287 613 OFFCURVE",
"173 439 OFFCURVE",
"20 258 CURVE",
"86 208 LINE",
"252 405 OFFCURVE",
"363 592 OFFCURVE",
"484 918 CURVE"
);
},
{
closed = 1;
nodes = (
"553 202 LINE",
"444 10 OFFCURVE",
"332 -126 OFFCURVE",
"210 -240 CURVE",
"269 -293 LINE",
"402 -163 OFFCURVE",
"511 -37 OFFCURVE",
"627 164 CURVE"
);
},
{
closed = 1;
nodes = (
"440 -70 LINE",
"381 223 OFFCURVE",
"282 485 OFFCURVE",
"147 784 CURVE",
"68 746 LINE",
"211 443 OFFCURVE",
"304 172 OFFCURVE",
"363 -99 CURVE"
);
},
{
closed = 1;
nodes = (
"458 489 LINE",
"363 310 OFFCURVE",
"253 162 OFFCURVE",
"117 13 CURVE",
"181 -35 LINE",
"317 114 OFFCURVE",
"430 263 OFFCURVE",
"532 452 CURVE"
);
}
);
vertOrigin = 90;
vertWidth = 1312;
width = 647;
}
);
unicode = 1B197;
},
{
glyphname = u1B198;
lastChange = "2020-03-23 17:10:10 +0000";
layers = (
{
background = {
paths = (
{
closed = 1;
nodes = (
"388 245 LINE",
"376 332 OFFCURVE",
"362 382 OFFCURVE",
"336 449 CURVE",
"262 419 LINE",
"293 344 OFFCURVE",
"310 276 OFFCURVE",
"327 199 CURVE",
"440 212 LINE",
"468 287 OFFCURVE",
"487 354 OFFCURVE",
"487 453 CURVE SMOOTH",
"487 585 OFFCURVE",
"440 683 OFFCURVE",
"295 831 CURVE",
"257 765 LINE",
"372 628 OFFCURVE",
"401 546 OFFCURVE",
"401 430 CURVE SMOOTH",
"401 362 OFFCURVE",
"393 299 OFFCURVE",
"374 236 CURVE"
);
},
{
closed = 1;
nodes = (
"294 939 LINE",
"235 765 OFFCURVE",
"165 639 OFFCURVE",
"57 520 CURVE",
"97 371 OFFCURVE",
"108 254 OFFCURVE",
"108 135 CURVE SMOOTH",
"108 -3 OFFCURVE",
"86 -128 OFFCURVE",
"40 -269 CURVE",
"116 -293 LINE",
"162 -143 OFFCURVE",
"188 -24 OFFCURVE",
"188 145 CURVE SMOOTH",
"188 271 OFFCURVE",
"173 388 OFFCURVE",
"135 538 CURVE",
"130 478 LINE",
"234 592 OFFCURVE",
"312 734 OFFCURVE",
"374 916 CURVE"
);
}
);
};
layerId = "CFFEBDE4-599A-46B2-9328-D96E42CD9C81";
paths = (
{
closed = 1;
nodes = (
"255 272 OFFCURVE",
"290 215 OFFCURVE",
"362 151 CURVE",
"429 161 LINE",
"471 252 OFFCURVE",
"487 354 OFFCURVE",
"487 442 CURVE SMOOTH",
"487 578 OFFCURVE",
"454 664 OFFCURVE",
"301 831 CURVE",
"257 766 LINE",
"377 636 OFFCURVE",
"408 536 OFFCURVE",
"408 421 CURVE SMOOTH",
"408 351 OFFCURVE",
"399 282 OFFCURVE",
"372 202 CURVE",
"408 211 LINE",
"358 263 OFFCURVE",
"339 300 OFFCURVE",
"339 349 CURVE SMOOTH",
"339 408 OFFCURVE",
"363 470 OFFCURVE",
"416 538 CURVE",
"387 601 LINE",
"280 488 OFFCURVE",
"255 425 OFFCURVE",
"255 348 CURVE SMOOTH"
);
},
{
closed = 1;
nodes = (
"294 939 LINE",
"235 765 OFFCURVE",
"177 660 OFFCURVE",
"57 519 CURVE",
"90 392 OFFCURVE",
"108 286 OFFCURVE",
"108 130 CURVE SMOOTH",
"108 -10 OFFCURVE",
"85 -132 OFFCURVE",
"40 -269 CURVE",
"116 -293 LINE",
"164 -147 OFFCURVE",
"188 -8 OFFCURVE",
"188 137 CURVE SMOOTH",
"188 299 OFFCURVE",
"169 417 OFFCURVE",
"131 530 CURVE",
"136 481 LINE",
"247 619 OFFCURVE",
"296 702 OFFCURVE",
"374 916 CURVE"
);
}
);
vertOrigin = 90;
vertWidth = 1312;
width = 517;
}
);
unicode = 1B198;
},
{
glyphname = u1B199;
lastChange = "2020-03-23 17:00:55 +0000";
layers = (
{
layerId = "CFFEBDE4-599A-46B2-9328-D96E42CD9C81";
paths = (
{
closed = 1;
nodes = (
"237 367 LINE",
"207 52 OFFCURVE",
"160 -83 OFFCURVE",
"61 -261 CURVE",
"133 -293 LINE",
"231 -118 OFFCURVE",
"284 25 OFFCURVE",
"316 360 CURVE"
);
},
{
closed = 1;
nodes = (
"244 159 LINE",
"292 61 OFFCURVE",
"323 -3 OFFCURVE",
"357 -101 CURVE SMOOTH",
"375 -153 OFFCURVE",
"385 -179 OFFCURVE",
"400 -241 CURVE",
"485 -218 LINE",
"433 -35 OFFCURVE",
"376 84 OFFCURVE",
"296 211 CURVE"
);
},
{
closed = 1;
nodes = (
"230 939 LINE",
"190 615 OFFCURVE",
"129 450 OFFCURVE",
"30 279 CURVE",
"103 235 LINE",
"204 424 OFFCURVE",
"262 581 OFFCURVE",
"312 931 CURVE"
);
},
{
closed = 1;
nodes = (
"223 722 LINE",
"277 621 OFFCURVE",
"309 563 OFFCURVE",
"337 506 CURVE SMOOTH",
"378 422 OFFCURVE",
"409 356 OFFCURVE",
"438 279 CURVE",
"515 318 LINE",
"441 494 OFFCURVE",
"368 642 OFFCURVE",
"270 780 CURVE"
);
}
);
vertOrigin = 90;
vertWidth = 1312;
width = 545;
}
);
unicode = 1B199;
},
{
glyphname = u1B19A;
lastChange = "2020-03-23 17:10:17 +0000";
layers = (
{
layerId = "CFFEBDE4-599A-46B2-9328-D96E42CD9C81";
paths = (
{
closed = 1;
nodes = (
"435 939 LINE",
"376 633 OFFCURVE",
"290 457 OFFCURVE",
"159 301 CURVE",
"208 240 LINE",
"370 423 OFFCURVE",
"453 601 OFFCURVE",
"520 922 CURVE"
);
},
{
closed = 1;
nodes = (
"87 563 OFFCURVE",
"111 409 OFFCURVE",
"111 228 CURVE SMOOTH",
"111 62 OFFCURVE",
"80 -88 OFFCURVE",
"20 -266 CURVE",
"101 -293 LINE",
"167 -106 OFFCURVE",
"197 42 OFFCURVE",
"197 232 CURVE SMOOTH",
"197 431 OFFCURVE",
"172 585 OFFCURVE",
"111 771 CURVE",
"27 746 LINE"
);
},
{
closed = 1;
nodes = (
"434 -173 LINE",
"498 -62 OFFCURVE",
"542 61 OFFCURVE",
"575 214 CURVE",
"488 233 LINE",
"463 96 OFFCURVE",
"428 -12 OFFCURVE",
"380 -107 CURVE",
"413 -125 LINE",
"374 31 OFFCURVE",
"321 151 OFFCURVE",
"222 323 CURVE",
"159 277 LINE",
"250 113 OFFCURVE",
"293 7 OFFCURVE",
"338 -173 CURVE"
);
}
);
vertOrigin = 90;
vertWidth = 1312;
width = 605;
}
);
unicode = 1B19A;
},
{
glyphname = u1B19B;
lastChange = "2020-03-23 17:10:22 +0000";
layers = (
{
layerId = "CFFEBDE4-599A-46B2-9328-D96E42CD9C81";
paths = (
{
closed = 1;
nodes = (
"90 4 OFFCURVE",
"113 21 OFFCURVE",
"113 60 CURVE SMOOTH",
"113 99 OFFCURVE",
"90 116 OFFCURVE",
"62 116 CURVE SMOOTH",
"33 116 OFFCURVE",
"10 99 OFFCURVE",
"10 60 CURVE SMOOTH",
"10 21 OFFCURVE",
"33 4 OFFCURVE",
"62 4 CURVE SMOOTH"
);
},
{
closed = 1;
nodes = (
"166 213 OFFCURVE",
"189 230 OFFCURVE",
"189 269 CURVE SMOOTH",
"189 308 OFFCURVE",
"166 325 OFFCURVE",
"138 325 CURVE SMOOTH",
"109 325 OFFCURVE",
"86 308 OFFCURVE",
"86 269 CURVE SMOOTH",
"86 230 OFFCURVE",
"109 213 OFFCURVE",
"138 213 CURVE SMOOTH"
);
},
{
closed = 1;
nodes = (
"579 -132 LINE",
"481 187 OFFCURVE",
"333 463 OFFCURVE",
"128 726 CURVE",
"60 679 LINE",
"255 431 OFFCURVE",
"407 136 OFFCURVE",
"500 -163 CURVE"
);
},
{
closed = 1;
nodes = (
"447 939 LINE",
"398 525 OFFCURVE",
"262 109 OFFCURVE",
"80 -264 CURVE",
"156 -293 LINE",
"352 111 OFFCURVE",
"477 491 OFFCURVE",
"528 927 CURVE"
);
}
);
vertOrigin = 90;
vertWidth = 1312;
width = 589;
}
);
unicode = 1B19B;
},
{
glyphname = u1B19C;
lastChange = "2020-03-23 17:10:26 +0000";
layers = (
{
layerId = "CFFEBDE4-599A-46B2-9328-D96E42CD9C81";
paths = (
{
closed = 1;
nodes = (
"487 371 LINE",
"421 256 OFFCURVE",
"399 166 OFFCURVE",
"399 71 CURVE SMOOTH",
"399 -18 OFFCURVE",
"423 -105 OFFCURVE",
"485 -176 CURVE",
"554 -128 LINE",
"504 -61 OFFCURVE",
"485 0 OFFCURVE",
"485 73 CURVE SMOOTH",
"485 163 OFFCURVE",
"501 234 OFFCURVE",
"560 332 CURVE"
);
},
{
closed = 1;
nodes = (
"144 -293 LINE",
"173 -227 OFFCURVE",
"189 -161 OFFCURVE",
"189 -87 CURVE SMOOTH",
"189 14 OFFCURVE",
"163 93 OFFCURVE",
"100 195 CURVE",
"30 153 LINE",
"86 61 OFFCURVE",
"106 -12 OFFCURVE",
"106 -87 CURVE SMOOTH",
"106 -144 OFFCURVE",
"90 -207 OFFCURVE",
"63 -269 CURVE"
);
},
{
closed = 1;
nodes = (
"417 939 LINE",
"392 653 OFFCURVE",
"332 434 OFFCURVE",
"231 209 CURVE",
"271 213 LINE",
"243 349 OFFCURVE",
"187 478 OFFCURVE",
"116 593 CURVE",
"44 550 LINE",
"117 434 OFFCURVE",
"164 330 OFFCURVE",
"201 197 CURVE",
"303 184 LINE",
"407 408 OFFCURVE",
"470 626 OFFCURVE",
"503 933 CURVE"
);
}
);
vertOrigin = 90;
vertWidth = 1312;
width = 590;
}
);
unicode = 1B19C;
},
{
glyphname = u1B19D;
lastChange = "2020-03-23 17:10:30 +0000";
layers = (
{
background = {
paths = (
{
closed = 1;
nodes = (
"547 728 OFFCURVE",
"570 745 OFFCURVE",
"570 784 CURVE SMOOTH",
"570 823 OFFCURVE",
"547 840 OFFCURVE",
"519 840 CURVE SMOOTH",
"490 840 OFFCURVE",
"467 823 OFFCURVE",
"467 784 CURVE SMOOTH",
"467 745 OFFCURVE",
"490 728 OFFCURVE",
"519 728 CURVE SMOOTH"
);
},
{
closed = 1;
nodes = (
"109 608 OFFCURVE",
"132 625 OFFCURVE",
"132 664 CURVE SMOOTH",
"132 703 OFFCURVE",
"109 720 OFFCURVE",
"81 720 CURVE SMOOTH",
"52 720 OFFCURVE",
"29 703 OFFCURVE",
"29 664 CURVE SMOOTH",
"29 625 OFFCURVE",
"52 608 OFFCURVE",
"81 608 CURVE SMOOTH"
);
},
{
closed = 1;
nodes = (
"417 539 LINE",
"367 297 OFFCURVE",
"258 35 OFFCURVE",
"130 -168 CURVE",
"201 -212 LINE",
"333 -12 OFFCURVE",
"433 241 OFFCURVE",
"488 504 CURVE"
);
},
{
closed = 1;
nodes = (
"168 380 LINE",
"299 172 OFFCURVE",
"380 -35 OFFCURVE",
"453 -293 CURVE",
"536 -271 LINE",
"453 18 OFFCURVE",
"360 240 OFFCURVE",
"222 454 CURVE"
);
},
{
closed = 1;
nodes = (
"275 939 LINE",
"235 615 OFFCURVE",
"150 421 OFFCURVE",
"23 220 CURVE",
"93 178 LINE",
"237 397 OFFCURVE",
"310 581 OFFCURVE",
"360 931 CURVE"
);
},
{
closed = 1;
nodes = (
"267 720 LINE",
"393 552 OFFCURVE",
"473 432 OFFCURVE",
"542 277 CURVE",
"623 318 LINE",
"549 494 OFFCURVE",
"443 643 OFFCURVE",
"318 780 CURVE"
);
}
);
};
layerId = "CFFEBDE4-599A-46B2-9328-D96E42CD9C81";
paths = (
{
closed = 1;
nodes = (
"410 569 LINE",
"356 264 OFFCURVE",
"258 8 OFFCURVE",
"90 -249 CURVE",
"161 -293 LINE",
"333 -26 OFFCURVE",
"428 214 OFFCURVE",
"488 525 CURVE"
);
},
{
closed = 1;
nodes = (
"158 390 LINE",
"272 225 OFFCURVE",
"367 38 OFFCURVE",
"440 -163 CURVE",
"524 -125 LINE",
"441 107 OFFCURVE",
"333 293 OFFCURVE",
"212 464 CURVE"
);
},
{
closed = 1;
nodes = (
"268 939 LINE",
"218 649 OFFCURVE",
"150 456 OFFCURVE",
"10 219 CURVE",
"85 178 LINE",
"225 411 OFFCURVE",
"297 609 OFFCURVE",
"357 925 CURVE"
);
},
{
closed = 1;
nodes = (
"261 762 LINE",
"383 611 OFFCURVE",
"470 477 OFFCURVE",
"556 279 CURVE",
"633 318 LINE",
"559 494 OFFCURVE",
"456 662 OFFCURVE",
"308 830 CURVE"
);
}
);
vertOrigin = 90;
vertWidth = 1312;
width = 643;
}
);
unicode = 1B19D;
},
{
glyphname = u1B19E;
lastChange = "2020-03-23 17:10:37 +0000";
layers = (
{
background = {
paths = (
{
closed = 1;
nodes = (
"224 597 LINE",
"300 421 OFFCURVE",
"347 202 OFFCURVE",
"347 17 CURVE SMOOTH",
"347 -98 OFFCURVE",
"340 -191 OFFCURVE",
"325 -284 CURVE",
"404 -293 LINE",
"418 -198 OFFCURVE",
"427 -100 OFFCURVE",
"427 27 CURVE SMOOTH",
"427 233 OFFCURVE",
"375 458 OFFCURVE",
"276 665 CURVE"
);
},
{
closed = 1;
nodes = (
"392 939 LINE",
"298 732 OFFCURVE",
"168 545 OFFCURVE",
"15 396 CURVE",
"72 344 LINE",
"229 495 OFFCURVE",
"361 674 OFFCURVE",
"466 912 CURVE"
);
},
{
closed = 1;
nodes = (
"524 649 LINE",
"409 446 OFFCURVE",
"277 286 OFFCURVE",
"80 115 CURVE",
"131 58 LINE",
"331 226 OFFCURVE",
"466 387 OFFCURVE",
"597 607 CURVE"
);
}
);
};
layerId = "CFFEBDE4-599A-46B2-9328-D96E42CD9C81";
paths = (
{
closed = 1;
nodes = (
"389 939 LINE",
"288 703 OFFCURVE",
"170 556 OFFCURVE",
"10 403 CURVE",
"69 345 LINE",
"255 522 OFFCURVE",
"361 673 OFFCURVE",
"469 909 CURVE"
);
},
{
closed = 1;
nodes = (
"510 637 LINE",
"381 407 OFFCURVE",
"278 282 OFFCURVE",
"85 113 CURVE",
"142 54 LINE",
"317 201 OFFCURVE",
"448 355 OFFCURVE",
"582 596 CURVE"
);
},
{
closed = 1;
nodes = (
"352 -293 LINE",
"466 -185 OFFCURVE",
"543 -81 OFFCURVE",
"631 79 CURVE",
"553 117 LINE",
"467 -50 OFFCURVE",
"391 -143 OFFCURVE",
"324 -222 CURVE",
"349 -227 LINE",
"370 -130 OFFCURVE",
"380 -50 OFFCURVE",
"380 84 CURVE SMOOTH",
"380 284 OFFCURVE",
"349 466 OFFCURVE",
"296 682 CURVE",
"232 585 LINE",
"276 403 OFFCURVE",
"296 255 OFFCURVE",
"296 70 CURVE SMOOTH",
"296 -72 OFFCURVE",
"287 -148 OFFCURVE",
"263 -266 CURVE"
);
}
);
vertOrigin = 90;
vertWidth = 1312;
width = 641;
}
);
unicode = 1B19E;
},
{
glyphname = u1B19F;
lastChange = "2020-03-23 17:11:34 +0000";
layers = (
{
layerId = "CFFEBDE4-599A-46B2-9328-D96E42CD9C81";
paths = (
{
closed = 1;
nodes = (
"20 283 LINE",
"45 192 OFFCURVE",
"61 105 OFFCURVE",
"73 -3 CURVE",
"148 9 LINE",
"137 121 OFFCURVE",
"120 211 OFFCURVE",
"93 304 CURVE"
);
},
{
closed = 1;
nodes = (
"87 451 LINE",
"202 303 OFFCURVE",
"333 85 OFFCURVE",
"441 -150 CURVE",
"513 -108 LINE",
"399 135 OFFCURVE",
"262 363 OFFCURVE",
"136 529 CURVE",
"146 455 LINE",
"223 596 OFFCURVE",
"285 749 OFFCURVE",
"335 925 CURVE",
"252 939 LINE",
"203 771 OFFCURVE",
"148 642 OFFCURVE",
"87 522 CURVE"
);
},
{
closed = 1;
nodes = (
"299 692 OFFCURVE",
"338 612 OFFCURVE",
"338 482 CURVE SMOOTH",
"338 298 OFFCURVE",
"251 61 OFFCURVE",
"90 -256 CURVE",
"163 -293 LINE",
"329 20 OFFCURVE",
"424 288 OFFCURVE",
"424 482 CURVE SMOOTH",
"424 631 OFFCURVE",
"379 723 OFFCURVE",
"279 863 CURVE",
"244 770 LINE"
);
}
);
vertOrigin = 90;
vertWidth = 1312;
width = 553;
}
);
unicode = 1B19F;
},
{
glyphname = u1B1A0;
lastChange = "2020-03-23 17:11:30 +0000";
layers = (
{
background = {
paths = (
{
closed = 1;
nodes = (
"376 494 OFFCURVE",
"256 113 OFFCURVE",
"80 -253 CURVE",
"161 -293 LINE",
"345 87 OFFCURVE",
"456 457 OFFCURVE",
"508 879 CURVE",
"473 879 LINE",
"523 782 OFFCURVE",
"557 691 OFFCURVE",
"581 581 CURVE",
"670 602 LINE",
"641 737 OFFCURVE",
"594 848 OFFCURVE",
"530 939 CURVE",
"432 928 LINE"
);
},
{
closed = 1;
nodes = (
"259 450 OFFCURVE",
"376 167 OFFCURVE",
"473 -133 CURVE",
"562 -98 LINE",
"455 233 OFFCURVE",
"333 493 OFFCURVE",
"196 733 CURVE",
"101 719 LINE",
"81 559 OFFCURVE",
"62 471 OFFCURVE",
"23 350 CURVE",
"106 325 LINE",
"145 433 OFFCURVE",
"162 518 OFFCURVE",
"176 674 CURVE",
"129 671 LINE"
);
}
);
};
layerId = "CFFEBDE4-599A-46B2-9328-D96E42CD9C81";
paths = (
{
closed = 1;
nodes = (
"347 259 LINE",
"437 443 OFFCURVE",
"489 609 OFFCURVE",
"513 879 CURVE",
"479 879 LINE",
"523 782 OFFCURVE",
"550 705 OFFCURVE",
"575 579 CURVE",
"663 601 LINE",
"630 745 OFFCURVE",
"596 830 OFFCURVE",
"537 939 CURVE",
"432 929 LINE",
"407 659 OFFCURVE",
"365 497 OFFCURVE",
"298 348 CURVE"
);
},
{
closed = 1;
nodes = (
"368 360 OFFCURVE",
"292 557 OFFCURVE",
"168 731 CURVE",
"82 715 LINE",
"61 537 OFFCURVE",
"41 454 OFFCURVE",
"10 348 CURVE",
"95 325 LINE",
"127 432 OFFCURVE",
"144 518 OFFCURVE",
"155 676 CURVE",
"108 673 LINE",
"220 502 OFFCURVE",
"283 341 OFFCURVE",
"283 87 CURVE SMOOTH",
"283 -42 OFFCURVE",
"267 -145 OFFCURVE",
"232 -278 CURVE",
"321 -293 LINE",
"352 -167 OFFCURVE",
"368 -54 OFFCURVE",
"368 93 CURVE SMOOTH"
);
}
);
vertOrigin = 90;
vertWidth = 1312;
width = 673;
}
);
unicode = 1B1A0;
},
{
glyphname = u1B1A1;
lastChange = "2020-03-23 17:11:27 +0000";
layers = (
{
layerId = "CFFEBDE4-599A-46B2-9328-D96E42CD9C81";
paths = (
{
closed = 1;
nodes = (
"169 271 LINE",
"219 86 OFFCURVE",
"243 -78 OFFCURVE",
"263 -276 CURVE",
"352 -293 LINE",
"445 -142 OFFCURVE",
"498 -2 OFFCURVE",
"552 202 CURVE",
"471 225 LINE",
"429 51 OFFCURVE",
"382 -65 OFFCURVE",
"312 -222 CURVE",
"339 -224 LINE",
"325 -42 OFFCURVE",
"301 113 OFFCURVE",
"231 350 CURVE"
);
},
{
closed = 1;
nodes = (
"347 939 LINE",
"281 586 OFFCURVE",
"184 314 OFFCURVE",
"20 47 CURVE",
"91 8 LINE",
"254 267 OFFCURVE",
"359 574 OFFCURVE",
"431 925 CURVE"
);
},
{
closed = 1;
nodes = (
"108 474 OFFCURVE",
"131 491 OFFCURVE",
"131 530 CURVE SMOOTH",
"131 569 OFFCURVE",
"108 586 OFFCURVE",
"80 586 CURVE SMOOTH",
"51 586 OFFCURVE",
"28 569 OFFCURVE",
"28 530 CURVE SMOOTH",
"28 491 OFFCURVE",
"51 474 OFFCURVE",
"80 474 CURVE SMOOTH"
);
}
);
vertOrigin = 90;
vertWidth = 1312;
width = 572;
}
);
unicode = 1B1A1;
},
{
glyphname = u1B1A2;
lastChange = "2020-03-23 17:11:22 +0000";
layers = (
{
layerId = "CFFEBDE4-599A-46B2-9328-D96E42CD9C81";
paths = (
{
closed = 1;
nodes = (
"329 -199 LINE",
"274 -8 OFFCURVE",
"206 171 OFFCURVE",
"98 363 CURVE",
"20 316 LINE",
"123 134 OFFCURVE",
"193 -46 OFFCURVE",
"254 -243 CURVE",
"345 -253 LINE",
"515 28 OFFCURVE",
"610 312 OFFCURVE",
"672 605 CURVE",
"580 618 LINE",
"521 333 OFFCURVE",
"420 53 OFFCURVE",
"280 -199 CURVE"
);
},
{
closed = 1;
nodes = (
"390 939 LINE",
"345 587 OFFCURVE",
"294 366 OFFCURVE",
"190 67 CURVE",
"248 -1 LINE",
"375 347 OFFCURVE",
"434 574 OFFCURVE",
"483 929 CURVE"
);
},
{
closed = 1;
nodes = (
"104 685 LINE",
"246 468 OFFCURVE",
"338 266 OFFCURVE",
"416 19 CURVE",
"483 88 LINE",
"407 333 OFFCURVE",
"322 511 OFFCURVE",
"183 733 CURVE"
);
}
);
vertOrigin = 90;
vertWidth = 1312;
width = 692;
}
);
unicode = 1B1A2;
},
{
glyphname = u1B1A3;
lastChange = "2020-03-23 17:11:18 +0000";
layers = (
{
layerId = "CFFEBDE4-599A-46B2-9328-D96E42CD9C81";
paths = (
{
closed = 1;
nodes = (
"248 -293 LINE",
"365 -154 OFFCURVE",
"439 3 OFFCURVE",
"439 215 CURVE SMOOTH",
"439 394 OFFCURVE",
"374 548 OFFCURVE",
"263 694 CURVE",
"209 634 LINE",
"300 517 OFFCURVE",
"355 394 OFFCURVE",
"355 203 CURVE SMOOTH",
"355 26 OFFCURVE",
"288 -119 OFFCURVE",
"184 -248 CURVE"
);
},
{
closed = 1;
nodes = (
"356 939 LINE",
"264 785 OFFCURVE",
"152 654 OFFCURVE",
"20 538 CURVE",
"73 478 LINE",
"206 591 OFFCURVE",
"327 734 OFFCURVE",
"430 900 CURVE"
);
},
{
closed = 1;
nodes = (
"490 704 LINE",
"387 544 OFFCURVE",
"244 409 OFFCURVE",
"109 312 CURVE",
"160 244 LINE",
"319 360 OFFCURVE",
"449 481 OFFCURVE",
"562 662 CURVE"
);
},
{
closed = 1;
nodes = (
"122 18 LINE",
"272 -51 OFFCURVE",
"426 -161 OFFCURVE",
"526 -249 CURVE",
"573 -175 LINE",
"457 -74 OFFCURVE",
"312 19 OFFCURVE",
"167 93 CURVE"
);
}
);
vertOrigin = 90;
vertWidth = 1312;
width = 593;
}
);
unicode = 1B1A3;
},
{
glyphname = u1B1A4;
lastChange = "2020-03-23 17:11:14 +0000";
layers = (
{
layerId = "CFFEBDE4-599A-46B2-9328-D96E42CD9C81";
paths = (
{
closed = 1;
nodes = (
"184 344 OFFCURVE",
"332 219 OFFCURVE",
"440 111 CURVE",
"440 169 LINE",
"363 -8 OFFCURVE",
"299 -122 OFFCURVE",
"210 -251 CURVE",
"279 -293 LINE",
"374 -158 OFFCURVE",
"440 -39 OFFCURVE",
"521 148 CURVE",
"395 274 OFFCURVE",
"236 406 OFFCURVE",
"97 508 CURVE",
"97 471 LINE",
"165 600 OFFCURVE",
"238 759 OFFCURVE",
"287 917 CURVE",
"205 939 LINE",
"157 782 OFFCURVE",
"97 641 OFFCURVE",
"10 476 CURVE"
);
},
{
closed = 1;
nodes = (
"391 634 LINE",
"300 436 OFFCURVE",
"180 239 OFFCURVE",
"58 70 CURVE",
"120 22 LINE",
"257 211 OFFCURVE",
"373 400 OFFCURVE",
"461 601 CURVE"
);
}
);
vertOrigin = 90;
vertWidth = 1312;
width = 531;
}
);
unicode = 1B1A4;
},
{
glyphname = u1B1A5;
lastChange = "2020-03-23 17:11:10 +0000";
layers = (
{
background = {
paths = (
{
closed = 1;
nodes = (
"294 939 LINE",
"235 765 OFFCURVE",
"165 639 OFFCURVE",
"57 520 CURVE",
"97 371 OFFCURVE",
"108 254 OFFCURVE",
"108 135 CURVE SMOOTH",
"108 -3 OFFCURVE",
"86 -128 OFFCURVE",
"40 -269 CURVE",
"116 -293 LINE",
"162 -143 OFFCURVE",
"188 -24 OFFCURVE",
"188 145 CURVE SMOOTH",
"188 271 OFFCURVE",
"173 388 OFFCURVE",
"135 538 CURVE",
"130 478 LINE",
"234 592 OFFCURVE",
"312 734 OFFCURVE",
"374 916 CURVE"
);
},
{
closed = 1;
nodes = (
"434 216 LINE",
"423 432 OFFCURVE",
"374 602 OFFCURVE",
"290 777 CURVE",
"247 673 LINE",
"305 540 OFFCURVE",
"340 386 OFFCURVE",
"350 204 CURVE"
);
}
);
};
layerId = "CFFEBDE4-599A-46B2-9328-D96E42CD9C81";
paths = (
{
closed = 1;
nodes = (
"446 645 LINE",
"356 497 OFFCURVE",
"275 397 OFFCURVE",
"137 276 CURVE",
"174 208 LINE",
"313 323 OFFCURVE",
"421 451 OFFCURVE",
"515 606 CURVE"
);
},
{
closed = 1;
nodes = (
"217 673 LINE",
"324 433 OFFCURVE",
"366 174 OFFCURVE",
"379 -36 CURVE",
"459 -28 LINE",
"449 206 OFFCURVE",
"393 474 OFFCURVE",
"275 738 CURVE"
);
},
{
closed = 1;
nodes = (
"294 939 LINE",
"229 755 OFFCURVE",
"169 645 OFFCURVE",
"56 520 CURVE",
"90 397 OFFCURVE",
"108 270 OFFCURVE",
"108 160 CURVE SMOOTH",
"108 -5 OFFCURVE",
"86 -128 OFFCURVE",
"40 -269 CURVE",
"116 -293 LINE",
"162 -152 OFFCURVE",
"188 -24 OFFCURVE",
"188 148 CURVE SMOOTH",
"188 288 OFFCURVE",
"170 416 OFFCURVE",
"130 538 CURVE",
"135 482 LINE",
"238 607 OFFCURVE",
"297 700 OFFCURVE",
"374 916 CURVE"
);
}
);
vertOrigin = 90;
vertWidth = 1312;
width = 545;
}
);
unicode = 1B1A5;
},
{
glyphname = u1B1A6;
lastChange = "2020-03-23 17:11:05 +0000";
layers = (
{
layerId = "CFFEBDE4-599A-46B2-9328-D96E42CD9C81";
paths = (
{
closed = 1;
nodes = (
"391 939 LINE",
"314 634 OFFCURVE",
"187 339 OFFCURVE",
"24 54 CURVE",
"101 18 LINE",
"280 334 OFFCURVE",
"391 600 OFFCURVE",
"477 923 CURVE"
);
},
{
closed = 1;
nodes = (
"69 774 LINE",
"260 559 OFFCURVE",
"415 346 OFFCURVE",
"568 96 CURVE",
"639 134 LINE",
"473 413 OFFCURVE",
"331 606 OFFCURVE",
"131 828 CURVE"
);
},
{
closed = 1;
nodes = (
"522 635 LINE",
"426 325 OFFCURVE",
"287 38 OFFCURVE",
"124 -254 CURVE",
"199 -293 LINE",
"360 0 OFFCURVE",
"497 291 OFFCURVE",
"606 614 CURVE"
);
},
{
closed = 1;
nodes = (
"10 471 LINE",
"206 251 OFFCURVE",
"347 34 OFFCURVE",
"475 -198 CURVE",
"545 -161 LINE",
"407 104 OFFCURVE",
"262 312 OFFCURVE",
"71 528 CURVE"
);
}
);
vertOrigin = 90;
vertWidth = 1312;
width = 649;
}
);
unicode = 1B1A6;
},
{
glyphname = u1B1A7;
lastChange = "2020-03-23 17:11:01 +0000";
layers = (
{
background = {
paths = (
{
closed = 1;
nodes = (
"368 939 LINE",
"270 622 OFFCURVE",
"170 452 OFFCURVE",
"24 258 CURVE",
"90 208 LINE",
"249 418 OFFCURVE",
"346 601 OFFCURVE",
"448 918 CURVE"
);
},
{
closed = 1;
nodes = (
"517 202 LINE",
"408 10 OFFCURVE",
"336 -113 OFFCURVE",
"214 -240 CURVE",
"273 -293 LINE",
"406 -150 OFFCURVE",
"475 -37 OFFCURVE",
"591 164 CURVE"
);
},
{
closed = 1;
nodes = (
"421 -61 LINE",
"362 260 OFFCURVE",
"275 475 OFFCURVE",
"148 784 CURVE",
"69 746 LINE",
"205 432 OFFCURVE",
"285 209 OFFCURVE",
"344 -90 CURVE"
);
},
{
closed = 1;
nodes = (
"422 489 LINE",
"336 317 OFFCURVE",
"240 162 OFFCURVE",
"121 13 CURVE",
"185 -35 LINE",
"304 114 OFFCURVE",
"403 270 OFFCURVE",
"496 452 CURVE"
);
}
);
};
layerId = "CFFEBDE4-599A-46B2-9328-D96E42CD9C81";
paths = (
{
closed = 1;
nodes = (
"408 939 LINE",
"296 649 OFFCURVE",
"200 478 OFFCURVE",
"20 256 CURVE",
"81 206 LINE",
"264 438 OFFCURVE",
"364 626 OFFCURVE",
"483 916 CURVE"
);
},
{
closed = 1;
nodes = (
"560 202 LINE",
"451 10 OFFCURVE",
"336 -125 OFFCURVE",
"217 -240 CURVE",
"273 -293 LINE",
"403 -162 OFFCURVE",
"515 -37 OFFCURVE",
"631 164 CURVE"
);
},
{
closed = 1;
nodes = (
"206 451 LINE",
"276 272 OFFCURVE",
"330 87 OFFCURVE",
"377 -108 CURVE",
"449 -76 LINE",
"400 142 OFFCURVE",
"336 341 OFFCURVE",
"264 526 CURVE"
);
},
{
closed = 1;
nodes = (
"467 488 LINE",
"368 307 OFFCURVE",
"264 167 OFFCURVE",
"123 16 CURVE",
"184 -31 LINE",
"325 120 OFFCURVE",
"432 270 OFFCURVE",
"538 453 CURVE"
);
}
);
vertOrigin = 90;
vertWidth = 1312;
width = 651;
}
);
unicode = 1B1A7;
},
{
glyphname = u1B1A8;
lastChange = "2020-03-23 17:10:56 +0000";
layers = (
{
layerId = "CFFEBDE4-599A-46B2-9328-D96E42CD9C81";
paths = (
{
closed = 1;
nodes = (
"240 -94 OFFCURVE",
"263 -77 OFFCURVE",
"263 -38 CURVE SMOOTH",
"263 1 OFFCURVE",
"240 18 OFFCURVE",
"212 18 CURVE SMOOTH",
"183 18 OFFCURVE",
"160 1 OFFCURVE",
"160 -38 CURVE SMOOTH",
"160 -77 OFFCURVE",
"183 -94 OFFCURVE",
"212 -94 CURVE SMOOTH"
);
},
{
closed = 1;
nodes = (
"602 169 OFFCURVE",
"625 186 OFFCURVE",
"625 225 CURVE SMOOTH",
"625 264 OFFCURVE",
"602 281 OFFCURVE",
"574 281 CURVE SMOOTH",
"545 281 OFFCURVE",
"522 264 OFFCURVE",
"522 225 CURVE SMOOTH",
"522 186 OFFCURVE",
"545 169 OFFCURVE",
"574 169 CURVE SMOOTH"
);
},
{
closed = 1;
nodes = (
"229 597 LINE",
"305 421 OFFCURVE",
"360 209 OFFCURVE",
"360 -23 CURVE SMOOTH",
"360 -138 OFFCURVE",
"355 -191 OFFCURVE",
"340 -284 CURVE",
"419 -293 LINE",
"433 -198 OFFCURVE",
"440 -140 OFFCURVE",
"440 -13 CURVE SMOOTH",
"440 240 OFFCURVE",
"380 458 OFFCURVE",
"281 665 CURVE"
);
},
{
closed = 1;
nodes = (
"397 939 LINE",
"303 732 OFFCURVE",
"173 545 OFFCURVE",
"20 396 CURVE",
"77 344 LINE",
"234 495 OFFCURVE",
"366 674 OFFCURVE",
"471 912 CURVE"
);
},
{
closed = 1;
nodes = (
"529 679 LINE",
"414 476 OFFCURVE",
"282 316 OFFCURVE",
"85 145 CURVE",
"136 88 LINE",
"336 256 OFFCURVE",
"471 417 OFFCURVE",
"602 637 CURVE"
);
}
);
vertOrigin = 90;
vertWidth = 1312;
width = 645;
}
);
unicode = 1B1A8;
},
{
glyphname = u1B1A9;
lastChange = "2020-03-23 17:10:50 +0000";
layers = (
{
layerId = "CFFEBDE4-599A-46B2-9328-D96E42CD9C81";
paths = (
{
closed = 1;
nodes = (
"388 159 LINE",
"369 257 OFFCURVE",
"340 345 OFFCURVE",
"299 431 CURVE",
"238 384 LINE",
"277 293 OFFCURVE",
"301 217 OFFCURVE",
"323 115 CURVE"
);
},
{
closed = 1;
nodes = (
"534 361 LINE",
"387 225 OFFCURVE",
"246 134 OFFCURVE",
"64 42 CURVE",
"109 -29 LINE",
"296 66 OFFCURVE",
"433 143 OFFCURVE",
"596 302 CURVE"
);
},
{
closed = 1;
nodes = (
"495 199 OFFCURVE",
"523 145 OFFCURVE",
"523 93 CURVE SMOOTH",
"523 -10 OFFCURVE",
"437 -74 OFFCURVE",
"140 -216 CURVE",
"181 -293 LINE",
"521 -134 OFFCURVE",
"605 -35 OFFCURVE",
"605 97 CURVE SMOOTH",
"605 177 OFFCURVE",
"565 242 OFFCURVE",
"493 304 CURVE",
"438 253 LINE"
);
},
{
closed = 1;
nodes = (
"461 939 LINE",
"313 790 OFFCURVE",
"192 705 OFFCURVE",
"10 602 CURVE",
"52 529 LINE",
"232 626 OFFCURVE",
"375 720 OFFCURVE",
"524 886 CURVE"
);
},
{
closed = 1;
nodes = (
"435 751 OFFCURVE",
"450 714 OFFCURVE",
"450 657 CURVE SMOOTH",
"450 555 OFFCURVE",
"356 469 OFFCURVE",
"48 315 CURVE",
"90 239 LINE",
"438 412 OFFCURVE",
"533 529 OFFCURVE",
"533 657 CURVE SMOOTH",
"533 733 OFFCURVE",
"501 798 OFFCURVE",
"451 849 CURVE",
"387 803 LINE"
);
}
);
vertOrigin = 90;
vertWidth = 1312;
width = 635;
}
);
unicode = 1B1A9;
},
{
glyphname = u1B1AA;
lastChange = "2020-03-23 17:10:46 +0000";
layers = (
{
layerId = "CFFEBDE4-599A-46B2-9328-D96E42CD9C81";
paths = (
{
closed = 1;
nodes = (
"10 -196 OFFCURVE",
"35 -235 OFFCURVE",
"103 -275 CURVE",
"174 -266 LINE",
"231 -188 OFFCURVE",
"255 -122 OFFCURVE",
"255 -51 CURVE SMOOTH",
"255 -1 OFFCURVE",
"226 40 OFFCURVE",
"158 78 CURVE",
"84 68 LINE",
"33 -14 OFFCURVE",
"10 -78 OFFCURVE",
"10 -130 CURVE SMOOTH"
);
},
{
closed = 1;
nodes = (
"111 31 LINE",
"158 -5 OFFCURVE",
"175 -36 OFFCURVE",
"175 -65 CURVE SMOOTH",
"175 -108 OFFCURVE",
"158 -152 OFFCURVE",
"119 -228 CURVE",
"147 -228 LINE",
"105 -191 OFFCURVE",
"90 -165 OFFCURVE",
"90 -126 CURVE SMOOTH",
"90 -82 OFFCURVE",
"109 -34 OFFCURVE",
"146 34 CURVE"
);
},
{
closed = 1;
nodes = (
"401 939 LINE",
"297 749 OFFCURVE",
"178 601 OFFCURVE",
"10 449 CURVE",
"63 386 LINE",
"237 536 OFFCURVE",
"364 693 OFFCURVE",
"475 899 CURVE"
);
},
{
closed = 1;
nodes = (
"421 710 OFFCURVE",
"441 666 OFFCURVE",
"441 603 CURVE SMOOTH",
"441 474 OFFCURVE",
"352 363 OFFCURVE",
"126 184 CURVE",
"181 121 LINE",
"436 308 OFFCURVE",
"527 449 OFFCURVE",
"527 603 CURVE SMOOTH",
"527 693 OFFCURVE",
"499 758 OFFCURVE",
"405 840 CURVE",
"354 773 LINE"
);
},
{
closed = 1;
nodes = (
"332 269 LINE",
"357 143 OFFCURVE",
"362 40 OFFCURVE",
"362 -51 CURVE SMOOTH",
"362 -139 OFFCURVE",
"359 -199 OFFCURVE",
"348 -284 CURVE",
"433 -293 LINE",
"444 -204 OFFCURVE",
"448 -126 OFFCURVE",
"448 -39 CURVE SMOOTH",
"448 68 OFFCURVE",
"437 190 OFFCURVE",
"402 347 CURVE"
);
}
);
vertOrigin = 90;
vertWidth = 1312;
width = 557;
}
);
unicode = 1B1AA;
},
{
glyphname = u1B1AB;
lastChange = "2020-03-23 17:11:39 +0000";
layers = (
{
layerId = "CFFEBDE4-599A-46B2-9328-D96E42CD9C81";
paths = (
{
closed = 1;
nodes = (
"240 939 LINE",
"240 396 OFFCURVE",
"231 232 OFFCURVE",
"183 28 CURVE",
"266 9 LINE",
"315 221 OFFCURVE",
"321 387 OFFCURVE",
"321 935 CURVE"
);
},
{
closed = 1;
nodes = (
"275 540 LINE",
"336 456 OFFCURVE",
"392 355 OFFCURVE",
"432 264 CURVE",
"510 309 LINE",
"458 423 OFFCURVE",
"409 506 OFFCURVE",
"328 615 CURVE"
);
},
{
closed = 1;
nodes = (
"315 678 OFFCURVE",
"168 535 OFFCURVE",
"20 431 CURVE",
"49 236 OFFCURVE",
"63 99 OFFCURVE",
"63 -90 CURVE SMOOTH",
"63 -166 OFFCURVE",
"57 -226 OFFCURVE",
"48 -284 CURVE",
"132 -293 LINE",
"140 -232 OFFCURVE",
"146 -160 OFFCURVE",
"146 -88 CURVE SMOOTH",
"146 128 OFFCURVE",
"133 249 OFFCURVE",
"99 445 CURVE",
"82 362 LINE",
"223 465 OFFCURVE",
"361 604 OFFCURVE",
"513 776 CURVE",
"476 794 LINE",
"522 632 OFFCURVE",
"539 509 OFFCURVE",
"539 354 CURVE SMOOTH",
"539 264 OFFCURVE",
"536 210 OFFCURVE",
"533 161 CURVE",
"617 154 LINE",
"623 221 OFFCURVE",
"626 285 OFFCURVE",
"626 344 CURVE SMOOTH",
"626 509 OFFCURVE",
"601 669 OFFCURVE",
"559 835 CURVE",
"467 856 LINE"
);
}
);
vertOrigin = 90;
vertWidth = 1312;
width = 646;
}
);
unicode = 1B1AB;
},
{
glyphname = u1B1AC;
lastChange = "2020-03-23 17:11:45 +0000";
layers = (
{
layerId = "CFFEBDE4-599A-46B2-9328-D96E42CD9C81";
paths = (
{
closed = 1;
nodes = (
"156 281 LINE",
"138 159 OFFCURVE",
"106 39 OFFCURVE",
"65 -66 CURVE",
"140 -95 LINE",
"182 11 OFFCURVE",
"219 143 OFFCURVE",
"237 263 CURVE"
);
},
{
closed = 1;
nodes = (
"20 98 LINE",
"98 76 OFFCURVE",
"194 45 OFFCURVE",
"265 9 CURVE",
"296 86 LINE",
"226 123 OFFCURVE",
"126 155 OFFCURVE",
"39 176 CURVE"
);
},
{
closed = 1;
nodes = (
"159 451 LINE",
"288 284 OFFCURVE",
"425 85 OFFCURVE",
"533 -150 CURVE",
"605 -108 LINE",
"491 135 OFFCURVE",
"348 344 OFFCURVE",
"208 529 CURVE",
"218 455 LINE",
"295 596 OFFCURVE",
"357 749 OFFCURVE",
"407 925 CURVE",
"324 939 LINE",
"275 771 OFFCURVE",
"220 642 OFFCURVE",
"159 522 CURVE"
);
},
{
closed = 1;
nodes = (
"394 671 OFFCURVE",
"412 603 OFFCURVE",
"412 512 CURVE SMOOTH",
"412 328 OFFCURVE",
"363 128 OFFCURVE",
"202 -256 CURVE",
"275 -293 LINE",
"441 87 OFFCURVE",
"498 318 OFFCURVE",
"498 512 CURVE SMOOTH",
"498 641 OFFCURVE",
"466 727 OFFCURVE",
"351 863 CURVE",
"316 770 LINE"
);
}
);
vertOrigin = 90;
vertWidth = 1312;
width = 645;
}
);
unicode = 1B1AC;
},
{
glyphname = u1B1AD;
lastChange = "2020-03-23 17:11:50 +0000";
layers = (
{
layerId = "CFFEBDE4-599A-46B2-9328-D96E42CD9C81";
paths = (
{
closed = 1;
nodes = (
"323 469 LINE",
"268 357 OFFCURVE",
"192 256 OFFCURVE",
"105 172 CURVE",
"159 119 LINE",
"250 205 OFFCURVE",
"326 308 OFFCURVE",
"389 432 CURVE"
);
},
{
closed = 1;
nodes = (
"398 270 LINE",
"331 154 OFFCURVE",
"238 56 OFFCURVE",
"140 -28 CURVE",
"193 -87 LINE",
"289 -7 OFFCURVE",
"391 99 OFFCURVE",
"466 230 CURVE"
);
},
{
closed = 1;
nodes = (
"493 93 LINE",
"403 -46 OFFCURVE",
"311 -143 OFFCURVE",
"186 -234 CURVE",
"237 -293 LINE",
"365 -198 OFFCURVE",
"468 -100 OFFCURVE",
"561 48 CURVE"
);
},
{
closed = 1;
nodes = (
"270 939 LINE",
"209 678 OFFCURVE",
"132 514 OFFCURVE",
"10 329 CURVE",
"82 284 LINE",
"206 458 OFFCURVE",
"296 655 OFFCURVE",
"355 924 CURVE"
);
},
{
closed = 1;
nodes = (
"283 785 LINE",
"369 642 OFFCURVE",
"445 512 OFFCURVE",
"526 317 CURVE",
"610 357 LINE",
"508 584 OFFCURVE",
"433 707 OFFCURVE",
"323 854 CURVE"
);
}
);
vertOrigin = 90;
vertWidth = 1312;
width = 620;
}
);
unicode = 1B1AD;
},
{
glyphname = u1B1AE;
lastChange = "2020-03-23 17:11:56 +0000";
layers = (
{
layerId = "CFFEBDE4-599A-46B2-9328-D96E42CD9C81";
paths = (
{
closed = 1;
nodes = (
"385 403 LINE",
"334 249 OFFCURVE",
"284 135 OFFCURVE",
"208 26 CURVE",
"270 -20 LINE",
"353 104 OFFCURVE",
"410 218 OFFCURVE",
"460 376 CURVE"
);
},
{
closed = 1;
nodes = (
"505 190 LINE",
"438 20 OFFCURVE",
"382 -85 OFFCURVE",
"262 -250 CURVE",
"330 -293 LINE",
"446 -135 OFFCURVE",
"505 -24 OFFCURVE",
"578 159 CURVE"
);
},
{
closed = 1;
nodes = (
"220 264 LINE",
"315 438 OFFCURVE",
"381 624 OFFCURVE",
"441 925 CURVE",
"358 939 LINE",
"300 664 OFFCURVE",
"249 486 OFFCURVE",
"172 332 CURVE",
"203 330 LINE",
"169 451 OFFCURVE",
"138 536 OFFCURVE",
"87 637 CURVE",
"10 599 LINE",
"64 486 OFFCURVE",
"106 388 OFFCURVE",
"138 274 CURVE"
);
},
{
closed = 1;
nodes = (
"328 763 LINE",
"372 695 OFFCURVE",
"410 641 OFFCURVE",
"444 588 CURVE SMOOTH",
"494 509 OFFCURVE",
"535 431 OFFCURVE",
"572 358 CURVE",
"645 405 LINE",
"551 588 OFFCURVE",
"460 726 OFFCURVE",
"369 826 CURVE"
);
}
);
vertOrigin = 90;
vertWidth = 1312;
width = 655;
}
);
unicode = 1B1AE;
},
{
glyphname = u1B1AF;
lastChange = "2020-03-23 17:12:06 +0000";
layers = (
{
layerId = "CFFEBDE4-599A-46B2-9328-D96E42CD9C81";
paths = (
{
closed = 1;
nodes = (
"100 76 OFFCURVE",
"123 93 OFFCURVE",
"123 132 CURVE SMOOTH",
"123 171 OFFCURVE",
"100 188 OFFCURVE",
"72 188 CURVE SMOOTH",
"43 188 OFFCURVE",
"20 171 OFFCURVE",
"20 132 CURVE SMOOTH",
"20 93 OFFCURVE",
"43 76 OFFCURVE",
"72 76 CURVE SMOOTH"
);
},
{
closed = 1;
nodes = (
"292 715 OFFCURVE",
"315 732 OFFCURVE",
"315 771 CURVE SMOOTH",
"315 810 OFFCURVE",
"292 827 OFFCURVE",
"264 827 CURVE SMOOTH",
"235 827 OFFCURVE",
"212 810 OFFCURVE",
"212 771 CURVE SMOOTH",
"212 732 OFFCURVE",
"235 715 OFFCURVE",
"264 715 CURVE SMOOTH"
);
},
{
closed = 1;
nodes = (
"174 425 OFFCURVE",
"219 274 OFFCURVE",
"219 97 CURVE SMOOTH",
"219 -40 OFFCURVE",
"202 -135 OFFCURVE",
"145 -264 CURVE",
"223 -293 LINE",
"280 -165 OFFCURVE",
"303 -54 OFFCURVE",
"303 109 CURVE SMOOTH",
"303 294 OFFCURVE",
"255 465 OFFCURVE",
"153 639 CURVE",
"78 595 LINE"
);
},
{
closed = 1;
nodes = (
"410 634 OFFCURVE",
"332 475 OFFCURVE",
"209 316 CURVE",
"244 231 LINE",
"402 427 OFFCURVE",
"486 577 OFFCURVE",
"536 927 CURVE",
"452 939 LINE"
);
},
{
closed = 1;
nodes = (
"372 539 LINE",
"436 395 OFFCURVE",
"472 264 OFFCURVE",
"491 94 CURVE",
"578 106 LINE",
"561 303 OFFCURVE",
"513 442 OFFCURVE",
"427 603 CURVE"
);
}
);
vertOrigin = 90;
vertWidth = 1312;
width = 618;
}
);
unicode = 1B1AF;
},
{
glyphname = u1B1B0;
lastChange = "2020-03-23 17:12:14 +0000";
layers = (
{
layerId = "CFFEBDE4-599A-46B2-9328-D96E42CD9C81";
paths = (
{
closed = 1;
nodes = (
"559 589 OFFCURVE",
"582 606 OFFCURVE",
"582 645 CURVE SMOOTH",
"582 684 OFFCURVE",
"559 701 OFFCURVE",
"531 701 CURVE SMOOTH",
"502 701 OFFCURVE",
"479 684 OFFCURVE",
"479 645 CURVE SMOOTH",
"479 606 OFFCURVE",
"502 589 OFFCURVE",
"531 589 CURVE SMOOTH"
);
},
{
closed = 1;
nodes = (
"100 427 OFFCURVE",
"123 444 OFFCURVE",
"123 483 CURVE SMOOTH",
"123 522 OFFCURVE",
"100 539 OFFCURVE",
"72 539 CURVE SMOOTH",
"43 539 OFFCURVE",
"20 522 OFFCURVE",
"20 483 CURVE SMOOTH",
"20 444 OFFCURVE",
"43 427 OFFCURVE",
"72 427 CURVE SMOOTH"
);
},
{
closed = 1;
nodes = (
"295 338 LINE",
"313 213 OFFCURVE",
"319 118 OFFCURVE",
"319 31 CURVE SMOOTH",
"319 -75 OFFCURVE",
"311 -174 OFFCURVE",
"291 -283 CURVE",
"375 -293 LINE",
"396 -176 OFFCURVE",
"403 -76 OFFCURVE",
"403 41 CURVE SMOOTH",
"403 124 OFFCURVE",
"397 225 OFFCURVE",
"371 350 CURVE"
);
},
{
closed = 1;
nodes = (
"382 939 LINE",
"335 685 OFFCURVE",
"240 461 OFFCURVE",
"65 217 CURVE",
"136 172 LINE",
"310 416 OFFCURVE",
"413 652 OFFCURVE",
"465 927 CURVE"
);
},
{
closed = 1;
nodes = (
"218 583 OFFCURVE",
"371 468 OFFCURVE",
"514 321 CURVE",
"572 384 LINE",
"413 542 OFFCURVE",
"273 641 OFFCURVE",
"76 742 CURVE",
"37 668 LINE"
);
}
);
vertOrigin = 90;
vertWidth = 1312;
width = 602;
}
);
unicode = 1B1B0;
},
{
glyphname = u1B1B1;
lastChange = "2020-03-23 17:12:17 +0000";
layers = (
{
layerId = "CFFEBDE4-599A-46B2-9328-D96E42CD9C81";
paths = (
{
closed = 1;
nodes = (
"474 545 LINE",
"427 350 OFFCURVE",
"378 194 OFFCURVE",
"292 39 CURVE",
"335 43 LINE",
"293 297 OFFCURVE",
"231 567 OFFCURVE",
"128 808 CURVE",
"52 776 LINE",
"154 543 OFFCURVE",
"212 294 OFFCURVE",
"260 18 CURVE",
"353 0 LINE",
"449 157 OFFCURVE",
"506 320 OFFCURVE",
"559 525 CURVE"
);
},
{
closed = 1;
nodes = (
"309 448 LINE",
"397 303 OFFCURVE",
"455 176 OFFCURVE",
"502 36 CURVE",
"574 61 LINE",
"520 236 OFFCURVE",
"463 346 OFFCURVE",
"373 490 CURVE"
);
},
{
closed = 1;
nodes = (
"291 939 LINE",
"240 653 OFFCURVE",
"162 468 OFFCURVE",
"30 262 CURVE",
"95 218 LINE",
"233 432 OFFCURVE",
"304 614 OFFCURVE",
"370 925 CURVE"
);
},
{
closed = 1;
nodes = (
"64 94 LINE",
"105 -43 OFFCURVE",
"129 -153 OFFCURVE",
"143 -293 CURVE",
"219 -283 LINE",
"205 -132 OFFCURVE",
"179 -1 OFFCURVE",
"136 119 CURVE"
);
}
);
vertOrigin = 90;
vertWidth = 1312;
width = 614;
}
);
unicode = 1B1B1;
},
{
glyphname = u1B1B2;
lastChange = "2020-03-23 17:12:23 +0000";
layers = (
{
layerId = "CFFEBDE4-599A-46B2-9328-D96E42CD9C81";
paths = (
{
closed = 1;
nodes = (
"20 -146 OFFCURVE",
"45 -185 OFFCURVE",
"113 -225 CURVE",
"184 -216 LINE",
"241 -138 OFFCURVE",
"265 -72 OFFCURVE",
"265 -1 CURVE SMOOTH",
"265 49 OFFCURVE",
"236 90 OFFCURVE",
"168 128 CURVE",
"94 118 LINE",
"43 36 OFFCURVE",
"20 -28 OFFCURVE",
"20 -80 CURVE SMOOTH"
);
},
{
closed = 1;
nodes = (
"121 81 LINE",
"168 45 OFFCURVE",
"185 14 OFFCURVE",
"185 -15 CURVE SMOOTH",
"185 -58 OFFCURVE",
"168 -102 OFFCURVE",
"129 -178 CURVE",
"157 -178 LINE",
"115 -141 OFFCURVE",
"100 -115 OFFCURVE",
"100 -76 CURVE SMOOTH",
"100 -32 OFFCURVE",
"119 16 OFFCURVE",
"156 84 CURVE"
);
},
{
closed = 1;
nodes = (
"304 335 LINE",
"334 222 OFFCURVE",
"346 134 OFFCURVE",
"346 31 CURVE SMOOTH",
"346 -75 OFFCURVE",
"336 -172 OFFCURVE",
"304 -272 CURVE",
"383 -293 LINE",
"417 -183 OFFCURVE",
"430 -76 OFFCURVE",
"430 41 CURVE SMOOTH",
"430 124 OFFCURVE",
"417 243 OFFCURVE",
"379 354 CURVE"
);
},
{
closed = 1;
nodes = (
"380 939 LINE",
"333 685 OFFCURVE",
"249 494 OFFCURVE",
"74 250 CURVE",
"145 205 LINE",
"319 449 OFFCURVE",
"411 652 OFFCURVE",
"463 927 CURVE"
);
},
{
closed = 1;
nodes = (
"216 583 OFFCURVE",
"369 468 OFFCURVE",
"512 321 CURVE",
"570 384 LINE",
"411 542 OFFCURVE",
"271 641 OFFCURVE",
"74 742 CURVE",
"35 668 LINE"
);
}
);
vertOrigin = 90;
vertWidth = 1312;
width = 590;
}
);
unicode = 1B1B2;
},
{
glyphname = u1B1B3;
lastChange = "2020-03-23 17:12:32 +0000";
layers = (
{
layerId = "CFFEBDE4-599A-46B2-9328-D96E42CD9C81";
paths = (
{
closed = 1;
nodes = (
"617 152 OFFCURVE",
"640 169 OFFCURVE",
"640 208 CURVE SMOOTH",
"640 247 OFFCURVE",
"617 264 OFFCURVE",
"589 264 CURVE SMOOTH",
"560 264 OFFCURVE",
"537 247 OFFCURVE",
"537 208 CURVE SMOOTH",
"537 169 OFFCURVE",
"560 152 OFFCURVE",
"589 152 CURVE SMOOTH"
);
},
{
closed = 1;
nodes = (
"217 -125 OFFCURVE",
"240 -108 OFFCURVE",
"240 -69 CURVE SMOOTH",
"240 -30 OFFCURVE",
"217 -13 OFFCURVE",
"189 -13 CURVE SMOOTH",
"160 -13 OFFCURVE",
"137 -30 OFFCURVE",
"137 -69 CURVE SMOOTH",
"137 -108 OFFCURVE",
"160 -125 OFFCURVE",
"189 -125 CURVE SMOOTH"
);
},
{
closed = 1;
nodes = (
"401 939 LINE",
"297 749 OFFCURVE",
"178 601 OFFCURVE",
"10 449 CURVE",
"63 386 LINE",
"237 536 OFFCURVE",
"364 693 OFFCURVE",
"475 899 CURVE"
);
},
{
closed = 1;
nodes = (
"421 710 OFFCURVE",
"441 666 OFFCURVE",
"441 603 CURVE SMOOTH",
"441 474 OFFCURVE",
"352 363 OFFCURVE",
"71 134 CURVE",
"126 71 LINE",
"436 308 OFFCURVE",
"527 449 OFFCURVE",
"527 603 CURVE SMOOTH",
"527 693 OFFCURVE",
"499 758 OFFCURVE",
"405 840 CURVE",
"354 773 LINE"
);
},
{
closed = 1;
nodes = (
"322 269 LINE",
"347 143 OFFCURVE",
"352 40 OFFCURVE",
"352 -51 CURVE SMOOTH",
"352 -139 OFFCURVE",
"349 -199 OFFCURVE",
"338 -284 CURVE",
"423 -293 LINE",
"434 -204 OFFCURVE",
"438 -126 OFFCURVE",
"438 -39 CURVE SMOOTH",
"438 68 OFFCURVE",
"427 190 OFFCURVE",
"392 347 CURVE"
);
}
);
vertOrigin = 90;
vertWidth = 1312;
width = 670;
}
);
unicode = 1B1B3;
},
{
glyphname = u1B1B4;
lastChange = "2020-03-23 17:12:36 +0000";
layers = (
{
background = {
paths = (
{
closed = 1;
nodes = (
"376 633 LINE",
"321 413 OFFCURVE",
"253 243 OFFCURVE",
"165 60 CURVE",
"214 -27 LINE",
"307 161 OFFCURVE",
"369 306 OFFCURVE",
"425 503 CURVE"
);
},
{
closed = 1;
nodes = (
"252 778 LINE",
"342 620 OFFCURVE",
"423 468 OFFCURVE",
"508 256 CURVE",
"519 408 LINE",
"454 189 OFFCURVE",
"373 -8 OFFCURVE",
"296 -168 CURVE",
"325 -186 LINE",
"267 -20 OFFCURVE",
"190 133 OFFCURVE",
"105 303 CURVE",
"96 201 LINE",
"195 430 OFFCURVE",
"265 604 OFFCURVE",
"343 919 CURVE",
"257 939 LINE",
"183 638 OFFCURVE",
"107 442 OFFCURVE",
"30 260 CURVE",
"118 79 OFFCURVE",
"200 -76 OFFCURVE",
"251 -243 CURVE",
"339 -253 LINE",
"438 -62 OFFCURVE",
"518 111 OFFCURVE",
"584 331 CURVE",
"504 514 OFFCURVE",
"418 678 OFFCURVE",
"316 854 CURVE"
);
}
);
};
layerId = "CFFEBDE4-599A-46B2-9328-D96E42CD9C81";
paths = (
{
closed = 1;
nodes = (
"315 352 OFFCURVE",
"246 199 OFFCURVE",
"158 55 CURVE",
"222 -13 LINE",
"320 149 OFFCURVE",
"382 278 OFFCURVE",
"445 449 CURVE",
"407 454 LINE",
"440 365 OFFCURVE",
"468 282 OFFCURVE",
"498 165 CURVE",
"523 271 LINE",
"444 77 OFFCURVE",
"372 -48 OFFCURVE",
"293 -167 CURVE",
"325 -192 LINE",
"270 -21 OFFCURVE",
"202 118 OFFCURVE",
"107 300 CURVE",
"96 199 LINE",
"202 439 OFFCURVE",
"277 647 OFFCURVE",
"343 919 CURVE",
"258 939 LINE",
"194 675 OFFCURVE",
"125 479 OFFCURVE",
"30 261 CURVE",
"124 73 OFFCURVE",
"191 -68 OFFCURVE",
"252 -243 CURVE",
"339 -253 LINE",
"438 -110 OFFCURVE",
"516 26 OFFCURVE",
"584 195 CURVE",
"559 312 OFFCURVE",
"529 418 OFFCURVE",
"482 530 CURVE",
"382 541 LINE"
);
}
);
vertOrigin = 90;
vertWidth = 1312;
width = 614;
}
);
unicode = 1B1B4;
},
{
glyphname = u1B1B5;
lastChange = "2020-03-23 17:00:55 +0000";
layers = (
{
layerId = "CFFEBDE4-599A-46B2-9328-D96E42CD9C81";
paths = (
{
closed = 1;
nodes = (
"506 194 OFFCURVE",
"529 211 OFFCURVE",
"529 250 CURVE SMOOTH",
"529 289 OFFCURVE",
"506 306 OFFCURVE",
"478 306 CURVE SMOOTH",
"449 306 OFFCURVE",
"426 289 OFFCURVE",
"426 250 CURVE SMOOTH",
"426 211 OFFCURVE",
"449 194 OFFCURVE",
"478 194 CURVE SMOOTH"
);
},
{
closed = 1;
nodes = (
"492 455 OFFCURVE",
"515 472 OFFCURVE",
"515 511 CURVE SMOOTH",
"515 550 OFFCURVE",
"492 567 OFFCURVE",
"464 567 CURVE SMOOTH",
"435 567 OFFCURVE",
"412 550 OFFCURVE",
"412 511 CURVE SMOOTH",
"412 472 OFFCURVE",
"435 455 OFFCURVE",
"464 455 CURVE SMOOTH"
);
},
{
closed = 1;
nodes = (
"176 -293 LINE",
"293 -97 OFFCURVE",
"353 67 OFFCURVE",
"353 273 CURVE SMOOTH",
"353 483 OFFCURVE",
"275 708 OFFCURVE",
"132 881 CURVE",
"68 830 LINE",
"209 663 OFFCURVE",
"273 465 OFFCURVE",
"273 270 CURVE SMOOTH",
"273 91 OFFCURVE",
"228 -57 OFFCURVE",
"107 -255 CURVE"
);
},
{
closed = 1;
nodes = (
"351 939 LINE",
"269 770 OFFCURVE",
"180 641 OFFCURVE",
"30 519 CURVE",
"82 457 LINE",
"245 597 OFFCURVE",
"340 724 OFFCURVE",
"421 905 CURVE"
);
},
{
closed = 1;
nodes = (
"46 90 LINE",
"198 24 OFFCURVE",
"345 -77 OFFCURVE",
"446 -166 CURVE",
"496 -104 LINE",
"379 -4 OFFCURVE",
"246 90 OFFCURVE",
"85 163 CURVE"
);
}
);
vertOrigin = 90;
vertWidth = 1312;
width = 559;
}
);
unicode = 1B1B5;
},
{
glyphname = u1B1B6;
lastChange = "2020-03-23 17:12:43 +0000";
layers = (
{
background = {
paths = (
{
closed = 1;
nodes = (
"287 -199 LINE",
"232 -8 OFFCURVE",
"164 171 OFFCURVE",
"56 363 CURVE",
"-14 316 LINE",
"89 134 OFFCURVE",
"159 -46 OFFCURVE",
"220 -243 CURVE",
"301 -253 LINE",
"471 28 OFFCURVE",
"566 312 OFFCURVE",
"628 605 CURVE",
"546 618 LINE",
"487 333 OFFCURVE",
"386 53 OFFCURVE",
"246 -199 CURVE"
);
},
{
closed = 1;
nodes = (
"356 939 LINE",
"311 587 OFFCURVE",
"264 387 OFFCURVE",
"147 67 CURVE",
"204 -1 LINE",
"331 347 OFFCURVE",
"390 574 OFFCURVE",
"439 929 CURVE"
);
},
{
closed = 1;
nodes = (
"57 665 LINE",
"199 448 OFFCURVE",
"303 245 OFFCURVE",
"382 19 CURVE",
"439 88 LINE",
"363 317 OFFCURVE",
"268 491 OFFCURVE",
"129 713 CURVE"
);
}
);
};
layerId = "CFFEBDE4-599A-46B2-9328-D96E42CD9C81";
paths = (
{
closed = 1;
nodes = (
"325 -64 LINE",
"471 159 OFFCURVE",
"571 350 OFFCURVE",
"658 664 CURVE",
"570 683 LINE",
"499 412 OFFCURVE",
"400 221 OFFCURVE",
"295 57 CURVE"
);
},
{
closed = 1;
nodes = (
"387 939 LINE",
"339 665 OFFCURVE",
"256 435 OFFCURVE",
"178 280 CURVE",
"243 222 LINE",
"348 412 OFFCURVE",
"426 644 OFFCURVE",
"479 929 CURVE"
);
},
{
closed = 1;
nodes = (
"96 710 LINE",
"249 545 OFFCURVE",
"348 390 OFFCURVE",
"426 231 CURVE",
"481 310 LINE",
"407 456 OFFCURVE",
"306 617 OFFCURVE",
"159 772 CURVE"
);
},
{
closed = 1;
nodes = (
"264 -130 OFFCURVE",
"246 -182 OFFCURVE",
"191 -182 CURVE SMOOTH",
"142 -182 OFFCURVE",
"120 -154 OFFCURVE",
"120 -115 CURVE SMOOTH",
"120 -86 OFFCURVE",
"125 -60 OFFCURVE",
"143 -30 CURVE",
"74 3 LINE",
"46 -40 OFFCURVE",
"34 -80 OFFCURVE",
"34 -123 CURVE SMOOTH",
"34 -208 OFFCURVE",
"85 -266 OFFCURVE",
"183 -266 CURVE SMOOTH",
"295 -266 OFFCURVE",
"348 -182 OFFCURVE",
"348 -60 CURVE SMOOTH",
"348 76 OFFCURVE",
"270 260 OFFCURVE",
"85 483 CURVE",
"20 426 LINE",
"203 199 OFFCURVE",
"264 69 OFFCURVE",
"264 -69 CURVE SMOOTH"
);
}
);
vertOrigin = 90;
vertWidth = 1312;
width = 678;
}
);
unicode = 1B1B6;
},
{
glyphname = u1B1B7;
lastChange = "2020-03-23 17:12:51 +0000";
layers = (
{
layerId = "CFFEBDE4-599A-46B2-9328-D96E42CD9C81";
paths = (
{
closed = 1;
nodes = (
"468 939 LINE",
"373 766 OFFCURVE",
"292 649 OFFCURVE",
"195 550 CURVE",
"232 554 LINE",
"225 635 OFFCURVE",
"212 700 OFFCURVE",
"180 786 CURVE",
"100 763 LINE",
"131 668 OFFCURVE",
"149 603 OFFCURVE",
"162 514 CURVE",
"243 490 LINE",
"368 610 OFFCURVE",
"455 718 OFFCURVE",
"552 898 CURVE"
);
},
{
closed = 1;
nodes = (
"251 273 LINE",
"409 397 OFFCURVE",
"489 486 OFFCURVE",
"609 676 CURVE",
"532 718 LINE",
"428 555 OFFCURVE",
"343 458 OFFCURVE",
"200 346 CURVE"
);
},
{
closed = 1;
nodes = (
"151 179 LINE",
"145 293 OFFCURVE",
"125 388 OFFCURVE",
"90 501 CURVE",
"10 477 LINE",
"41 376 OFFCURVE",
"62 279 OFFCURVE",
"68 174 CURVE"
);
},
{
closed = 1;
nodes = (
"496 -287 LINE",
"496 -76 OFFCURVE",
"484 58 OFFCURVE",
"434 216 CURVE",
"359 181 LINE",
"393 16 OFFCURVE",
"402 -94 OFFCURVE",
"402 -293 CURVE"
);
},
{
closed = 1;
nodes = (
"253 -166 LINE",
"400 -100 OFFCURVE",
"528 -14 OFFCURVE",
"652 98 CURVE",
"590 165 LINE",
"461 44 OFFCURVE",
"372 -14 OFFCURVE",
"219 -85 CURVE"
);
},
{
closed = 1;
nodes = (
"536 369 OFFCURVE",
"466 285 OFFCURVE",
"195 109 CURVE",
"243 37 LINE",
"556 239 OFFCURVE",
"623 328 OFFCURVE",
"623 458 CURVE SMOOTH",
"623 536 OFFCURVE",
"598 579 OFFCURVE",
"535 637 CURVE",
"489 569 LINE",
"524 525 OFFCURVE",
"536 494 OFFCURVE",
"536 449 CURVE"
);
}
);
vertOrigin = 90;
vertWidth = 1312;
width = 672;
}
);
unicode = 1B1B7;
},
{
glyphname = u1B1B8;
lastChange = "2020-03-23 17:12:56 +0000";
layers = (
{
layerId = "CFFEBDE4-599A-46B2-9328-D96E42CD9C81";
paths = (
{
closed = 1;
nodes = (
"90 191 OFFCURVE",
"113 208 OFFCURVE",
"113 247 CURVE SMOOTH",
"113 286 OFFCURVE",
"90 303 OFFCURVE",
"62 303 CURVE SMOOTH",
"33 303 OFFCURVE",
"10 286 OFFCURVE",
"10 247 CURVE SMOOTH",
"10 208 OFFCURVE",
"33 191 OFFCURVE",
"62 191 CURVE SMOOTH"
);
},
{
closed = 1;
nodes = (
"168 -73 OFFCURVE",
"191 -56 OFFCURVE",
"191 -17 CURVE SMOOTH",
"191 22 OFFCURVE",
"168 39 OFFCURVE",
"140 39 CURVE SMOOTH",
"113 39 OFFCURVE",
"88 22 OFFCURVE",
"88 -17 CURVE SMOOTH",
"88 -56 OFFCURVE",
"111 -73 OFFCURVE",
"140 -73 CURVE SMOOTH"
);
},
{
closed = 1;
nodes = (
"486 -293 LINE",
"504 -184 OFFCURVE",
"514 -86 OFFCURVE",
"514 30 CURVE SMOOTH",
"514 352 OFFCURVE",
"437 584 OFFCURVE",
"264 839 CURVE",
"197 788 LINE",
"369 537 OFFCURVE",
"428 344 OFFCURVE",
"428 30 CURVE SMOOTH",
"428 -82 OFFCURVE",
"420 -176 OFFCURVE",
"400 -285 CURVE"
);
},
{
closed = 1;
nodes = (
"535 939 LINE",
"427 709 OFFCURVE",
"294 530 OFFCURVE",
"151 379 CURVE",
"210 327 LINE",
"373 497 OFFCURVE",
"494 658 OFFCURVE",
"612 908 CURVE"
);
},
{
closed = 1;
nodes = (
"639 596 LINE",
"518 400 OFFCURVE",
"400 258 OFFCURVE",
"227 111 CURVE",
"281 55 LINE",
"450 199 OFFCURVE",
"580 354 OFFCURVE",
"706 559 CURVE"
);
}
);
vertOrigin = 90;
vertWidth = 1312;
width = 736;
}
);
unicode = 1B1B8;
},
{
glyphname = u1B1B9;
lastChange = "2020-03-23 17:13:03 +0000";
layers = (
{
layerId = "CFFEBDE4-599A-46B2-9328-D96E42CD9C81";
paths = (
{
closed = 1;
nodes = (
"392 939 LINE",
"316 674 OFFCURVE",
"241 508 OFFCURVE",
"83 328 CURVE",
"149 278 LINE",
"289 450 OFFCURVE",
"392 650 OFFCURVE",
"470 920 CURVE"
);
},
{
closed = 1;
nodes = (
"483 471 LINE",
"414 328 OFFCURVE",
"334 193 OFFCURVE",
"238 93 CURVE",
"293 38 LINE",
"388 137 OFFCURVE",
"468 262 OFFCURVE",
"552 431 CURVE"
);
},
{
closed = 1;
nodes = (
"425 212 LINE",
"369 419 OFFCURVE",
"292 601 OFFCURVE",
"167 808 CURVE",
"98 767 LINE",
"223 557 OFFCURVE",
"301 366 OFFCURVE",
"357 175 CURVE"
);
},
{
closed = 1;
nodes = (
"130 39 LINE",
"182 -60 OFFCURVE",
"200 -108 OFFCURVE",
"242 -225 CURVE",
"320 -194 LINE",
"268 -60 OFFCURVE",
"238 -9 OFFCURVE",
"168 93 CURVE"
);
},
{
closed = 1;
nodes = (
"108 174 LINE",
"94 25 OFFCURVE",
"63 -122 OFFCURVE",
"10 -272 CURVE",
"87 -293 LINE",
"140 -129 OFFCURVE",
"173 29 OFFCURVE",
"186 168 CURVE"
);
}
);
vertOrigin = 90;
vertWidth = 1312;
width = 572;
}
);
unicode = 1B1B9;
},
{
glyphname = u1B1BA;
lastChange = "2020-03-23 17:13:07 +0000";
layers = (
{
background = {
paths = (
{
closed = 1;
nodes = (
"220 356 OFFCURVE",
"328 239 OFFCURVE",
"400 131 CURVE",
"400 189 LINE",
"323 12 OFFCURVE",
"253 -110 OFFCURVE",
"166 -251 CURVE",
"235 -293 LINE",
"328 -146 OFFCURVE",
"400 -19 OFFCURVE",
"481 168 CURVE",
"391 294 OFFCURVE",
"284 416 OFFCURVE",
"177 528 CURVE",
"177 491 LINE",
"245 620 OFFCURVE",
"304 759 OFFCURVE",
"353 917 CURVE",
"271 939 LINE",
"223 782 OFFCURVE",
"177 661 OFFCURVE",
"90 496 CURVE"
);
},
{
closed = 1;
nodes = (
"397 614 LINE",
"306 416 OFFCURVE",
"214 265 OFFCURVE",
"104 102 CURVE",
"166 54 LINE",
"291 237 OFFCURVE",
"379 380 OFFCURVE",
"467 581 CURVE"
);
}
);
};
layerId = "CFFEBDE4-599A-46B2-9328-D96E42CD9C81";
paths = (
{
closed = 1;
nodes = (
"156 559 OFFCURVE",
"215 712 OFFCURVE",
"278 917 CURVE",
"200 939 LINE",
"141 750 OFFCURVE",
"90 607 OFFCURVE",
"10 434 CURVE",
"70 310 OFFCURVE",
"119 200 OFFCURVE",
"165 89 CURVE",
"231 75 LINE",
"312 215 OFFCURVE",
"363 327 OFFCURVE",
"413 473 CURVE",
"371 484 LINE",
"427 382 OFFCURVE",
"478 281 OFFCURVE",
"520 163 CURVE",
"517 237 LINE",
"462 69 OFFCURVE",
"391 -85 OFFCURVE",
"299 -253 CURVE",
"364 -293 LINE",
"456 -128 OFFCURVE",
"526 11 OFFCURVE",
"593 209 CURVE",
"548 339 OFFCURVE",
"491 446 OFFCURVE",
"425 563 CURVE",
"354 556 LINE",
"296 382 OFFCURVE",
"247 273 OFFCURVE",
"182 152 CURVE",
"224 157 LINE",
"192 240 OFFCURVE",
"145 348 OFFCURVE",
"83 472 CURVE",
"84 398 LINE"
);
}
);
vertOrigin = 90;
vertWidth = 1312;
width = 603;
}
);
unicode = 1B1BA;
},
{
glyphname = u1B1BB;
lastChange = "2020-03-23 17:13:10 +0000";
layers = (
{
layerId = "CFFEBDE4-599A-46B2-9328-D96E42CD9C81";
paths = (
{
closed = 1;
nodes = (
"274 869 LINE",
"328 746 OFFCURVE",
"369 626 OFFCURVE",
"401 492 CURVE",
"417 602 LINE",
"326 432 OFFCURVE",
"254 341 OFFCURVE",
"170 257 CURVE",
"204 173 LINE",
"299 261 OFFCURVE",
"382 374 OFFCURVE",
"473 522 CURVE",
"435 681 OFFCURVE",
"392 803 OFFCURVE",
"329 929 CURVE",
"249 939 LINE",
"174 793 OFFCURVE",
"108 695 OFFCURVE",
"30 597 CURVE",
"118 359 OFFCURVE",
"148 139 OFFCURVE",
"148 -77 CURVE SMOOTH",
"148 -137 OFFCURVE",
"142 -202 OFFCURVE",
"128 -283 CURVE",
"207 -293 LINE",
"222 -196 OFFCURVE",
"228 -149 OFFCURVE",
"228 -66 CURVE SMOOTH",
"228 162 OFFCURVE",
"190 366 OFFCURVE",
"112 611 CURVE",
"90 539 LINE",
"173 645 OFFCURVE",
"242 744 OFFCURVE",
"308 875 CURVE"
);
},
{
closed = 1;
nodes = (
"339 769 LINE",
"253 613 OFFCURVE",
"194 529 OFFCURVE",
"108 434 CURVE",
"148 366 LINE",
"239 463 OFFCURVE",
"312 558 OFFCURVE",
"387 698 CURVE"
);
}
);
vertOrigin = 90;
vertWidth = 1312;
width = 503;
}
);
unicode = 1B1BB;
},
{
glyphname = u1B1BC;
lastChange = "2020-03-23 17:13:15 +0000";
layers = (
{
layerId = "CFFEBDE4-599A-46B2-9328-D96E42CD9C81";
paths = (
{
closed = 1;
nodes = (
"371 -263 LINE",
"452 -179 OFFCURVE",
"517 -100 OFFCURVE",
"589 14 CURVE",
"571 110 OFFCURVE",
"549 189 OFFCURVE",
"514 277 CURVE",
"445 295 LINE",
"377 178 OFFCURVE",
"302 71 OFFCURVE",
"221 -9 CURVE",
"258 -102 OFFCURVE",
"286 -175 OFFCURVE",
"306 -251 CURVE"
);
},
{
closed = 1;
nodes = (
"370 -208 LINE",
"353 -137 OFFCURVE",
"326 -63 OFFCURVE",
"294 17 CURVE",
"272 -76 LINE",
"356 13 OFFCURVE",
"429 113 OFFCURVE",
"491 224 CURVE",
"445 224 LINE",
"474 145 OFFCURVE",
"495 77 OFFCURVE",
"507 0 CURVE",
"538 87 LINE",
"462 -42 OFFCURVE",
"411 -107 OFFCURVE",
"342 -186 CURVE"
);
},
{
closed = 1;
nodes = (
"325 939 LINE",
"239 685 OFFCURVE",
"158 516 OFFCURVE",
"20 338 CURVE",
"82 290 LINE",
"238 499 OFFCURVE",
"315 661 OFFCURVE",
"403 920 CURVE"
);
},
{
closed = 1;
nodes = (
"389 543 LINE",
"329 400 OFFCURVE",
"266 288 OFFCURVE",
"151 154 CURVE",
"206 99 LINE",
"314 218 OFFCURVE",
"384 340 OFFCURVE",
"459 509 CURVE"
);
},
{
closed = 1;
nodes = (
"330 295 LINE",
"292 437 OFFCURVE",
"214 614 OFFCURVE",
"102 803 CURVE",
"32 759 LINE",
"151 561 OFFCURVE",
"224 392 OFFCURVE",
"266 232 CURVE"
);
}
);
vertOrigin = 90;
vertWidth = 1312;
width = 609;
}
);
unicode = 1B1BC;
},
{
glyphname = u1B1BD;
lastChange = "2020-03-23 17:13:19 +0000";
layers = (
{
layerId = "CFFEBDE4-599A-46B2-9328-D96E42CD9C81";
paths = (
{
closed = 1;
nodes = (
"162 546 OFFCURVE",
"222 434 OFFCURVE",
"222 281 CURVE SMOOTH",
"222 143 OFFCURVE",
"186 25 OFFCURVE",
"77 -126 CURVE",
"139 -172 LINE",
"262 -16 OFFCURVE",
"308 116 OFFCURVE",
"308 291 CURVE SMOOTH",
"308 448 OFFCURVE",
"240 584 OFFCURVE",
"81 734 CURVE",
"30 672 LINE"
);
},
{
closed = 1;
nodes = (
"290 939 LINE",
"256 696 OFFCURVE",
"186 527 OFFCURVE",
"55 354 CURVE",
"120 307 LINE",
"249 484 OFFCURVE",
"332 670 OFFCURVE",
"370 928 CURVE"
);
},
{
closed = 1;
nodes = (
"307 -74 OFFCURVE",
"248 66 OFFCURVE",
"119 203 CURVE",
"64 150 LINE",
"188 15 OFFCURVE",
"235 -104 OFFCURVE",
"250 -293 CURVE",
"328 -283 LINE"
);
},
{
closed = 1;
nodes = (
"256 751 LINE",
"325 624 OFFCURVE",
"412 484 OFFCURVE",
"545 343 CURVE",
"605 404 LINE",
"477 536 OFFCURVE",
"399 655 OFFCURVE",
"315 788 CURVE"
);
},
{
closed = 1;
nodes = (
"472 484 OFFCURVE",
"496 587 OFFCURVE",
"573 712 CURVE",
"506 748 LINE",
"418 602 OFFCURVE",
"392 484 OFFCURVE",
"392 345 CURVE SMOOTH",
"392 205 OFFCURVE",
"438 79 OFFCURVE",
"547 -38 CURVE",
"611 15 LINE",
"512 130 OFFCURVE",
"472 242 OFFCURVE",
"472 356 CURVE SMOOTH"
);
}
);
vertOrigin = 90;
vertWidth = 1312;
width = 641;
}
);
unicode = 1B1BD;
},
{
glyphname = u1B1BE;
lastChange = "2020-03-23 17:00:55 +0000";
layers = (
{
layerId = "CFFEBDE4-599A-46B2-9328-D96E42CD9C81";
paths = (
{
closed = 1;
nodes = (
"366 826 OFFCURVE",
"372 722 OFFCURVE",
"372 611 CURVE SMOOTH",
"372 415 OFFCURVE",
"333 294 OFFCURVE",
"225 157 CURVE",
"292 109 LINE",
"414 265 OFFCURVE",
"458 406 OFFCURVE",
"458 624 CURVE SMOOTH",
"458 737 OFFCURVE",
"453 838 OFFCURVE",
"439 939 CURVE",
"354 929 LINE"
);
},
{
closed = 1;
nodes = (
"195 554 LINE",
"181 398 OFFCURVE",
"138 340 OFFCURVE",
"74 274 CURVE",
"132 223 LINE",
"203 300 OFFCURVE",
"259 379 OFFCURVE",
"273 546 CURVE"
);
},
{
closed = 1;
nodes = (
"440 186 OFFCURVE",
"464 282 OFFCURVE",
"535 396 CURVE",
"604 357 LINE",
"537 248 OFFCURVE",
"522 166 OFFCURVE",
"522 98 CURVE SMOOTH",
"522 15 OFFCURVE",
"539 -44 OFFCURVE",
"572 -97 CURVE",
"511 -135 LINE",
"466 -73 OFFCURVE",
"440 2 OFFCURVE",
"440 98 CURVE SMOOTH"
);
},
{
closed = 1;
nodes = (
"130 39 LINE",
"182 -60 OFFCURVE",
"200 -108 OFFCURVE",
"242 -225 CURVE",
"320 -194 LINE",
"268 -60 OFFCURVE",
"238 -9 OFFCURVE",
"168 93 CURVE"
);
},
{
closed = 1;
nodes = (
"108 174 LINE",
"94 25 OFFCURVE",
"63 -122 OFFCURVE",
"10 -272 CURVE",
"87 -293 LINE",
"140 -129 OFFCURVE",
"173 29 OFFCURVE",
"186 168 CURVE"
);
}
);
vertOrigin = 90;
vertWidth = 1312;
width = 654;
}
);
unicode = 1B1BE;
},
{
glyphname = u1B1BF;
lastChange = "2020-03-23 17:13:35 +0000";
layers = (
{
layerId = "CFFEBDE4-599A-46B2-9328-D96E42CD9C81";
paths = (
{
closed = 1;
nodes = (
"567 939 LINE",
"502 645 OFFCURVE",
"408 392 OFFCURVE",
"289 184 CURVE",
"337 188 LINE",
"297 320 OFFCURVE",
"241 445 OFFCURVE",
"172 558 CURVE",
"100 514 LINE",
"174 388 OFFCURVE",
"226 277 OFFCURVE",
"262 154 CURVE",
"353 139 LINE",
"491 361 OFFCURVE",
"590 623 OFFCURVE",
"653 919 CURVE"
);
},
{
closed = 1;
nodes = (
"550 271 LINE",
"473 67 OFFCURVE",
"366 -96 OFFCURVE",
"241 -244 CURVE",
"304 -293 LINE",
"426 -147 OFFCURVE",
"544 26 OFFCURVE",
"626 240 CURVE"
);
},
{
closed = 1;
nodes = (
"100 153 OFFCURVE",
"123 170 OFFCURVE",
"123 209 CURVE SMOOTH",
"123 248 OFFCURVE",
"100 265 OFFCURVE",
"72 265 CURVE SMOOTH",
"43 265 OFFCURVE",
"20 248 OFFCURVE",
"20 209 CURVE SMOOTH",
"20 170 OFFCURVE",
"43 153 OFFCURVE",
"72 153 CURVE SMOOTH"
);
},
{
closed = 1;
nodes = (
"348 595 OFFCURVE",
"371 612 OFFCURVE",
"371 651 CURVE SMOOTH",
"371 690 OFFCURVE",
"348 707 OFFCURVE",
"320 707 CURVE SMOOTH",
"291 707 OFFCURVE",
"268 690 OFFCURVE",
"268 651 CURVE SMOOTH",
"268 612 OFFCURVE",
"291 595 OFFCURVE",
"320 595 CURVE SMOOTH"
);
}
);
vertOrigin = 90;
vertWidth = 1312;
width = 673;
}
);
unicode = 1B1BF;
},
{
glyphname = u1B1C0;
lastChange = "2020-03-23 17:13:43 +0000";
layers = (
{
layerId = "CFFEBDE4-599A-46B2-9328-D96E42CD9C81";
paths = (
{
closed = 1;
nodes = (
"348 -293 LINE",
"370 -159 OFFCURVE",
"378 -58 OFFCURVE",
"378 101 CURVE SMOOTH",
"378 339 OFFCURVE",
"305 643 OFFCURVE",
"188 888 CURVE",
"118 855 LINE",
"237 594 OFFCURVE",
"296 321 OFFCURVE",
"296 92 CURVE SMOOTH",
"296 -67 OFFCURVE",
"287 -163 OFFCURVE",
"266 -282 CURVE"
);
},
{
closed = 1;
nodes = (
"388 939 LINE",
"291 753 OFFCURVE",
"160 606 OFFCURVE",
"20 459 CURVE",
"57 321 OFFCURVE",
"76 223 OFFCURVE",
"91 94 CURVE",
"163 67 LINE",
"315 194 OFFCURVE",
"450 336 OFFCURVE",
"557 489 CURVE",
"539 651 OFFCURVE",
"506 780 OFFCURVE",
"462 924 CURVE"
);
},
{
closed = 1;
nodes = (
"390 881 LINE",
"430 744 OFFCURVE",
"460 606 OFFCURVE",
"478 485 CURVE",
"502 562 LINE",
"407 414 OFFCURVE",
"272 267 OFFCURVE",
"136 156 CURVE",
"166 133 LINE",
"151 249 OFFCURVE",
"130 360 OFFCURVE",
"100 468 CURVE",
"67 394 LINE",
"198 524 OFFCURVE",
"354 704 OFFCURVE",
"430 852 CURVE"
);
}
);
vertOrigin = 90;
vertWidth = 1312;
width = 577;
}
);
unicode = 1B1C0;
},
{
glyphname = u1B1C1;
lastChange = "2020-03-23 17:13:53 +0000";
layers = (
{
layerId = "CFFEBDE4-599A-46B2-9328-D96E42CD9C81";
paths = (
{
closed = 1;
nodes = (
"629 461 OFFCURVE",
"652 478 OFFCURVE",
"652 517 CURVE SMOOTH",
"652 556 OFFCURVE",
"629 573 OFFCURVE",
"601 573 CURVE SMOOTH",
"572 573 OFFCURVE",
"549 556 OFFCURVE",
"549 517 CURVE SMOOTH",
"549 478 OFFCURVE",
"572 461 OFFCURVE",
"601 461 CURVE SMOOTH"
);
},
{
closed = 1;
nodes = (
"389 634 OFFCURVE",
"323 435 OFFCURVE",
"219 276 CURVE",
"254 191 LINE",
"393 387 OFFCURVE",
"465 581 OFFCURVE",
"496 931 CURVE",
"412 939 LINE"
);
},
{
closed = 1;
nodes = (
"372 489 LINE",
"421 353 OFFCURVE",
"464 214 OFFCURVE",
"483 44 CURVE",
"570 56 LINE",
"553 253 OFFCURVE",
"498 400 OFFCURVE",
"427 553 CURVE"
);
},
{
closed = 1;
nodes = (
"100 76 OFFCURVE",
"123 93 OFFCURVE",
"123 132 CURVE SMOOTH",
"123 171 OFFCURVE",
"100 188 OFFCURVE",
"72 188 CURVE SMOOTH",
"43 188 OFFCURVE",
"20 171 OFFCURVE",
"20 132 CURVE SMOOTH",
"20 93 OFFCURVE",
"43 76 OFFCURVE",
"72 76 CURVE SMOOTH"
);
},
{
closed = 1;
nodes = (
"174 425 OFFCURVE",
"219 274 OFFCURVE",
"219 97 CURVE SMOOTH",
"219 -40 OFFCURVE",
"202 -135 OFFCURVE",
"145 -264 CURVE",
"223 -293 LINE",
"280 -165 OFFCURVE",
"303 -54 OFFCURVE",
"303 109 CURVE SMOOTH",
"303 294 OFFCURVE",
"255 465 OFFCURVE",
"153 639 CURVE",
"78 595 LINE"
);
}
);
vertOrigin = 90;
vertWidth = 1312;
width = 672;
}
);
unicode = 1B1C1;
},
{
glyphname = u1B1C2;
lastChange = "2020-03-23 17:13:59 +0000";
layers = (
{
layerId = "CFFEBDE4-599A-46B2-9328-D96E42CD9C81";
paths = (
{
closed = 1;
nodes = (
"363 142 LINE",
"455 -19 OFFCURVE",
"507 -134 OFFCURVE",
"544 -261 CURVE",
"620 -227 LINE",
"577 -83 OFFCURVE",
"522 29 OFFCURVE",
"434 189 CURVE"
);
},
{
closed = 1;
nodes = (
"399 939 LINE",
"298 703 OFFCURVE",
"180 556 OFFCURVE",
"20 403 CURVE",
"79 345 LINE",
"265 522 OFFCURVE",
"371 673 OFFCURVE",
"479 909 CURVE"
);
},
{
closed = 1;
nodes = (
"490 607 LINE",
"361 397 OFFCURVE",
"241 262 OFFCURVE",
"95 133 CURVE",
"152 74 LINE",
"280 181 OFFCURVE",
"428 345 OFFCURVE",
"562 566 CURVE"
);
},
{
closed = 1;
nodes = (
"302 -293 LINE",
"433 -181 OFFCURVE",
"533 -38 OFFCURVE",
"636 149 CURVE",
"558 187 LINE",
"472 20 OFFCURVE",
"384 -105 OFFCURVE",
"274 -222 CURVE",
"299 -227 LINE",
"321 -134 OFFCURVE",
"330 -17 OFFCURVE",
"330 94 CURVE SMOOTH",
"330 294 OFFCURVE",
"309 445 OFFCURVE",
"266 642 CURVE",
"202 545 LINE",
"238 382 OFFCURVE",
"246 265 OFFCURVE",
"246 80 CURVE SMOOTH",
"246 -62 OFFCURVE",
"238 -149 OFFCURVE",
"213 -254 CURVE"
);
}
);
vertOrigin = 90;
vertWidth = 1312;
width = 656;
}
);
unicode = 1B1C2;
},
{
glyphname = u1B1C3;
lastChange = "2020-03-23 17:14:07 +0000";
layers = (
{
layerId = "CFFEBDE4-599A-46B2-9328-D96E42CD9C81";
paths = (
{
closed = 1;
nodes = (
"420 870 LINE",
"476 698 OFFCURVE",
"492 557 OFFCURVE",
"492 384 CURVE SMOOTH",
"492 256 OFFCURVE",
"486 155 OFFCURVE",
"477 71 CURVE",
"556 63 LINE",
"564 165 OFFCURVE",
"570 259 OFFCURVE",
"570 357 CURVE SMOOTH",
"570 594 OFFCURVE",
"545 745 OFFCURVE",
"484 930 CURVE",
"404 939 LINE",
"270 757 OFFCURVE",
"155 640 OFFCURVE",
"20 528 CURVE",
"41 343 OFFCURVE",
"51 189 OFFCURVE",
"51 65 CURVE SMOOTH",
"51 -73 OFFCURVE",
"41 -189 OFFCURVE",
"27 -283 CURVE",
"100 -293 LINE",
"117 -185 OFFCURVE",
"124 -68 OFFCURVE",
"124 65 CURVE SMOOTH",
"124 237 OFFCURVE",
"113 366 OFFCURVE",
"94 535 CURVE",
"78 471 LINE",
"214 590 OFFCURVE",
"342 714 OFFCURVE",
"461 880 CURVE"
);
},
{
closed = 1;
nodes = (
"138 415 LINE",
"231 342 OFFCURVE",
"325 251 OFFCURVE",
"408 156 CURVE",
"462 213 LINE",
"368 320 OFFCURVE",
"281 400 OFFCURVE",
"185 474 CURVE"
);
},
{
closed = 1;
nodes = (
"346 659 LINE",
"310 440 OFFCURVE",
"243 203 OFFCURVE",
"158 -5 CURVE",
"233 -30 LINE",
"322 191 OFFCURVE",
"382 406 OFFCURVE",
"424 647 CURVE"
);
}
);
vertOrigin = 90;
vertWidth = 1312;
width = 620;
}
);
unicode = 1B1C3;
},
{
glyphname = u1B1C4;
lastChange = "2020-03-23 17:00:55 +0000";
layers = (
{
background = {
paths = (
{
closed = 1;
nodes = (
"56 289 LINE",
"177 99 OFFCURVE",
"250 -70 OFFCURVE",
"311 -293 CURVE",
"394 -270 LINE",
"327 -29 OFFCURVE",
"249 145 OFFCURVE",
"123 360 CURVE",
"125 289 LINE",
"225 500 OFFCURVE",
"286 679 OFFCURVE",
"334 919 CURVE",
"250 939 LINE",
"206 714 OFFCURVE",
"138 533 OFFCURVE",
"56 360 CURVE"
);
},
{
closed = 1;
nodes = (
"262 578 OFFCURVE",
"294 420 OFFCURVE",
"294 343 CURVE SMOOTH",
"294 212 OFFCURVE",
"229 80 OFFCURVE",
"64 -136 CURVE",
"124 -188 LINE",
"291 20 OFFCURVE",
"378 200 OFFCURVE",
"378 343 CURVE SMOOTH",
"378 470 OFFCURVE",
"320 637 OFFCURVE",
"85 816 CURVE",
"30 750 LINE"
);
}
);
};
layerId = "CFFEBDE4-599A-46B2-9328-D96E42CD9C81";
paths = (
{
closed = 1;
nodes = (
"392 252 OFFCURVE",
"417 197 OFFCURVE",
"512 144 CURVE",
"593 165 LINE",
"646 277 OFFCURVE",
"663 352 OFFCURVE",
"663 433 CURVE SMOOTH",
"663 514 OFFCURVE",
"629 564 OFFCURVE",
"537 625 CURVE",
"461 615 LINE",
"410 494 OFFCURVE",
"392 416 OFFCURVE",
"392 338 CURVE SMOOTH"
);
},
{
closed = 1;
nodes = (
"492 567 LINE",
"560 511 OFFCURVE",
"583 483 OFFCURVE",
"583 418 CURVE SMOOTH",
"583 361 OFFCURVE",
"566 293 OFFCURVE",
"527 194 CURVE",
"551 210 LINE",
"498 248 OFFCURVE",
"475 281 OFFCURVE",
"475 347 CURVE SMOOTH",
"475 403 OFFCURVE",
"492 469 OFFCURVE",
"526 564 CURVE"
);
},
{
closed = 1;
nodes = (
"46 289 LINE",
"189 99 OFFCURVE",
"280 -70 OFFCURVE",
"341 -293 CURVE",
"424 -270 LINE",
"357 -29 OFFCURVE",
"261 145 OFFCURVE",
"113 360 CURVE",
"115 289 LINE",
"243 500 OFFCURVE",
"326 679 OFFCURVE",
"374 919 CURVE",
"290 939 LINE",
"246 714 OFFCURVE",
"156 533 OFFCURVE",
"46 360 CURVE"
);
},
{
closed = 1;
nodes = (
"222 558 OFFCURVE",
"269 440 OFFCURVE",
"269 343 CURVE SMOOTH",
"269 193 OFFCURVE",
"206 69 OFFCURVE",
"41 -158 CURVE",
"103 -207 LINE",
"270 12 OFFCURVE",
"353 165 OFFCURVE",
"353 343 CURVE SMOOTH",
"353 485 OFFCURVE",
"280 617 OFFCURVE",
"75 816 CURVE",
"20 750 LINE"
);
}
);
vertOrigin = 90;
vertWidth = 1312;
width = 673;
}
);
unicode = 1B1C4;
},
{
glyphname = u1B1C5;
lastChange = "2020-03-23 17:00:55 +0000";
layers = (
{
layerId = "CFFEBDE4-599A-46B2-9328-D96E42CD9C81";
paths = (
{
closed = 1;
nodes = (
"194 -61 OFFCURVE",
"217 -44 OFFCURVE",
"217 -5 CURVE SMOOTH",
"217 34 OFFCURVE",
"194 51 OFFCURVE",
"166 51 CURVE SMOOTH",
"137 51 OFFCURVE",
"114 34 OFFCURVE",
"114 -5 CURVE SMOOTH",
"114 -44 OFFCURVE",
"137 -61 OFFCURVE",
"166 -61 CURVE SMOOTH"
);
},
{
closed = 1;
nodes = (
"467 356 OFFCURVE",
"490 373 OFFCURVE",
"490 412 CURVE SMOOTH",
"490 451 OFFCURVE",
"467 468 OFFCURVE",
"439 468 CURVE SMOOTH",
"410 468 OFFCURVE",
"387 451 OFFCURVE",
"387 412 CURVE SMOOTH",
"387 373 OFFCURVE",
"410 356 OFFCURVE",
"439 356 CURVE SMOOTH"
);
},
{
closed = 1;
nodes = (
"414 939 LINE",
"290 574 OFFCURVE",
"190 374 OFFCURVE",
"20 142 CURVE",
"84 89 LINE",
"254 317 OFFCURVE",
"373 554 OFFCURVE",
"496 915 CURVE"
);
},
{
closed = 1;
nodes = (
"523 307 LINE",
"423 99 OFFCURVE",
"313 -79 OFFCURVE",
"169 -242 CURVE",
"234 -293 LINE",
"393 -104 OFFCURVE",
"490 45 OFFCURVE",
"600 269 CURVE"
);
},
{
closed = 1;
nodes = (
"419 -17 LINE",
"336 279 OFFCURVE",
"257 481 OFFCURVE",
"129 728 CURVE",
"52 686 LINE",
"175 447 OFFCURVE",
"263 235 OFFCURVE",
"340 -49 CURVE"
);
}
);
vertOrigin = 90;
vertWidth = 1312;
width = 620;
}
);
unicode = 1B1C5;
},
{
glyphname = u1B1C6;
lastChange = "2020-03-23 17:14:15 +0000";
layers = (
{
layerId = "CFFEBDE4-599A-46B2-9328-D96E42CD9C81";
paths = (
{
closed = 1;
nodes = (
"192 -46 OFFCURVE",
"215 -29 OFFCURVE",
"215 10 CURVE SMOOTH",
"215 49 OFFCURVE",
"192 66 OFFCURVE",
"164 66 CURVE SMOOTH",
"135 66 OFFCURVE",
"112 49 OFFCURVE",
"112 10 CURVE SMOOTH",
"112 -29 OFFCURVE",
"135 -46 OFFCURVE",
"164 -46 CURVE SMOOTH"
);
},
{
closed = 1;
nodes = (
"460 366 OFFCURVE",
"483 383 OFFCURVE",
"483 422 CURVE SMOOTH",
"483 461 OFFCURVE",
"460 478 OFFCURVE",
"432 478 CURVE SMOOTH",
"403 478 OFFCURVE",
"380 461 OFFCURVE",
"380 422 CURVE SMOOTH",
"380 383 OFFCURVE",
"403 366 OFFCURVE",
"432 366 CURVE SMOOTH"
);
},
{
closed = 1;
nodes = (
"187 388 LINE",
"256 230 OFFCURVE",
"300 91 OFFCURVE",
"335 -53 CURVE",
"414 -22 LINE",
"376 130 OFFCURVE",
"330 284 OFFCURVE",
"252 456 CURVE"
);
},
{
closed = 1;
nodes = (
"381 939 LINE",
"287 633 OFFCURVE",
"170 376 OFFCURVE",
"20 162 CURVE",
"84 109 LINE",
"234 319 OFFCURVE",
"373 613 OFFCURVE",
"466 911 CURVE"
);
},
{
closed = 1;
nodes = (
"522 319 LINE",
"426 102 OFFCURVE",
"313 -79 OFFCURVE",
"169 -242 CURVE",
"234 -293 LINE",
"393 -104 OFFCURVE",
"493 48 OFFCURVE",
"599 281 CURVE"
);
}
);
vertOrigin = 90;
vertWidth = 1312;
width = 619;
}
);
unicode = 1B1C6;
},
{
glyphname = u1B1C7;
lastChange = "2020-03-23 17:14:18 +0000";
layers = (
{
background = {
paths = (
{
closed = 1;
nodes = (
"647 152 OFFCURVE",
"670 169 OFFCURVE",
"670 208 CURVE SMOOTH",
"670 247 OFFCURVE",
"647 264 OFFCURVE",
"619 264 CURVE SMOOTH",
"590 264 OFFCURVE",
"567 247 OFFCURVE",
"567 208 CURVE SMOOTH",
"567 169 OFFCURVE",
"590 152 OFFCURVE",
"619 152 CURVE SMOOTH"
);
},
{
closed = 1;
nodes = (
"247 -125 OFFCURVE",
"270 -108 OFFCURVE",
"270 -69 CURVE SMOOTH",
"270 -30 OFFCURVE",
"247 -13 OFFCURVE",
"219 -13 CURVE SMOOTH",
"190 -13 OFFCURVE",
"167 -30 OFFCURVE",
"167 -69 CURVE SMOOTH",
"167 -108 OFFCURVE",
"190 -125 OFFCURVE",
"219 -125 CURVE SMOOTH"
);
},
{
closed = 1;
nodes = (
"431 939 LINE",
"327 749 OFFCURVE",
"208 601 OFFCURVE",
"40 449 CURVE",
"93 386 LINE",
"267 536 OFFCURVE",
"394 693 OFFCURVE",
"505 899 CURVE"
);
},
{
closed = 1;
nodes = (
"451 710 OFFCURVE",
"471 666 OFFCURVE",
"471 603 CURVE SMOOTH",
"471 474 OFFCURVE",
"382 363 OFFCURVE",
"101 134 CURVE",
"156 71 LINE",
"466 308 OFFCURVE",
"557 449 OFFCURVE",
"557 603 CURVE SMOOTH",
"557 693 OFFCURVE",
"529 758 OFFCURVE",
"435 840 CURVE",
"384 773 LINE"
);
},
{
closed = 1;
nodes = (
"352 269 LINE",
"377 143 OFFCURVE",
"382 40 OFFCURVE",
"382 -51 CURVE SMOOTH",
"382 -139 OFFCURVE",
"379 -199 OFFCURVE",
"368 -284 CURVE",
"453 -293 LINE",
"464 -204 OFFCURVE",
"468 -126 OFFCURVE",
"468 -39 CURVE SMOOTH",
"468 68 OFFCURVE",
"457 190 OFFCURVE",
"422 347 CURVE"
);
}
);
};
layerId = "CFFEBDE4-599A-46B2-9328-D96E42CD9C81";
paths = (
{
closed = 1;
nodes = (
"507 939 LINE",
"368 756 OFFCURVE",
"218 610 OFFCURVE",
"10 459 CURVE",
"59 392 LINE",
"290 551 OFFCURVE",
"426 693 OFFCURVE",
"577 896 CURVE"
);
},
{
closed = 1;
nodes = (
"510 727 OFFCURVE",
"530 679 OFFCURVE",
"530 615 CURVE SMOOTH",
"530 516 OFFCURVE",
"445 405 OFFCURVE",
"91 170 CURVE",
"137 103 LINE",
"507 349 OFFCURVE",
"614 464 OFFCURVE",
"614 626 CURVE SMOOTH",
"614 698 OFFCURVE",
"589 764 OFFCURVE",
"512 830 CURVE",
"450 783 LINE"
);
},
{
closed = 1;
nodes = (
"146 815 LINE",
"300 509 OFFCURVE",
"382 271 OFFCURVE",
"382 -60 CURVE SMOOTH",
"382 -140 OFFCURVE",
"378 -207 OFFCURVE",
"368 -284 CURVE",
"453 -293 LINE",
"462 -210 OFFCURVE",
"468 -136 OFFCURVE",
"468 -39 CURVE SMOOTH",
"468 265 OFFCURVE",
"387 536 OFFCURVE",
"217 853 CURVE"
);
},
{
closed = 1;
nodes = (
"243 -100 OFFCURVE",
"266 -83 OFFCURVE",
"266 -44 CURVE SMOOTH",
"266 -5 OFFCURVE",
"243 12 OFFCURVE",
"215 12 CURVE SMOOTH",
"186 12 OFFCURVE",
"163 -5 OFFCURVE",
"163 -44 CURVE SMOOTH",
"163 -83 OFFCURVE",
"186 -100 OFFCURVE",
"215 -100 CURVE SMOOTH"
);
},
{
closed = 1;
nodes = (
"650 158 OFFCURVE",
"673 175 OFFCURVE",
"673 214 CURVE SMOOTH",
"673 253 OFFCURVE",
"650 270 OFFCURVE",
"622 270 CURVE SMOOTH",
"593 270 OFFCURVE",
"570 253 OFFCURVE",
"570 214 CURVE SMOOTH",
"570 175 OFFCURVE",
"593 158 OFFCURVE",
"622 158 CURVE SMOOTH"
);
}
);
vertOrigin = 90;
vertWidth = 1312;
width = 703;
}
);
unicode = 1B1C7;
},
{
glyphname = u1B1C8;
lastChange = "2020-03-23 17:14:22 +0000";
layers = (
{
layerId = "CFFEBDE4-599A-46B2-9328-D96E42CD9C81";
paths = (
{
closed = 1;
nodes = (
"376 633 LINE",
"321 413 OFFCURVE",
"253 243 OFFCURVE",
"165 60 CURVE",
"214 -27 LINE",
"307 161 OFFCURVE",
"369 306 OFFCURVE",
"425 503 CURVE"
);
},
{
closed = 1;
nodes = (
"252 778 LINE",
"342 620 OFFCURVE",
"423 468 OFFCURVE",
"508 256 CURVE",
"519 408 LINE",
"454 189 OFFCURVE",
"373 -8 OFFCURVE",
"296 -168 CURVE",
"325 -186 LINE",
"267 -20 OFFCURVE",
"190 133 OFFCURVE",
"105 303 CURVE",
"96 201 LINE",
"195 430 OFFCURVE",
"265 604 OFFCURVE",
"343 919 CURVE",
"257 939 LINE",
"183 638 OFFCURVE",
"107 442 OFFCURVE",
"30 260 CURVE",
"118 79 OFFCURVE",
"200 -76 OFFCURVE",
"251 -243 CURVE",
"339 -253 LINE",
"438 -62 OFFCURVE",
"518 111 OFFCURVE",
"584 331 CURVE",
"504 514 OFFCURVE",
"418 678 OFFCURVE",
"316 854 CURVE"
);
}
);
vertOrigin = 90;
vertWidth = 1312;
width = 614;
}
);
unicode = 1B1C8;
},
{
glyphname = u1B1C9;
lastChange = "2020-03-23 17:14:26 +0000";
layers = (
{
layerId = "CFFEBDE4-599A-46B2-9328-D96E42CD9C81";
paths = (
{
closed = 1;
nodes = (
"237 119 LINE",
"176 -28 OFFCURVE",
"107 -140 OFFCURVE",
"15 -241 CURVE",
"78 -293 LINE",
"189 -161 OFFCURVE",
"252 -50 OFFCURVE",
"313 87 CURVE"
);
},
{
closed = 1;
nodes = (
"24 33 LINE",
"116 -70 OFFCURVE",
"173 -154 OFFCURVE",
"232 -274 CURVE",
"303 -233 LINE",
"242 -111 OFFCURVE",
"169 -11 OFFCURVE",
"87 86 CURVE"
);
},
{
closed = 1;
nodes = (
"421 939 LINE",
"317 790 OFFCURVE",
"187 671 OFFCURVE",
"10 539 CURVE",
"64 472 LINE",
"247 602 OFFCURVE",
"385 730 OFFCURVE",
"496 895 CURVE"
);
},
{
closed = 1;
nodes = (
"438 742 OFFCURVE",
"461 689 OFFCURVE",
"461 634 CURVE SMOOTH",
"461 523 OFFCURVE",
"390 435 OFFCURVE",
"91 234 CURVE",
"139 164 LINE",
"449 366 OFFCURVE",
"547 490 OFFCURVE",
"547 619 CURVE SMOOTH",
"547 709 OFFCURVE",
"519 778 OFFCURVE",
"425 860 CURVE",
"371 792 LINE"
);
},
{
closed = 1;
nodes = (
"342 329 LINE",
"367 203 OFFCURVE",
"372 140 OFFCURVE",
"372 49 CURVE SMOOTH",
"372 -39 OFFCURVE",
"369 -99 OFFCURVE",
"358 -184 CURVE",
"443 -193 LINE",
"454 -104 OFFCURVE",
"458 -26 OFFCURVE",
"458 61 CURVE SMOOTH",
"458 168 OFFCURVE",
"446 266 OFFCURVE",
"412 407 CURVE"
);
}
);
vertOrigin = 90;
vertWidth = 1312;
width = 577;
}
);
unicode = 1B1C9;
},
{
glyphname = u1B1CA;
lastChange = "2020-03-23 17:14:31 +0000";
layers = (
{
layerId = "CFFEBDE4-599A-46B2-9328-D96E42CD9C81";
paths = (
{
closed = 1;
nodes = (
"408 83 LINE",
"511 197 OFFCURVE",
"553 264 OFFCURVE",
"612 388 CURVE",
"584 386 LINE",
"610 298 OFFCURVE",
"617 200 OFFCURVE",
"609 68 CURVE",
"695 68 LINE",
"703 219 OFFCURVE",
"685 340 OFFCURVE",
"651 443 CURVE",
"564 453 LINE",
"500 328 OFFCURVE",
"451 248 OFFCURVE",
"378 162 CURVE"
);
},
{
closed = 1;
nodes = (
"219 597 LINE",
"295 421 OFFCURVE",
"342 202 OFFCURVE",
"342 17 CURVE SMOOTH",
"342 -98 OFFCURVE",
"335 -191 OFFCURVE",
"320 -284 CURVE",
"399 -293 LINE",
"413 -198 OFFCURVE",
"422 -100 OFFCURVE",
"422 27 CURVE SMOOTH",
"422 233 OFFCURVE",
"370 458 OFFCURVE",
"271 665 CURVE"
);
},
{
closed = 1;
nodes = (
"387 939 LINE",
"293 732 OFFCURVE",
"163 545 OFFCURVE",
"10 396 CURVE",
"67 344 LINE",
"224 495 OFFCURVE",
"356 674 OFFCURVE",
"461 912 CURVE"
);
},
{
closed = 1;
nodes = (
"509 709 LINE",
"394 506 OFFCURVE",
"271 336 OFFCURVE",
"85 165 CURVE",
"136 108 LINE",
"325 276 OFFCURVE",
"451 447 OFFCURVE",
"582 667 CURVE"
);
}
);
vertOrigin = 90;
vertWidth = 1312;
width = 707;
}
);
unicode = 1B1CA;
},
{
glyphname = u1B1CB;
lastChange = "2020-03-23 17:14:40 +0000";
layers = (
{
layerId = "CFFEBDE4-599A-46B2-9328-D96E42CD9C81";
paths = (
{
closed = 1;
nodes = (
"167 104 OFFCURVE",
"190 121 OFFCURVE",
"190 160 CURVE SMOOTH",
"190 199 OFFCURVE",
"167 216 OFFCURVE",
"139 216 CURVE SMOOTH",
"110 216 OFFCURVE",
"87 199 OFFCURVE",
"87 160 CURVE SMOOTH",
"87 121 OFFCURVE",
"110 104 OFFCURVE",
"139 104 CURVE SMOOTH"
);
},
{
closed = 1;
nodes = (
"100 -78 OFFCURVE",
"123 -61 OFFCURVE",
"123 -22 CURVE SMOOTH",
"123 17 OFFCURVE",
"100 34 OFFCURVE",
"72 34 CURVE SMOOTH",
"43 34 OFFCURVE",
"20 17 OFFCURVE",
"20 -22 CURVE SMOOTH",
"20 -61 OFFCURVE",
"43 -78 OFFCURVE",
"72 -78 CURVE SMOOTH"
);
},
{
closed = 1;
nodes = (
"106 451 LINE",
"221 303 OFFCURVE",
"352 85 OFFCURVE",
"460 -150 CURVE",
"532 -108 LINE",
"418 135 OFFCURVE",
"281 363 OFFCURVE",
"155 529 CURVE",
"165 455 LINE",
"244 597 OFFCURVE",
"313 754 OFFCURVE",
"354 925 CURVE",
"271 939 LINE",
"222 771 OFFCURVE",
"167 642 OFFCURVE",
"106 522 CURVE"
);
},
{
closed = 1;
nodes = (
"318 692 OFFCURVE",
"357 612 OFFCURVE",
"357 482 CURVE SMOOTH",
"357 298 OFFCURVE",
"270 61 OFFCURVE",
"109 -256 CURVE",
"182 -293 LINE",
"348 20 OFFCURVE",
"443 288 OFFCURVE",
"443 482 CURVE SMOOTH",
"443 631 OFFCURVE",
"398 723 OFFCURVE",
"298 863 CURVE",
"263 770 LINE"
);
}
);
vertOrigin = 90;
vertWidth = 1312;
width = 562;
}
);
unicode = 1B1CB;
},
{
glyphname = u1B1CC;
lastChange = "2020-03-23 17:14:48 +0000";
layers = (
{
layerId = "CFFEBDE4-599A-46B2-9328-D96E42CD9C81";
paths = (
{
closed = 1;
nodes = (
"426 680 LINE",
"322 534 OFFCURVE",
"220 433 OFFCURVE",
"97 335 CURVE",
"144 272 LINE",
"271 374 OFFCURVE",
"386 482 OFFCURVE",
"492 635 CURVE"
);
},
{
closed = 1;
nodes = (
"255 -14 OFFCURVE",
"286 -82 OFFCURVE",
"385 -147 CURVE",
"459 -135 LINE",
"515 -29 OFFCURVE",
"536 40 OFFCURVE",
"536 118 CURVE SMOOTH",
"536 205 OFFCURVE",
"498 254 OFFCURVE",
"406 320 CURVE",
"322 308 LINE",
"265 179 OFFCURVE",
"255 118 OFFCURVE",
"255 56 CURVE SMOOTH"
);
},
{
closed = 1;
nodes = (
"356 258 LINE",
"433 203 OFFCURVE",
"456 167 OFFCURVE",
"456 114 CURVE SMOOTH",
"456 59 OFFCURVE",
"443 7 OFFCURVE",
"403 -83 CURVE",
"421 -77 LINE",
"365 -35 OFFCURVE",
"335 1 OFFCURVE",
"335 66 CURVE SMOOTH",
"335 117 OFFCURVE",
"344 161 OFFCURVE",
"385 260 CURVE"
);
},
{
closed = 1;
nodes = (
"318 939 LINE",
"238 771 OFFCURVE",
"147 653 OFFCURVE",
"30 536 CURVE",
"70 359 OFFCURVE",
"85 221 OFFCURVE",
"85 45 CURVE SMOOTH",
"85 -86 OFFCURVE",
"77 -171 OFFCURVE",
"57 -279 CURVE",
"135 -293 LINE",
"158 -176 OFFCURVE",
"165 -74 OFFCURVE",
"165 66 CURVE SMOOTH",
"165 222 OFFCURVE",
"147 374 OFFCURVE",
"104 547 CURVE",
"109 498 LINE",
"217 608 OFFCURVE",
"307 732 OFFCURVE",
"396 907 CURVE"
);
}
);
vertOrigin = 90;
vertWidth = 1312;
width = 566;
}
);
unicode = 1B1CC;
},
{
glyphname = u1B1CD;
lastChange = "2020-03-23 17:00:55 +0000";
layers = (
{
layerId = "CFFEBDE4-599A-46B2-9328-D96E42CD9C81";
paths = (
{
closed = 1;
nodes = (
"409 939 LINE",
"323 701 OFFCURVE",
"231 531 OFFCURVE",
"103 368 CURVE",
"163 316 LINE",
"291 481 OFFCURVE",
"405 684 OFFCURVE",
"484 914 CURVE"
);
},
{
closed = 1;
nodes = (
"530 362 LINE",
"466 223 OFFCURVE",
"397 102 OFFCURVE",
"287 -35 CURVE",
"346 -88 LINE",
"466 55 OFFCURVE",
"531 170 OFFCURVE",
"603 329 CURVE"
);
},
{
closed = 1;
nodes = (
"265 538 LINE",
"328 387 OFFCURVE",
"361 254 OFFCURVE",
"395 81 CURVE",
"465 119 LINE",
"435 309 OFFCURVE",
"396 437 OFFCURVE",
"320 619 CURVE"
);
},
{
closed = 1;
nodes = (
"229 157 LINE",
"168 -12 OFFCURVE",
"107 -128 OFFCURVE",
"15 -241 CURVE",
"78 -293 LINE",
"189 -149 OFFCURVE",
"244 -34 OFFCURVE",
"305 125 CURVE"
);
},
{
closed = 1;
nodes = (
"10 12 LINE",
"121 -70 OFFCURVE",
"194 -140 OFFCURVE",
"276 -247 CURVE",
"337 -192 LINE",
"253 -85 OFFCURVE",
"161 -2 OFFCURVE",
"61 77 CURVE"
);
}
);
vertOrigin = 90;
vertWidth = 1312;
width = 643;
}
);
unicode = 1B1CD;
},
{
glyphname = u1B1CE;
lastChange = "2020-03-23 17:15:50 +0000";
layers = (
{
layerId = "CFFEBDE4-599A-46B2-9328-D96E42CD9C81";
paths = (
{
closed = 1;
nodes = (
"440 244 OFFCURVE",
"331 352 OFFCURVE",
"227 441 CURVE",
"235 393 LINE",
"284 545 OFFCURVE",
"317 669 OFFCURVE",
"365 924 CURVE",
"279 939 LINE",
"238 714 OFFCURVE",
"206 584 OFFCURVE",
"146 397 CURVE",
"272 293 OFFCURVE",
"388 172 OFFCURVE",
"475 68 CURVE",
"562 82 LINE",
"614 232 OFFCURVE",
"651 375 OFFCURVE",
"685 556 CURVE",
"599 576 LINE",
"564 394 OFFCURVE",
"535 274 OFFCURVE",
"491 134 CURVE",
"529 143 LINE"
);
},
{
closed = 1;
nodes = (
"262 -101 LINE",
"302 -3 OFFCURVE",
"342 117 OFFCURVE",
"376 274 CURVE",
"301 298 LINE",
"271 156 OFFCURVE",
"238 56 OFFCURVE",
"197 -54 CURVE"
);
},
{
closed = 1;
nodes = (
"419 -237 LINE",
"333 -122 OFFCURVE",
"201 19 OFFCURVE",
"71 134 CURVE",
"20 63 LINE",
"138 -39 OFFCURVE",
"277 -186 OFFCURVE",
"361 -293 CURVE"
);
}
);
vertOrigin = 90;
vertWidth = 1312;
width = 705;
}
);
unicode = 1B1CE;
},
{
glyphname = u1B1CF;
lastChange = "2020-03-23 17:15:42 +0000";
layers = (
{
layerId = "CFFEBDE4-599A-46B2-9328-D96E42CD9C81";
paths = (
{
closed = 1;
nodes = (
"184 292 LINE",
"165 400 OFFCURVE",
"132 505 OFFCURVE",
"86 611 CURVE",
"10 576 LINE",
"59 453 OFFCURVE",
"86 372 OFFCURVE",
"114 256 CURVE",
"208 230 LINE",
"365 441 OFFCURVE",
"460 645 OFFCURVE",
"522 919 CURVE",
"437 939 LINE",
"379 669 OFFCURVE",
"296 495 OFFCURVE",
"158 293 CURVE"
);
},
{
closed = 1;
nodes = (
"339 -293 LINE",
"388 -156 OFFCURVE",
"409 -29 OFFCURVE",
"409 153 CURVE SMOOTH",
"409 382 OFFCURVE",
"355 601 OFFCURVE",
"221 846 CURVE",
"147 806 LINE",
"282 558 OFFCURVE",
"323 374 OFFCURVE",
"323 153 CURVE SMOOTH",
"323 -14 OFFCURVE",
"299 -131 OFFCURVE",
"253 -269 CURVE"
);
},
{
closed = 1;
nodes = (
"550 378 OFFCURVE",
"573 395 OFFCURVE",
"573 434 CURVE SMOOTH",
"573 473 OFFCURVE",
"550 490 OFFCURVE",
"522 490 CURVE SMOOTH",
"493 490 OFFCURVE",
"470 473 OFFCURVE",
"470 434 CURVE SMOOTH",
"470 395 OFFCURVE",
"493 378 OFFCURVE",
"522 378 CURVE SMOOTH"
);
},
{
closed = 1;
nodes = (
"576 133 OFFCURVE",
"599 150 OFFCURVE",
"599 189 CURVE SMOOTH",
"599 228 OFFCURVE",
"576 245 OFFCURVE",
"548 245 CURVE SMOOTH",
"519 245 OFFCURVE",
"496 228 OFFCURVE",
"496 189 CURVE SMOOTH",
"496 150 OFFCURVE",
"519 133 OFFCURVE",
"548 133 CURVE SMOOTH"
);
}
);
vertOrigin = 90;
vertWidth = 1312;
width = 619;
}
);
unicode = 1B1CF;
},
{
glyphname = u1B1D0;
lastChange = "2020-03-23 17:15:38 +0000";
layers = (
{
layerId = "CFFEBDE4-599A-46B2-9328-D96E42CD9C81";
paths = (
{
closed = 1;
nodes = (
"125 125 OFFCURVE",
"90 44 OFFCURVE",
"90 -46 CURVE SMOOTH",
"90 -159 OFFCURVE",
"144 -258 OFFCURVE",
"328 -293 CURVE",
"351 -216 LINE",
"211 -180 OFFCURVE",
"176 -106 OFFCURVE",
"176 -30 CURVE SMOOTH",
"176 36 OFFCURVE",
"194 81 OFFCURVE",
"247 123 CURVE",
"235 219 LINE",
"128 248 OFFCURVE",
"98 309 OFFCURVE",
"98 392 CURVE SMOOTH",
"98 449 OFFCURVE",
"118 504 OFFCURVE",
"171 555 CURVE",
"112 612 LINE",
"38 549 OFFCURVE",
"10 476 OFFCURVE",
"10 387 CURVE SMOOTH",
"10 270 OFFCURVE",
"72 181 OFFCURVE",
"198 142 CURVE",
"198 178 LINE"
);
},
{
closed = 1;
nodes = (
"468 939 LINE",
"382 701 OFFCURVE",
"310 561 OFFCURVE",
"182 398 CURVE",
"242 346 LINE",
"370 511 OFFCURVE",
"464 684 OFFCURVE",
"543 914 CURVE"
);
},
{
closed = 1;
nodes = (
"589 362 LINE",
"525 223 OFFCURVE",
"456 102 OFFCURVE",
"346 -35 CURVE",
"405 -88 LINE",
"525 55 OFFCURVE",
"590 170 OFFCURVE",
"662 329 CURVE"
);
},
{
closed = 1;
nodes = (
"324 538 LINE",
"387 387 OFFCURVE",
"420 254 OFFCURVE",
"454 81 CURVE",
"524 119 LINE",
"494 309 OFFCURVE",
"455 437 OFFCURVE",
"379 619 CURVE"
);
}
);
vertOrigin = 90;
vertWidth = 1312;
width = 672;
}
);
unicode = 1B1D0;
},
{
glyphname = u1B1D1;
lastChange = "2020-03-23 17:15:34 +0000";
layers = (
{
layerId = "CFFEBDE4-599A-46B2-9328-D96E42CD9C81";
paths = (
{
closed = 1;
nodes = (
"222 348 LINE",
"314 236 OFFCURVE",
"413 102 OFFCURVE",
"488 -31 CURVE",
"550 13 LINE",
"471 148 OFFCURVE",
"373 284 OFFCURVE",
"269 410 CURVE",
"266 352 LINE",
"339 447 OFFCURVE",
"403 549 OFFCURVE",
"463 670 CURVE",
"393 699 LINE",
"339 589 OFFCURVE",
"286 501 OFFCURVE",
"222 419 CURVE"
);
},
{
closed = 1;
nodes = (
"402 519 OFFCURVE",
"414 463 OFFCURVE",
"414 406 CURVE SMOOTH",
"414 258 OFFCURVE",
"371 161 OFFCURVE",
"205 -92 CURVE",
"266 -127 LINE",
"444 140 OFFCURVE",
"492 268 OFFCURVE",
"492 400 CURVE SMOOTH",
"492 481 OFFCURVE",
"469 552 OFFCURVE",
"399 660 CURVE",
"361 582 LINE"
);
},
{
closed = 1;
nodes = (
"318 939 LINE",
"238 771 OFFCURVE",
"147 653 OFFCURVE",
"30 536 CURVE",
"70 359 OFFCURVE",
"85 221 OFFCURVE",
"85 45 CURVE SMOOTH",
"85 -86 OFFCURVE",
"77 -171 OFFCURVE",
"57 -279 CURVE",
"135 -293 LINE",
"158 -176 OFFCURVE",
"165 -74 OFFCURVE",
"165 66 CURVE SMOOTH",
"165 222 OFFCURVE",
"147 374 OFFCURVE",
"104 547 CURVE",
"109 498 LINE",
"217 608 OFFCURVE",
"307 732 OFFCURVE",
"396 907 CURVE"
);
}
);
vertOrigin = 90;
vertWidth = 1312;
width = 570;
}
);
unicode = 1B1D1;
},
{
glyphname = u1B1D2;
lastChange = "2020-03-23 17:15:30 +0000";
layers = (
{
background = {
paths = (
{
closed = 1;
nodes = (
"507 939 LINE",
"368 756 OFFCURVE",
"218 610 OFFCURVE",
"10 459 CURVE",
"59 392 LINE",
"290 551 OFFCURVE",
"426 693 OFFCURVE",
"577 896 CURVE"
);
},
{
closed = 1;
nodes = (
"510 727 OFFCURVE",
"530 679 OFFCURVE",
"530 615 CURVE SMOOTH",
"530 516 OFFCURVE",
"445 405 OFFCURVE",
"91 170 CURVE",
"137 103 LINE",
"507 349 OFFCURVE",
"614 464 OFFCURVE",
"614 626 CURVE SMOOTH",
"614 698 OFFCURVE",
"589 764 OFFCURVE",
"512 830 CURVE",
"450 783 LINE"
);
},
{
closed = 1;
nodes = (
"146 815 LINE",
"300 509 OFFCURVE",
"382 271 OFFCURVE",
"382 -60 CURVE SMOOTH",
"382 -140 OFFCURVE",
"378 -207 OFFCURVE",
"368 -284 CURVE",
"453 -293 LINE",
"462 -210 OFFCURVE",
"468 -136 OFFCURVE",
"468 -39 CURVE SMOOTH",
"468 265 OFFCURVE",
"387 536 OFFCURVE",
"217 853 CURVE"
);
}
);
};
layerId = "CFFEBDE4-599A-46B2-9328-D96E42CD9C81";
paths = (
{
closed = 1;
nodes = (
"518 -40 OFFCURVE",
"558 -116 OFFCURVE",
"657 -180 CURVE",
"704 -123 LINE",
"620 -60 OFFCURVE",
"596 -4 OFFCURVE",
"596 81 CURVE SMOOTH",
"596 146 OFFCURVE",
"618 208 OFFCURVE",
"675 274 CURVE",
"615 317 LINE",
"543 236 OFFCURVE",
"518 160 OFFCURVE",
"518 71 CURVE SMOOTH"
);
},
{
closed = 1;
nodes = (
"742 26 OFFCURVE",
"765 43 OFFCURVE",
"765 82 CURVE SMOOTH",
"765 121 OFFCURVE",
"742 138 OFFCURVE",
"714 138 CURVE SMOOTH",
"685 138 OFFCURVE",
"662 121 OFFCURVE",
"662 82 CURVE SMOOTH",
"662 43 OFFCURVE",
"685 26 OFFCURVE",
"714 26 CURVE SMOOTH"
);
},
{
closed = 1;
nodes = (
"507 939 LINE",
"362 741 OFFCURVE",
"197 595 OFFCURVE",
"10 459 CURVE",
"59 392 LINE",
"266 536 OFFCURVE",
"420 678 OFFCURVE",
"577 896 CURVE"
);
},
{
closed = 1;
nodes = (
"511 729 OFFCURVE",
"531 679 OFFCURVE",
"531 620 CURVE SMOOTH",
"531 500 OFFCURVE",
"388 366 OFFCURVE",
"91 170 CURVE",
"137 103 LINE",
"481 322 OFFCURVE",
"614 458 OFFCURVE",
"614 626 CURVE SMOOTH",
"614 714 OFFCURVE",
"580 771 OFFCURVE",
"513 830 CURVE",
"451 783 LINE"
);
},
{
closed = 1;
nodes = (
"146 815 LINE",
"300 509 OFFCURVE",
"361 312 OFFCURVE",
"361 23 CURVE SMOOTH",
"361 -90 OFFCURVE",
"354 -174 OFFCURVE",
"335 -283 CURVE",
"417 -293 LINE",
"435 -174 OFFCURVE",
"441 -86 OFFCURVE",
"441 33 CURVE SMOOTH",
"441 319 OFFCURVE",
"383 532 OFFCURVE",
"217 853 CURVE"
);
}
);
vertOrigin = 90;
vertWidth = 1312;
width = 795;
}
);
unicode = 1B1D2;
},
{
glyphname = u1B1D3;
lastChange = "2020-03-23 17:15:26 +0000";
layers = (
{
background = {
paths = (
{
closed = 1;
nodes = (
"430 244 OFFCURVE",
"321 352 OFFCURVE",
"217 441 CURVE",
"225 393 LINE",
"274 545 OFFCURVE",
"307 669 OFFCURVE",
"355 924 CURVE",
"269 939 LINE",
"228 714 OFFCURVE",
"196 584 OFFCURVE",
"136 397 CURVE",
"262 293 OFFCURVE",
"378 172 OFFCURVE",
"465 68 CURVE",
"552 82 LINE",
"604 232 OFFCURVE",
"641 375 OFFCURVE",
"675 556 CURVE",
"589 576 LINE",
"554 394 OFFCURVE",
"525 274 OFFCURVE",
"481 134 CURVE",
"519 143 LINE"
);
},
{
closed = 1;
nodes = (
"252 -101 LINE",
"292 -3 OFFCURVE",
"332 117 OFFCURVE",
"366 274 CURVE",
"291 298 LINE",
"261 156 OFFCURVE",
"228 56 OFFCURVE",
"187 -54 CURVE"
);
},
{
closed = 1;
nodes = (
"409 -237 LINE",
"323 -122 OFFCURVE",
"191 19 OFFCURVE",
"61 134 CURVE",
"10 63 LINE",
"128 -39 OFFCURVE",
"267 -186 OFFCURVE",
"351 -293 CURVE"
);
}
);
};
layerId = "CFFEBDE4-599A-46B2-9328-D96E42CD9C81";
paths = (
{
closed = 1;
nodes = (
"470 188 OFFCURVE",
"346 322 OFFCURVE",
"193 448 CURVE",
"201 403 LINE",
"250 555 OFFCURVE",
"291 713 OFFCURVE",
"335 924 CURVE",
"249 939 LINE",
"212 758 OFFCURVE",
"172 594 OFFCURVE",
"112 407 CURVE",
"277 269 OFFCURVE",
"418 116 OFFCURVE",
"486 22 CURVE",
"583 22 LINE",
"661 191 OFFCURVE",
"702 319 OFFCURVE",
"754 506 CURVE",
"670 533 LINE",
"624 365 OFFCURVE",
"585 249 OFFCURVE",
"512 74 CURVE",
"550 83 LINE"
);
},
{
closed = 1;
nodes = (
"262 -101 LINE",
"384 174 OFFCURVE",
"464 403 OFFCURVE",
"532 664 CURVE",
"450 691 LINE",
"386 445 OFFCURVE",
"320 233 OFFCURVE",
"197 -54 CURVE"
);
},
{
closed = 1;
nodes = (
"409 -237 LINE",
"313 -110 OFFCURVE",
"197 12 OFFCURVE",
"61 134 CURVE",
"10 63 LINE",
"130 -43 OFFCURVE",
"247 -163 OFFCURVE",
"351 -293 CURVE"
);
}
);
vertOrigin = 90;
vertWidth = 1312;
width = 764;
}
);
unicode = 1B1D3;
},
{
glyphname = u1B1D4;
lastChange = "2020-03-23 17:15:18 +0000";
layers = (
{
layerId = "CFFEBDE4-599A-46B2-9328-D96E42CD9C81";
paths = (
{
closed = 1;
nodes = (
"10 -186 OFFCURVE",
"35 -225 OFFCURVE",
"103 -265 CURVE",
"174 -256 LINE",
"231 -178 OFFCURVE",
"255 -112 OFFCURVE",
"255 -41 CURVE SMOOTH",
"255 9 OFFCURVE",
"226 50 OFFCURVE",
"158 88 CURVE",
"84 78 LINE",
"33 -4 OFFCURVE",
"10 -68 OFFCURVE",
"10 -120 CURVE SMOOTH"
);
},
{
closed = 1;
nodes = (
"111 41 LINE",
"158 5 OFFCURVE",
"175 -26 OFFCURVE",
"175 -55 CURVE SMOOTH",
"175 -98 OFFCURVE",
"158 -142 OFFCURVE",
"119 -218 CURVE",
"147 -218 LINE",
"105 -181 OFFCURVE",
"90 -155 OFFCURVE",
"90 -116 CURVE SMOOTH",
"90 -72 OFFCURVE",
"109 -24 OFFCURVE",
"146 44 CURVE"
);
},
{
closed = 1;
nodes = (
"453 -293 LINE",
"466 -194 OFFCURVE",
"471 -106 OFFCURVE",
"471 10 CURVE SMOOTH",
"471 320 OFFCURVE",
"364 584 OFFCURVE",
"191 839 CURVE",
"124 788 LINE",
"296 537 OFFCURVE",
"385 312 OFFCURVE",
"385 10 CURVE SMOOTH",
"385 -102 OFFCURVE",
"382 -186 OFFCURVE",
"367 -285 CURVE"
);
},
{
closed = 1;
nodes = (
"462 939 LINE",
"354 709 OFFCURVE",
"231 536 OFFCURVE",
"40 335 CURVE",
"99 283 LINE",
"310 503 OFFCURVE",
"421 658 OFFCURVE",
"539 908 CURVE"
);
},
{
closed = 1;
nodes = (
"566 596 LINE",
"445 400 OFFCURVE",
"332 267 OFFCURVE",
"191 135 CURVE",
"245 79 LINE",
"382 208 OFFCURVE",
"507 354 OFFCURVE",
"633 559 CURVE"
);
}
);
vertOrigin = 90;
vertWidth = 1312;
width = 643;
}
);
unicode = 1B1D4;
},
{
glyphname = u1B1D5;
lastChange = "2020-03-23 17:15:15 +0000";
layers = (
{
layerId = "CFFEBDE4-599A-46B2-9328-D96E42CD9C81";
paths = (
{
closed = 1;
nodes = (
"90 421 OFFCURVE",
"113 438 OFFCURVE",
"113 477 CURVE SMOOTH",
"113 516 OFFCURVE",
"90 533 OFFCURVE",
"62 533 CURVE SMOOTH",
"33 533 OFFCURVE",
"10 516 OFFCURVE",
"10 477 CURVE SMOOTH",
"10 438 OFFCURVE",
"33 421 OFFCURVE",
"62 421 CURVE SMOOTH"
);
},
{
closed = 1;
nodes = (
"308 780 OFFCURVE",
"331 797 OFFCURVE",
"331 836 CURVE SMOOTH",
"331 875 OFFCURVE",
"308 892 OFFCURVE",
"280 892 CURVE SMOOTH",
"251 892 OFFCURVE",
"228 875 OFFCURVE",
"228 836 CURVE SMOOTH",
"228 797 OFFCURVE",
"251 780 OFFCURVE",
"280 780 CURVE SMOOTH"
);
},
{
closed = 1;
nodes = (
"461 939 LINE",
"381 674 OFFCURVE",
"261 442 OFFCURVE",
"66 194 CURVE",
"130 146 LINE",
"322 391 OFFCURVE",
"450 635 OFFCURVE",
"541 922 CURVE"
);
},
{
closed = 1;
nodes = (
"75 746 LINE",
"295 438 OFFCURVE",
"486 62 OFFCURVE",
"570 -293 CURVE",
"650 -275 LINE",
"566 119 OFFCURVE",
"350 496 OFFCURVE",
"141 791 CURVE"
);
},
{
closed = 1;
nodes = (
"409 258 LINE",
"346 107 OFFCURVE",
"278 -4 OFFCURVE",
"176 -135 CURVE",
"242 -184 LINE",
"339 -60 OFFCURVE",
"402 44 OFFCURVE",
"464 220 CURVE"
);
}
);
vertOrigin = 90;
vertWidth = 1312;
width = 660;
}
);
unicode = 1B1D5;
},
{
glyphname = u1B1D6;
lastChange = "2020-03-23 17:15:10 +0000";
layers = (
{
layerId = "CFFEBDE4-599A-46B2-9328-D96E42CD9C81";
paths = (
{
closed = 1;
nodes = (
"226 -214 OFFCURVE",
"251 -253 OFFCURVE",
"319 -293 CURVE",
"390 -284 LINE",
"447 -206 OFFCURVE",
"471 -140 OFFCURVE",
"471 -69 CURVE SMOOTH",
"471 -19 OFFCURVE",
"442 22 OFFCURVE",
"374 60 CURVE",
"300 50 LINE",
"249 -32 OFFCURVE",
"226 -96 OFFCURVE",
"226 -148 CURVE SMOOTH"
);
},
{
closed = 1;
nodes = (
"327 13 LINE",
"374 -23 OFFCURVE",
"391 -54 OFFCURVE",
"391 -83 CURVE SMOOTH",
"391 -126 OFFCURVE",
"374 -170 OFFCURVE",
"335 -246 CURVE",
"363 -246 LINE",
"321 -209 OFFCURVE",
"306 -183 OFFCURVE",
"306 -144 CURVE SMOOTH",
"306 -100 OFFCURVE",
"325 -52 OFFCURVE",
"362 16 CURVE"
);
},
{
closed = 1;
nodes = (
"387 939 LINE",
"314 705 OFFCURVE",
"189 478 OFFCURVE",
"10 264 CURVE",
"74 216 LINE",
"250 427 OFFCURVE",
"383 666 OFFCURVE",
"467 922 CURVE"
);
},
{
closed = 1;
nodes = (
"61 786 LINE",
"323 495 OFFCURVE",
"471 158 OFFCURVE",
"546 -183 CURVE",
"626 -165 LINE",
"551 215 OFFCURVE",
"378 553 OFFCURVE",
"127 831 CURVE"
);
},
{
closed = 1;
nodes = (
"358 422 LINE",
"295 271 OFFCURVE",
"213 137 OFFCURVE",
"72 -35 CURVE",
"138 -84 LINE",
"274 81 OFFCURVE",
"351 208 OFFCURVE",
"413 384 CURVE"
);
}
);
vertOrigin = 90;
vertWidth = 1312;
width = 636;
}
);
unicode = 1B1D6;
},
{
glyphname = u1B1D7;
lastChange = "2020-03-23 17:15:07 +0000";
layers = (
{
layerId = "CFFEBDE4-599A-46B2-9328-D96E42CD9C81";
paths = (
{
closed = 1;
nodes = (
"124 143 LINE",
"181 71 OFFCURVE",
"197 19 OFFCURVE",
"197 -54 CURVE SMOOTH",
"197 -138 OFFCURVE",
"174 -193 OFFCURVE",
"131 -253 CURVE",
"197 -293 LINE",
"252 -225 OFFCURVE",
"279 -148 OFFCURVE",
"279 -61 CURVE SMOOTH",
"279 15 OFFCURVE",
"263 99 OFFCURVE",
"190 185 CURVE"
);
},
{
closed = 1;
nodes = (
"100 -118 OFFCURVE",
"123 -101 OFFCURVE",
"123 -62 CURVE SMOOTH",
"123 -23 OFFCURVE",
"100 -6 OFFCURVE",
"72 -6 CURVE SMOOTH",
"43 -6 OFFCURVE",
"20 -23 OFFCURVE",
"20 -62 CURVE SMOOTH",
"20 -101 OFFCURVE",
"43 -118 OFFCURVE",
"72 -118 CURVE SMOOTH"
);
},
{
closed = 1;
nodes = (
"416 939 LINE",
"330 701 OFFCURVE",
"258 561 OFFCURVE",
"130 398 CURVE",
"190 346 LINE",
"318 511 OFFCURVE",
"412 684 OFFCURVE",
"491 914 CURVE"
);
},
{
closed = 1;
nodes = (
"537 362 LINE",
"473 223 OFFCURVE",
"414 115 OFFCURVE",
"304 -22 CURVE",
"363 -75 LINE",
"483 68 OFFCURVE",
"538 170 OFFCURVE",
"610 329 CURVE"
);
},
{
closed = 1;
nodes = (
"272 538 LINE",
"335 387 OFFCURVE",
"368 254 OFFCURVE",
"402 81 CURVE",
"472 119 LINE",
"442 309 OFFCURVE",
"403 437 OFFCURVE",
"327 619 CURVE"
);
}
);
vertOrigin = 90;
vertWidth = 1312;
width = 630;
}
);
unicode = 1B1D7;
},
